<mxfile host="app.diagrams.net" modified="2022-12-29T15:49:29.781Z" agent="5.0 (Windows NT 10.0; Win64; x64) AppleWebKit/537.36 (KHTML, like Gecko) Chrome/108.0.0.0 Safari/537.36" etag="5KSID9j5NN4fRjye1x_K" version="20.7.4" type="github" pages="3">
  <diagram id="Q-u3Var4rviJO-5498zc" name="Map template">
    <mxGraphModel dx="1434" dy="768" grid="0" gridSize="10" guides="1" tooltips="1" connect="1" arrows="1" fold="1" page="1" pageScale="1" pageWidth="1700" pageHeight="1100" math="0" shadow="0">
      <root>
        <mxCell id="0" />
        <mxCell id="1" parent="0" />
        <mxCell id="gbeb102Nz4SGvJQ0JvyH-24" value="" style="ellipse;whiteSpace=wrap;html=1;aspect=fixed;fontFamily=Verdana;fontSize=18;strokeWidth=2;" parent="1" vertex="1">
          <mxGeometry x="985" y="664.14" width="20" height="20" as="geometry" />
        </mxCell>
        <mxCell id="gbeb102Nz4SGvJQ0JvyH-25" value="" style="endArrow=none;html=1;rounded=0;strokeWidth=2;fontFamily=Verdana;fontSize=18;jumpStyle=arc;entryX=0.5;entryY=1;entryDx=0;entryDy=0;exitX=0.25;exitY=0;exitDx=0;exitDy=0;" parent="1" source="gbeb102Nz4SGvJQ0JvyH-52" edge="1">
          <mxGeometry width="50" height="50" relative="1" as="geometry">
            <mxPoint x="1020" y="494.14" as="sourcePoint" />
            <mxPoint x="995" y="444.14" as="targetPoint" />
          </mxGeometry>
        </mxCell>
        <mxCell id="gbeb102Nz4SGvJQ0JvyH-26" value="Capability" style="text;html=1;strokeColor=none;fillColor=none;align=center;verticalAlign=middle;whiteSpace=wrap;rounded=0;fontFamily=Verdana;fontSize=14;" parent="1" vertex="1">
          <mxGeometry x="1015" y="659.14" width="60" height="30" as="geometry" />
        </mxCell>
        <mxCell id="gbeb102Nz4SGvJQ0JvyH-36" value="Need" style="text;html=1;strokeColor=none;fillColor=none;align=center;verticalAlign=middle;whiteSpace=wrap;rounded=0;fontFamily=Verdana;fontSize=14;fontColor=#4472C4;" parent="1" vertex="1">
          <mxGeometry x="1195" y="494.14" width="41" height="30" as="geometry" />
        </mxCell>
        <mxCell id="gbeb102Nz4SGvJQ0JvyH-37" value="" style="shape=image;verticalLabelPosition=bottom;labelBackgroundColor=default;verticalAlign=top;aspect=fixed;imageAspect=0;image=data:image/png,iVBORw0KGgoAAAANSUhEUgAAACQAAAAkCAMAAADW3miqAAAAAXNSR0IArs4c6QAAAARnQU1BAACxjwv8YQUAAADJUExURQAAAECAv0Bwv0B1v0hwx0ZzxkVwxURyxER0w0Nxw0NzwkNxwkVxxERyxERxxERyw0RzxERyxERzxEVyxUVzxURyxURyxERzxERyxERzxERyxEVyxURyxERyxERyxERyw0RyxERzxEVyxUZ0xUh0xUp2xk15x1B7yFF7yVZ/yleAyluDy1yEzGGIzWSJzmWLz2aLz3OW03uc1X+e14Wj2Yun25y14Ke8463B5bnK6b7O6sTT7NDc8N3m9OLp9ujt+PP2+/n7/f///xuUCyQAAAAfdFJOUwAIEBggKDA4QEhQWGhweICHj5efp6+3v8fP19/n7/dK1oigAAAACXBIWXMAABcRAAAXEQHKJvM/AAABo0lEQVQ4T32UiVbCMBBFwypWlrK2UsAooiKiEURFqEv+/6N80wwlUco7J6/pzD3JtFmEo3K9FUDtxikH/qnYjGSqYbvCYVt5f8T5nbpFTqXyhpyyVeckq26ik+U7fLteXZv3To7zpLaJyR+t4VprJS+TQLinknEmaEgbV1LObinaZUR49GYR8FjrOAnu6irwZx2GZDmBmug5c8EZmqKFxJRooPs4jpVSqS+UWuAxQ0p6gFrUcYaBo3BlXsxQAzwvjkGyICrw8dN+Imc6pW6QrgofvnKHgXPhWr/Be6IDX2dDn/C+CODbbOgbPhK8h2wCvi+c/mDycVAmRCsoQhiUCZFEF7ZxCXha0xc8Sn74azb0AQ/FGXyeDb3AfZE3G8Um4E5NJ0L0ks4RaIAFNvvyCOTThjpH58HkUueantEGyVkoo0eH4wBEqhGz23YZUMCHKkeLLOdoKYeaHmkuGeUNg3vArPKVA40pNCwxAhV4BZdr2hpab+7Me2TOEyvHdUFT+lKjMJ2L5fU5k2pYs68LVtW6w4D4f4dhlRqBWcmwZd1zQvwCczOpTLAqjrgAAAAASUVORK5CYII=;" parent="1" vertex="1">
          <mxGeometry x="1169" y="499.14" width="20" height="20" as="geometry" />
        </mxCell>
        <mxCell id="gbeb102Nz4SGvJQ0JvyH-38" value="" style="endArrow=none;html=1;rounded=0;strokeWidth=2;fontFamily=Verdana;fontSize=18;jumpStyle=arc;entryX=0.75;entryY=1;entryDx=0;entryDy=0;exitX=0;exitY=0.25;exitDx=0;exitDy=0;" parent="1" source="gbeb102Nz4SGvJQ0JvyH-37" edge="1">
          <mxGeometry width="50" height="50" relative="1" as="geometry">
            <mxPoint x="1005" y="674.14" as="sourcePoint" />
            <mxPoint x="1015" y="444.14" as="targetPoint" />
          </mxGeometry>
        </mxCell>
        <mxCell id="gbeb102Nz4SGvJQ0JvyH-48" value="" style="ellipse;whiteSpace=wrap;html=1;aspect=fixed;fontFamily=Verdana;fontSize=18;strokeWidth=2;strokeColor=#FF0000;" parent="1" vertex="1">
          <mxGeometry x="790" y="674.14" width="20" height="20" as="geometry" />
        </mxCell>
        <mxCell id="gbeb102Nz4SGvJQ0JvyH-49" value="Capability" style="text;html=1;strokeColor=none;fillColor=none;align=center;verticalAlign=middle;whiteSpace=wrap;rounded=0;fontFamily=Verdana;fontSize=14;fontColor=#FF0000;" parent="1" vertex="1">
          <mxGeometry x="810" y="669.14" width="75" height="30" as="geometry" />
        </mxCell>
        <mxCell id="gbeb102Nz4SGvJQ0JvyH-50" value="" style="endArrow=none;html=1;rounded=0;strokeWidth=2;fontFamily=Verdana;fontSize=18;jumpStyle=arc;exitX=0.5;exitY=0;exitDx=0;exitDy=0;strokeColor=#FF0000;" parent="1" source="gbeb102Nz4SGvJQ0JvyH-53" edge="1">
          <mxGeometry width="50" height="50" relative="1" as="geometry">
            <mxPoint x="1005" y="674.14" as="sourcePoint" />
            <mxPoint x="955" y="427.999649122807" as="targetPoint" />
          </mxGeometry>
        </mxCell>
        <mxCell id="gbeb102Nz4SGvJQ0JvyH-51" value="Need" style="text;html=1;strokeColor=none;fillColor=none;align=center;verticalAlign=middle;whiteSpace=wrap;rounded=0;fontFamily=Verdana;fontSize=14;fontColor=#000000;" parent="1" vertex="1">
          <mxGeometry x="1059" y="489.14" width="41" height="30" as="geometry" />
        </mxCell>
        <mxCell id="gbeb102Nz4SGvJQ0JvyH-52" value="" style="shape=image;verticalLabelPosition=bottom;labelBackgroundColor=default;verticalAlign=top;aspect=fixed;imageAspect=0;image=data:image/png,iVBORw0KGgoAAAANSUhEUgAAACQAAAAkCAMAAADW3miqAAAAAXNSR0IArs4c6QAAAARnQU1BAACxjwv8YQUAAADJUExURQAAAECAv0Bwv0B1v0hwx0ZzxkVwxURyxER0w0Nxw0NzwkNxwkVxxERyxERxxERyw0RzxERyxERzxEVyxUVzxURyxURyxERzxERyxERzxERyxEVyxURyxERyxERyxERyw0RyxERzxEVyxUZ0xUh0xUp2xk15x1B7yFF7yVZ/yleAyluDy1yEzGGIzWSJzmWLz2aLz3OW03uc1X+e14Wj2Yun25y14Ke8463B5bnK6b7O6sTT7NDc8N3m9OLp9ujt+PP2+/n7/f///xuUCyQAAAAfdFJOUwAIEBggKDA4QEhQWGhweICHj5efp6+3v8fP19/n7/dK1oigAAAACXBIWXMAABcRAAAXEQHKJvM/AAABo0lEQVQ4T32UiVbCMBBFwypWlrK2UsAooiKiEURFqEv+/6N80wwlUco7J6/pzD3JtFmEo3K9FUDtxikH/qnYjGSqYbvCYVt5f8T5nbpFTqXyhpyyVeckq26ik+U7fLteXZv3To7zpLaJyR+t4VprJS+TQLinknEmaEgbV1LObinaZUR49GYR8FjrOAnu6irwZx2GZDmBmug5c8EZmqKFxJRooPs4jpVSqS+UWuAxQ0p6gFrUcYaBo3BlXsxQAzwvjkGyICrw8dN+Imc6pW6QrgofvnKHgXPhWr/Be6IDX2dDn/C+CODbbOgbPhK8h2wCvi+c/mDycVAmRCsoQhiUCZFEF7ZxCXha0xc8Sn74azb0AQ/FGXyeDb3AfZE3G8Um4E5NJ0L0ks4RaIAFNvvyCOTThjpH58HkUueantEGyVkoo0eH4wBEqhGz23YZUMCHKkeLLOdoKYeaHmkuGeUNg3vArPKVA40pNCwxAhV4BZdr2hpab+7Me2TOEyvHdUFT+lKjMJ2L5fU5k2pYs68LVtW6w4D4f4dhlRqBWcmwZd1zQvwCczOpTLAqjrgAAAAASUVORK5CYII=;" parent="1" vertex="1">
          <mxGeometry x="1020" y="494.14" width="20" height="20" as="geometry" />
        </mxCell>
        <mxCell id="gbeb102Nz4SGvJQ0JvyH-53" value="" style="shape=image;verticalLabelPosition=bottom;labelBackgroundColor=default;verticalAlign=top;aspect=fixed;imageAspect=0;image=data:image/png,iVBORw0KGgoAAAANSUhEUgAAACQAAAAkCAMAAADW3miqAAAAAXNSR0IArs4c6QAAAARnQU1BAACxjwv8YQUAAADkUExURQAAAP8AAP8AAP8AAP8AAP8AAP8AAP8AAP8AAP8AAP8AAP8AAP8AAP8AAP8AAP8AAP8AAP8AAP8AAP8AAP8AAP8AAP8AAP8AAP8AAP8AAP8AAP8AAP8AAP8AAP8AAP8AAP8DA/8ICP8KCv8MDP8NDf8QEP8REf8UFP8YGP8gIP8hIf8kJP8oKP8qKv8tLf8uLv80NP9AQP9LS/9PT/9QUP9gYP9iYv9wcP91df98fP+Cgv+Hh/+Pj/+dnf+fn/+np/+vr/+3t/+9vf+/v//Kyv/Pz//R0f/f3//n5//v7//39////8jzct0AAAAfdFJOUwAIEBggKDA4QEhQWGhweICHj5efp6+3v8fP19/n7/dK1oigAAAACXBIWXMAABcRAAAXEQHKJvM/AAABrUlEQVQ4T32UiXaCMBBF41pLXXCnbtFuamtLF7prV6W1/P//9E0YMIryzuExzNwTAslErClbrDShammfExGly20ZqlvNcVpX0uxxPVA9zaVQRpdLuopcZBU57Uy/4W/3I/+xluA6qapSw+e5bduu68Jn1yplrSge58/z4B77R59ydUaEQU9QUGafqCTPK0WfNZwELwr99uqIqKyCyhRuDgN3vd8hbhYxGf//bIO8KVUMQBUKdkAuVWioDu7vEQJuS2kvEMqUyMH76x+vQd4N4rww4WcbZQ16RdwQNfhLlIAHc5It0YTPcMVAPUF76BNXDCTVx02iBFzNyTslyIJdxECIpajDxruhH8Rt9cMfogQ8nJMlDuDnuGIgUyR5/8dAe0I0cHMiBJzmRNuggwVW+3KxHbocIDRpQx0iGC+3QseIOqoXsogiBNz1HqlQIIa3nbOMQIppclMlaJHlhDaYDqnOayd9BueAf1Lcfa26Zf50QqluhhEoRSso5cCB+cP4fd72+4mV4HaARmMOsB7hu1hGiyuhugX9uGDltTMMiLk5DCtTavoraVW0c06If/L5sbM7SElwAAAAAElFTkSuQmCC;" parent="1" vertex="1">
          <mxGeometry x="840" y="489.14" width="25" height="25" as="geometry" />
        </mxCell>
        <mxCell id="gbeb102Nz4SGvJQ0JvyH-54" value="GraphQL-Lite" style="text;html=1;strokeColor=none;fillColor=none;align=center;verticalAlign=middle;whiteSpace=wrap;rounded=0;fontFamily=Verdana;fontSize=14;fontColor=#000000;" parent="1" vertex="1">
          <mxGeometry x="413" y="762" width="98" height="30" as="geometry" />
        </mxCell>
        <mxCell id="gbeb102Nz4SGvJQ0JvyH-56" value="" style="endArrow=none;html=1;rounded=0;strokeWidth=2;fontFamily=Verdana;fontSize=18;jumpStyle=arc;entryX=0.25;entryY=1;entryDx=0;entryDy=0;exitX=0.5;exitY=0;exitDx=0;exitDy=0;strokeColor=#FF0000;" parent="1" source="gbeb102Nz4SGvJQ0JvyH-48" target="gbeb102Nz4SGvJQ0JvyH-53" edge="1">
          <mxGeometry width="50" height="50" relative="1" as="geometry">
            <mxPoint x="862.5" y="499.14" as="sourcePoint" />
            <mxPoint x="985" y="454.14" as="targetPoint" />
          </mxGeometry>
        </mxCell>
        <mxCell id="KHLUM0d-9jioQt2E-rLw-1" value="" style="endArrow=none;html=1;rounded=0;strokeWidth=2;fontFamily=Verdana;fontSize=18;jumpStyle=arc;entryX=0.5;entryY=1;entryDx=0;entryDy=0;exitX=0.5;exitY=0;exitDx=0;exitDy=0;" parent="1" source="gbeb102Nz4SGvJQ0JvyH-24" target="gbeb102Nz4SGvJQ0JvyH-52" edge="1">
          <mxGeometry width="50" height="50" relative="1" as="geometry">
            <mxPoint x="1035" y="504.14" as="sourcePoint" />
            <mxPoint x="1005" y="454.14" as="targetPoint" />
          </mxGeometry>
        </mxCell>
        <mxCell id="gbeb102Nz4SGvJQ0JvyH-3" value="" style="endArrow=classic;html=1;rounded=0;strokeWidth=2;jumpStyle=sharp;movable=0;resizable=0;rotatable=0;deletable=0;editable=0;connectable=0;" parent="1" edge="1">
          <mxGeometry width="50" height="50" relative="1" as="geometry">
            <mxPoint x="68" y="1056" as="sourcePoint" />
            <mxPoint x="64" y="30" as="targetPoint" />
          </mxGeometry>
        </mxCell>
        <mxCell id="gbeb102Nz4SGvJQ0JvyH-4" value="" style="endArrow=classic;html=1;rounded=0;strokeWidth=2;fontSize=16;movable=0;resizable=0;rotatable=0;deletable=0;editable=0;connectable=0;" parent="1" edge="1">
          <mxGeometry width="50" height="50" relative="1" as="geometry">
            <mxPoint x="68" y="1055" as="sourcePoint" />
            <mxPoint x="1679" y="1055" as="targetPoint" />
          </mxGeometry>
        </mxCell>
        <mxCell id="gbeb102Nz4SGvJQ0JvyH-8" value="Genesis" style="text;html=1;strokeColor=none;fillColor=none;align=center;verticalAlign=middle;whiteSpace=wrap;rounded=0;fontFamily=Lucida Console;fontSize=14;fontStyle=0;movable=0;resizable=0;rotatable=0;deletable=0;editable=0;connectable=0;" parent="1" vertex="1">
          <mxGeometry x="70.5" y="1065" width="60" height="30" as="geometry" />
        </mxCell>
        <mxCell id="gbeb102Nz4SGvJQ0JvyH-9" value="Custom-Built" style="text;html=1;strokeColor=none;fillColor=none;align=left;verticalAlign=middle;whiteSpace=wrap;rounded=0;fontFamily=Lucida Console;fontSize=14;fontStyle=0;movable=0;resizable=0;rotatable=0;deletable=0;editable=0;connectable=0;" parent="1" vertex="1">
          <mxGeometry x="292" y="1060" width="136" height="30" as="geometry" />
        </mxCell>
        <mxCell id="gbeb102Nz4SGvJQ0JvyH-10" value="Product (&lt;i&gt;+rental&lt;/i&gt;)" style="text;html=1;strokeColor=none;fillColor=none;align=center;verticalAlign=middle;whiteSpace=wrap;rounded=0;fontFamily=Lucida Console;fontSize=14;fontStyle=0;movable=0;resizable=0;rotatable=0;deletable=0;editable=0;connectable=0;" parent="1" vertex="1">
          <mxGeometry x="749" y="1060" width="167" height="30" as="geometry" />
        </mxCell>
        <mxCell id="gbeb102Nz4SGvJQ0JvyH-11" value="Commodity (&lt;i&gt;Utility&lt;/i&gt;)" style="text;html=1;strokeColor=none;fillColor=none;align=left;verticalAlign=middle;whiteSpace=wrap;rounded=0;fontFamily=Lucida Console;fontSize=14;fontStyle=0;movable=0;resizable=0;rotatable=0;deletable=0;editable=0;connectable=0;" parent="1" vertex="1">
          <mxGeometry x="1264" y="1060" width="215" height="30" as="geometry" />
        </mxCell>
        <mxCell id="gbeb102Nz4SGvJQ0JvyH-14" value="" style="endArrow=none;dashed=1;html=1;dashPattern=1 3;strokeWidth=2;rounded=0;fontFamily=Verdana;fontSize=21;jumpStyle=arc;movable=0;resizable=0;rotatable=0;deletable=0;editable=0;connectable=0;" parent="1" edge="1">
          <mxGeometry width="50" height="50" relative="1" as="geometry">
            <mxPoint x="293" y="1053" as="sourcePoint" />
            <mxPoint x="293" y="88" as="targetPoint" />
          </mxGeometry>
        </mxCell>
        <mxCell id="gbeb102Nz4SGvJQ0JvyH-18" value="Invisible" style="text;html=1;strokeColor=none;fillColor=none;align=center;verticalAlign=middle;whiteSpace=wrap;rounded=0;fontFamily=Lucida Console;fontSize=14;fontStyle=0;rotation=-90;movable=0;resizable=0;rotatable=0;deletable=0;editable=0;connectable=0;" parent="1" vertex="1">
          <mxGeometry x="0.5" y="992" width="70" height="30" as="geometry" />
        </mxCell>
        <mxCell id="gbeb102Nz4SGvJQ0JvyH-20" value="Value Chain" style="text;html=1;strokeColor=none;fillColor=none;align=center;verticalAlign=middle;whiteSpace=wrap;rounded=0;fontFamily=Courgette;fontSource=https%3A%2F%2Ffonts.googleapis.com%2Fcss%3Ffamily%3DCourgette;fontSize=18;fontStyle=1;rotation=-90;movable=0;resizable=0;rotatable=0;deletable=0;editable=0;connectable=0;" parent="1" vertex="1">
          <mxGeometry x="-6" y="520" width="110" height="30" as="geometry" />
        </mxCell>
        <mxCell id="KHLUM0d-9jioQt2E-rLw-2" value="User" style="text;html=1;strokeColor=none;fillColor=none;align=center;verticalAlign=middle;whiteSpace=wrap;rounded=0;fontFamily=Verdana;fontSize=14;movable=1;resizable=1;rotatable=1;deletable=1;editable=1;connectable=1;" parent="1" vertex="1">
          <mxGeometry x="802.5" y="37" width="60" height="30" as="geometry" />
        </mxCell>
        <mxCell id="w25-VDKlAGupslMlKSNm-3" value="" style="endArrow=none;dashed=1;html=1;dashPattern=1 3;strokeWidth=2;rounded=0;fontFamily=Verdana;fontSize=21;jumpStyle=arc;movable=0;resizable=0;rotatable=0;deletable=0;editable=0;connectable=0;" parent="1" edge="1">
          <mxGeometry width="50" height="50" relative="1" as="geometry">
            <mxPoint x="746.0000000000001" y="1053" as="sourcePoint" />
            <mxPoint x="746" y="88" as="targetPoint" />
          </mxGeometry>
        </mxCell>
        <mxCell id="w25-VDKlAGupslMlKSNm-4" value="" style="endArrow=none;dashed=1;html=1;dashPattern=1 3;strokeWidth=2;rounded=0;fontFamily=Verdana;fontSize=21;jumpStyle=arc;movable=0;resizable=0;rotatable=0;deletable=0;editable=0;connectable=0;" parent="1" edge="1">
          <mxGeometry width="50" height="50" relative="1" as="geometry">
            <mxPoint x="1264" y="1052" as="sourcePoint" />
            <mxPoint x="1264" y="90" as="targetPoint" />
          </mxGeometry>
        </mxCell>
        <mxCell id="w25-VDKlAGupslMlKSNm-5" value="Visible" style="text;html=1;strokeColor=none;fillColor=none;align=center;verticalAlign=middle;whiteSpace=wrap;rounded=0;fontFamily=Lucida Console;fontSize=14;fontStyle=0;rotation=-90;fontColor=#000000;movable=0;resizable=0;rotatable=0;deletable=0;editable=0;connectable=0;" parent="1" vertex="1">
          <mxGeometry x="4" y="67" width="63" height="30" as="geometry" />
        </mxCell>
      </root>
    </mxGraphModel>
  </diagram>
  <diagram id="oe4zgD_eR9uOyElzEqIC" name="Glossary of terms">
    <mxGraphModel dx="1434" dy="768" grid="1" gridSize="10" guides="1" tooltips="1" connect="1" arrows="1" fold="1" page="1" pageScale="1" pageWidth="827" pageHeight="1169" math="0" shadow="0">
      <root>
        <mxCell id="0" />
        <mxCell id="1" parent="0" />
        <mxCell id="iNU4SzB9ZhQ7jGjwVNzf-7" value="" style="shape=image;verticalLabelPosition=bottom;labelBackgroundColor=default;verticalAlign=top;aspect=fixed;imageAspect=0;image=data:image/png,iVBORw0KGgoAAAANSUhEUgAABEoAAAJ3CAYAAACDcrSpAAAgAElEQVR4nOzdcXAT55038K8KJg1HVNf0JiUlYGs1Q5MJZtxM4SA2LnZrObneJY7d9yympXbOw5zcyx3j89g3b/xyjI9kYg8luqbFN4xruy1Fzjv2JSSTgNTDGbDBDUngYvOmx40lBOFI0rm4PiWhR5xm3z+s52F3tZJWtiwZ/P3MaMCr3WefffbZlZ6fnudZm6qqKoiIiIiIiIiICJ/LdgaIiIiIiIiIiBYKBkqIiIiIiIiIiKIYKCEiIiIiIiIiilpqXPDb3/42G/kgogz6r//6L3zpS1/KdjaIsobXABEREREJH3/8MQoKCuTfukBJRUUFfvWrX2U8U0RERERERERE2aJ9zo0uUPKNb3wDr732Gh599NGMZ4qIMuP999/H0aNH8Rd/8Re4/fbbs50dooy7fPkyhoaGsGPHDnzucxyBSkRERLSYhUIhnD59WrcsZuhNTk4O1q5dm7FMEVFm2Ww2AMDq1auxYsWKLOeGKPP+53/+BwCwZs0aLFmyJMu5ISIiIqJsikQiso0k8Kc0IiIiIiIiIqIoBkqIiIiIiIiIiKIYKCEiIiIiIiIiimKghIiIiIiIiIgoioESIiIiIiIiIqIoBkqIiIiIiIiIiKIYKCEiIiIiIiIiimKghIiIiIiIiIgoioESIiIiIiIiIqIoBkqIiIiIiIiIiKIYKCEiIiIiIiIiimKghIiIiIiIiIgoioESIiIiIiIiIqKopdnOABERzXjiiSeQk5ODgYEBnD9/fsGlR0RERES0GKQcKNm2bRu++tWv4s477wQAXLt2De+99x5efPFFTE1NpT2DRESZsm3bNhQVFcFutwMAIpEIzp07h1dffTUj+8/JyQEA/NEf/dGCTG8x2LZtG0pLS+XfFy5cgM/ni1lv06ZN+OY3vynLeGxsDP/yL/+SsXxqNTU1wW63IxQK4ec//3lW8kBERER0K0lp6E1DQwNKS0tlkAQAli9fDofDgQcffDDtmcu0Rx99FHv27METTzyR7awQUYY9+uijKC0tlUESALDb7bpGM936vvzlL+v+XrduHXJzc2PW+9rXviaDJABw2223zXveiIiIiCgzLPcoeeihh7B69WoAwPvvv49XXnkFly5dwtq1a/Gtb31r3jKYSeKLrvbLLxEtDvfccw+Amfubz+fD1NQUHnroIdx3331Zzhlly/T0NHJycrBlyxa88sorcvnatWvlDwaRSEQXXMuG/fv3Z3X/RERERLcay4ES0Vi4du2abEQAwKVLl9Dd3a1b1+12Y9WqVbru6+FwWNctec+ePZiensaRI0ewbds2rFy5EtPT03jnnXdiug673W7cfffdWL58Oa5du4aJiQldWtr3AX0gBwAef/xxrFy5EkePHsX69etx5513IicnBx988AFefPFFXLp0CR6PR9dTZs+ePbp/iejWJgKkH3/8sby/vfLKK7KBLOb7MA6xEPcOMUQj0b3txRdfxIMPPgiHwyHvQb/4xS9ihi1+5Stfkelqt9WuZ+U+S3PzzjvvwOFwQFEU3fItW7YAmPmsWbo09mM0NzcXNTU18rPG7By63W586UtfwsqVKwHMBGXef/99DAwMyHWMn13aHyu0n8OirmjrptXP2Pvuuw8lJSW6zz/h6NGjeO211+ZUhkREREQ3I0tDb9auXSuDEO+9917CuUgaGhqwbt26mO7rhYWF2LFjh27dnJwc1NTUyC+KOTk5cDgccLvdch2Px4N169bJ/S9fvhyFhYVYu3atbn/ifQC488478d3vfjemu/Q3v/lNrF69WjaIVq5cierqaitFQES3uEgkAgBwOBxoaGiQ9xhhcnISAJCfny+X5ebmygbme++9J5fHu7f94Ac/wLp163T3oO9973sxeSksLJTpim3//M//XL6fyn2WZu/s2bMAZs6Ttj7cfffdACCD8Vq5ubl47LHHdJ814hxqz/W6detk/RDrrF69Wvf5Jzz44IMySALMfMZp0xLBGuPwn2SfsWvXrsXDDz9sGiQhIiIiWswsBUq0Y7anp6fjrnfffffJL3MXLlzAnj174PV68f777wOYaYAYgxeRSAQDAwPwer2yofKlL31Jpie+wIn0ent75Xpif9PT0zh69Kh8/9q1a7K7tJFY78KFCwBmGhebNm1CV1eXXAbM/BrH3iREi0cgEJD3t9WrV6O+vh6PP/647E337//+7wBm7hmi0SzuMdPT0zETvkYiEfT29sLr9eLatWsAIHuk7NmzB6FQCAB0jWWzbT/44AMAM/dPYHb3WZqd8+fPy3MnzvWmTZuwfPlyTE9P64bjCGVlZbDb7fIc7tmzB0ePHgWgD7hcuHBBfh7t2bMHY2NjAGAatJiensaJEyewZ88eXLlyRaZlRaLP2Pvvv1/2bPJ6vbp1zpw5w94kREREtGilNJlrMuvXrwcw86VOPCVgamoKw8PDcp1169bptjl16hTOnz+PqakpvPvuuwCA22+/PW56ly5dwv79+3Hp0iX5fk5ODh588EHs2bMH9fX1snfJF77wBd2+QqGQ/OInvrgCNxogRLR4nT9/Hj/5yU9w5coVGTBZuXIlHn74YaxduxavvvqqXC4azaLRK4IUWqdOncKlS5cwNTWF3//+9wCADz74QA6N0AZmjb1XtNtqH+u7adOmWd1nafZETyHRi0SUv9k5B2aGTQEzAbX6+nrs2bNHN9m5+OFhfHwcX/va1/DEE09gz549KCwsjJuHUCgkA3Hj4+NyubHemEn0GWtG9E75/Oc/nzRtIiIioluVpUDJxx9/nFKi4hcpQftF3wrtMBqz9Ky6fv163Pf4KGMiMpqamkJ3dzd+8pOfyEBGTk6OfPLNO++8A+BGo1n8+h8MBue0X+OTVrREjwajud5nyZoTJ04AmPlc2rRpkzzn2oBFKj7++GOsXbtWN4fJbCWqN4mIz9g333wT09PTWLlyJXbt2oVdu3bJ3jJvvvnmrPNFREREdLOzNJnr+fPn8fDDDyMnJ0c2EBIxPgFgrk+NSPZEgWvXrqGzszOlNLVd0xMFVIho8ZmamoLP55OTaYreaWfPnoXD4cDy5cvlPA9mw27SSRs41gat032fJXOXLl2ST7YpLS1FTk4Orl27lnRYypUrV2ImOhdE3bl27Rqee+45XLp0CZs2bdL1PMmEL3/5y/J4cnJykJOTg0gkgkAgYDr/ChEREdFiYXnojRhPv3z5cng8Htnld+3atXC73XC73bKLck5OjvwimJubi5KSEgAzDYpUxjybpbd27Vo5b4B4f/ny5Xj00Ufldtu2bUNTU1NMw8HhcGDTpk0AgJqaGrn8P/7jP2L2nZuba6lbMxHd/O677z60tLTgoYcekkHUTZs2yWDEf/7nfwKYCRqLnhxieEu8IRhz8cADD2Dt2rXIzc1FUVERgJn75/nz59N+n6XkwuEwAOgmNY/nv//7vwHM9DYSnze5ubl46KGH0NLSYrp+bm6uHNKTSWKf7733Hp588kns2bMH+/fvZ+8kIiIiWvQsPx746NGj8lGUd955J+rr63XvX7hwAa+++iqKiopgt9uxbt26mMlQz507l1LmkqWnfb+wsDDhGG/gxlwm2l/tPvjgA/mlcHx8XDZ+du3aBYCPByZaLJYvX46NGzdi48aNuuWRSARDQ0Py73A4rLvXzHXYjZnbb7895h4rgtXpvs9Scm+++abunIvhOGZOnDiBu+++2/TzRsxxEwqF5NPaxGdNNgSDQdx5551wOBy6eiQ+F+ezpxQRERHRQma5R8nU1BT279+PCxcu6MbGX7t2DaFQSE6O2tPTgwsXLujG1X/wwQc4ceKE6RMCtF3JxRAY7ZN1enp6dJMrXrt2DWNjYzK40dPTg1AopNvf+++/j6NHj8b8KhYKheQTA4CZrtG/+MUv5N/nz59HKBSS+xJPmyCiW9v58+dx5swZ3TUv7m09PT26OY2GhobkPSLRsBvtve3TTz/V/Wt8X/v/6elpHDlyRN5np6enceHCBTlxKzC3+ywlJj6HtGV76dIlWTc++OAD3bAU7TkV6x45ckT3uTU9PY0rV67g0KFDAIDXXnsNZ86ckfsQn2vxniqnHR4ar94Y1zNbx/gZK4beGK1cuRKlpaXsVUlERESLlk1VVVX88dRTT2H//v3467/+62zmKe3EPAPGxgbRYnT58mX09vbi7/7u77BixYpsZ+em1NLSguXLlyMUCuHnP/95trNDKbpw4QL6+/vR1taGJUuWZDs7WfPEE08gJydH99n40EMPyV5VR48e5TAuIiIiuuWNj4/jpZdewieffCKXWR56Q0REMw1JMVfF2bNns5wbotmbnp5GTk6O6RCuSCTCIAkREREtWpaH3tzMRNdoPt2GiOZKURQA+vmNiG5Gzz33nG6IEKAfckZERES0WC2KHiVdXV3ZzgIR3SKeffbZbGeBKC0uXboU9xHGRERERIvZouhRQkRERERERERkBQMlRERERERERERRDJQQEREREREREUUxUEJEREREREREFMVACRERERERERFRFAMlRERERERERERRDJQQEREREREREUUxUEJEREREREREFMVACRERERERERFRFAMlRERERERERERRDJQQEREREREREUUxUEJEREREREREFGVTVVUVf3z729/GK6+8gpycnGzmiYjmkaqqmJ6exrJly7KdFaKs+Oyzz/Dpp5/yGiAiIiJKgc1my3YW5sVnn32G6elpaEIjWKpdYcuWLXj99dfxD//wDxnPHBFlRjAYxP79+/H000/jC1/4QrazQ5Rx//Zv/4Znn30WP/7xj7FkyZJsZ4eIiIiIsui1117DT3/6U92ypcaV7HY7vve972UsU0SUWaOjo9i/fz9qa2uxatWqbGeHKOOOHDmCZ599Ft///vfZq4SIiIhokfv85z+P3t5e3TLOUUJEREREREREFMVACRERERERERFRFAMlRERERERERERRDJQQEREREREREUUxUEJEREREREREFMVACRERERERERFRFAMlRERERERERERRDJQQEREREREREUUxUEJEREREREREFMVACRERERERERFRFAMlRERERERERERRDJQQEREREREREUUxUEJEREREREREFMVACRERERERERFRFAMlRERERERERERRDJTQgjc5OYmqqirY7XZs2LAh7nq2K1dw+6OP4g67HXfY7Vh24EAGczk34+PjsNvtWLNmDdrb27OdHSJKs5GREdhsNnR2dqY97VAoNG9pp5vIa2NjY7azQlE2mw39/f3zvp/ZnPv5vG5uJp2dnbDZbBgZGcnK/hsbG2Gz2W7Za1fUs0xcB3NRWVkJp9OZlrREnQqFQmlJT+jv74fNZktrmkTZknKgJBAIoL6+Hna7XTZc29vbMTk5OR/5I8KPf/xjHD9+HADwu9/9Lu56n/8//wdL//Vf5d+2//zPec9bunz00UcAgKmpKezbtw/j4+NZzhERiS+SlZWV2c4K0bwQAYja2tos54QWqv7+fnR1dWF4eBiqquLATfQjFGWeuJcs9uAm3RpSCpQ0NTWhpqYGg4ODctnFixexb98+/PznP0975m5logeB3W5f8I3iNWvWwG63o6enJyv7P3fuHACgubkZly9fjrueCIxM19fjw0gEn/6v/5XSflZ85SszPVGefnr2mZ2lzZs3IxKJoKCgAADw+uuvZzwPRKR38OBBeDwe+P3+Of/qVlxcDFVV0dLSkqbcLXxOpzMmyORwOGIaWzfLr7m3IlHH083quU/G7LoRv1hnq3fFfIp3LbS0tEBVVRQXF2c8T+J7V7r3PV89Gij7PB4PDh48mO1sEM2Z5UDJ4OAguru7AQDV1dUYGxtDJBLB2NgYGhoa5i2DtyrRg8D4/4VoamoKABCJRLKaD7vdnvD9z/2//wcAUFesAAD8IcEwHTO2Dz/U/ZsNDocDQPbLmmixGxkZQTAYRHNzMwBgYGAgyzkiSq9QKIRgMIitW7dmOyu0gIXD4WxngW4y27dvRzAYZBCMbnqWAyVi3oSCggL88Ic/RH5+PgAgPz8f+/fvx65du+S6Xq8XpaWlssdEaWlpTG8EMR/D+Pi4nH9CzM8wOTkJr9crezJUVVXphvaI9UdHR9HU1KRbz3hDDwQCcv14Q4WM6Yl16+vrY4YUBQKBmGMbHR3VHbvofaE9htLSUtlzpKenBy6XS27jcrnk/kVZ2+12NDU1xT0fVstAHL94XxyXthfL5OSkLg2RV9HrRdi9ezfsdju8Xm/cfKVS3oODg/L/c+mtsvTIEdxht8sAx7Jnn8UddjuWHjmCZU8/jTvsdqz4yld02yyvqJC9R5a8+iru0Byn2P62J54AYN7TROxTm65M88ABXfpAdP6U+nqZ1oqvfAWf/9u/he3KlVkfNxHNn8OHD8PlcsHhcMDlcln+dczpdMqx/Npf1M3mEamsrERlZaX8FVm8zH4p176vfSX6ImpM1+oQosrKyoT5EcchfhEWL0H84h8MBuH3+2PS0c5zUFlZiZKSEgCA2+2GzWaD0+lM2Msk2TwJoqy1L2M6qZR9svJJ1sW8sbERTqczJl8iT8nmf0i2v8rKSjQ2NsaknyxfIvi3ceNG3XKz8jOrZ9q6LsoulXMvjttI22PEeN04nU643W4AQElJiazX8XonpNJbqbOzU87/EO86FvnW1lFt+sZrwuyaM9Y5sc9414KxTLSMdcN4nNq6lWqvLVH2XV1dAG7cg0QZW7kOjOUhzr3NZkNraysAQFGUWc19YixHs/JxOp1obGzU5cNq412UnSizVO4Z4nzFu4bMjjdeHbZSNsZ9mdHW6XjpmZWpth4CsfcHszlT7rrrLgD8gYFuAarGk08+qTqdTjUSieheY2NjKgAVgNrc3BzzvvbV0NAg1zW+tNvGWweAmpubG7OsvLxcblteXh53vaKiIrleb29v3H1o1xPpmb20+02Unt/vVyORiNre3p7wuMLhsOr1ehOmIfKj3bfxZbUM4h1bbm5uwnXKy8vVU6dOmW7b3t5umqdUy1ub93hpRiIRtaCgQFc+xtfHR46oKhDzuvaLX6jXH39c/q3d5tM/+RNVBdTrjz8ed/vrjz+uRiKRmL8jkYh67Re/iElXpPnZHXfotvnw7bfVP9xzj+k+Pv2TPzE9r4nKY64vv9+vAlCvXr2qEi1GL7zwggpAvX79etx1AKgdHR2qqqqqz+dTAajDw8MJ03W5XKrL5ZJ/d3R0qD6fT1VVVQ0Gg7o0xfriHih4PB4VgBoMBnV58Xg88m9FUVRFUeTfZmmLPIv9i+20+TNjTNvs2EWetWkZt0u0P+PxDA8Px+Q13vbJzoVIK1lZWC17I5fLpUvHLG0jka7ZvrR5Ncu7lf1pj0Xk3Wq+jOdM1CXjMRuXmdVB7d9Wzn28867NV6K6ra0DZuuJtIx5j6ejo0OWo/G61dZXs/MptteuZ7at2Tnu6OiIqQPGMjE7ZrPzov3b+H68tJMxK0Mr9VKUpzHP4m/xfqLrLR6r+1MUJeZeZcZYNiKt2dwzzPJhXM/s2hOfH9p9inyJtFwul+m936x+ahmvV20dFnkyloHV+mvMk3af2m2JFrpf/vKXak5Ojm6ZpUCJaFgla8BpG9ZivXA4rFZXV8vl4XBYFygpKipSx8bG1HA4LBvEAFSv16tGIhG1ublZLjNraJsFKMQy0RCvrq6W+9WuNzAwEJOeWKYN+Ij9ivRE3rTH1tDQEJO+KANtAEHkTVumxgCAOGaRZrJASaIy6O3tVQcGBuTxa8+RWMdYHn6/X62uro4JaiVrvKda3iIP4XBYrm98DQwMyHXHxsYS7l8EH7QBDSuBkkTbzyZQomImSPPh22+rH779tvo///t/qyqg/uGee9SPh4djthfLtPWuvLw8bpkwUEI0N8kCJcZGidkXRjOKosQ01IREgRKz9cSXVZEX7Rdx4zKztM2+pBq/dMc7bmPDxRgAMmt4mG0710CJWUPKrIGhFW+fxi/zVsreqmR1w6wxZdbgSJT/RPsTx2I8b8nSMp7XeIzXQ7x6YmXfxryb1VPtMquBEnE8ZsE6q401s8axqsY2PMXfVuqJWb1LVOZWAyXJruV47ye7fsxYDTYZz61Z/daaS6Ak3jVnrHciUJJsH9pyjxdktHLPiBewM+bZrA4riqL6fD7dcYky0ubBGPAwO5/aPCS6XpIFb4zLzOpvvPum1fsL0UJhFihJ6+OBxZNJcnNz5VCcvLw83RCSCxcu6LZ5+umnkZ+fj7y8PDk/Q3l5OR577DEAwLe+9S25rnFYTVNTEzZv3gwA2LFjh1z+2muvYXR0VM6t0dTUhLy8PADArl27kJubCwB4++23Y9KrqKgAAHznO9/R7Veb3q5du2C325Gfny8ntr148aIurfLyclkG1dXVcvnVq1eRzO7duxGJRLB///6k6yYqAwDYtm0bjh07hm3btsFut+OBBx6ISUNMINrQ0ACv14tVq1aht7c36b61ZlPezc3N2Lx5M/Ly8uT6Wj09PaipqQEwM6RJDPda6Kbr6/Hpww9DXb0a6urVWDo0BAD43G9+g+UlJbjDbsft3/ueXN+mqdd/8zd/g/Lychw/fvymOV6iW01fXx8URZGTF4rhN6ILejwVFRVobW1NabZ/RVF0f4vPwUQTVycTb+4J0R36SpwhfydPnoSiKDIP2jxNTEyY5lNYvXo1AGufcVaJ+7+2+3ZXVxd27txpur447rKyspj3ysrKYsbMp6vsjenEoy0zcS7WrFmjW8fpdMaUtZX9mZ23iooK+P3+uOkk248gzq1w8uRJALF1YDZ27typu67E3EDbt29POa26ujoEg0E5FGK2aRmHIonryDjEwsqTgoxl5Pf701Jup0+fBnCjHsV73zgBa35+PoLB4Jz3b0ZbL0VZGet3Ooi0zebWMavzYgilFW63G263Gz6fz/T8JrtnnDlzBgCwZcuWmG1dLhcCgQCAG3VHnKeRkRE4nU6sXr1argMAQ0NDCSdbDgQCst1izKdoM8WbjNfsPpmM3++P2S7RfdPqPYZoobIUKFkRnRzTqvvvv1/39/r161PaPp5333037ntmDe14+zfmby77FUQwIJl33nknpX2nwqwMtm3bhu7u7phAjtahQ4dQUFCAqakp7N69G4WFhXOaM8RqeSebnFUr3hf7hUhN8XpRNeWQSpkQUfqFQiH4/f6YL5/iy2GiOSwOHDgAj8eD1tbWlOYESUR8odYGC9ra2hJ++RfBCjHPgXgla9CLQINxfHqyANF8EQGqoWiwWcwVYNYI0TJrnKWzwWacm2O+Gp7Z2p9xngIxb4aW1eBQMuJciuvq9OnTuiBlKoyNz8OHDwNI/9NaEjHOCWJ27aTzR5B49wDRSDZey2JekHSwUi+NQbZ0Mkt7rmUrghJzCVQD5gEs47nS3ttOnz6NsrIyFBcX6wK6fr8/4WTLwWAQXV1dMedZey6sTsYrJmAV12IoFNIFpkWexOdbsjlRiG4FlgIl69evl4EAKz0N3nzzTd3fmXj8rXayUGNj07h/Y/5SJZ74o32l2gNjPhjLYHR0VAZI/H6/zKvR+vXr8dZbb2FgYADl5eUAZnqCzHam83SV92OPPSYbB/v27ZtVPfrsq1+d1b51adxzz5zTAIBPq6vxYSQS8/rDtm1ynRdeeAHHjx9HQUEBxsbG0rJfIrJO/CJo/PIpGhii8RXPgQMHoKoqfD4f/H5/yhMUGokvrdovpwBw7NixpNv6fD6oM0Nsda9Ev4QrimK6TbZ+Gayrq5OPZxY9XpI1fM0aOXNt+Ahi8kJt2aQraDAf+0u0rtkkjP39/SgpKdHVneHh4Vnl3Yri4mIoiiKvq4MHD8btMWSF9rGkgUAgrY8+jtd7Q6isrERXV5fuXM3Ho5dTYXYtq6o653QzfR2YMfsBba5P6Nm6dSs6OjrQ2to6p8dPm/WsM07SKu5twEzPERE0dLlcOHPmjNx/sp5LHo/H9Byn8hhu4EaAUUySrCgKPB5PzCPtOzo6TPdnXA8wv8cQ3UwsD70Rw2cuXryI+vp6eTMKh8Pwer3wer249957Acw8TlY8GWVyclIOIcnNzZXDRNJh//798kkxe/fulcu//vWvY926dbr1RBDB6/XKISIiKGCFNr0f/ehHMr3x8XHU19fPqQfGhx9+iMnJSZmmlafeCInKQEv0CjLLp3hyT0VFBZ555hm53NiTRgRZzD6I0l3eQkVFBYqKikzzY4W2t8ay6IfGbU88gSW//nXcbWzRxzUveeutmTS+8AUAwNJ//VfYrlzBkldfxW1PPWU5DyLQsiQQwNIjR2b2ceUKlh04gBXRa0Z46aWXAAD19fUcekOUBWLYjdkXQSvDb4Ta2lq4XK45Px5R/MKeStBCBBJSDQ6I4SnpYvVLcqIGqLZHTaJhN8DML7aKoshfabWGhoZMh6ekQjRc6urqZp3GfO3P7FGcgUAg4TkwG1IlhtUkapxt3bo16aM/U2kg7dy5E4FAQPZoEkOu4knUS0H8Kt7Z2TnrITwiWCpYHWrk9/uTBka0vQjMJAvGCMaeOEaiF8J8PJ7VSr0U9yDR+DYz215eIm1xXrQCgYDuqZKz0dLSApfLhZKSkpTLTwzbMjtuY09Fse7IyAj8fr8892VlZTh58iROnz6d9FisfMbEGzpmrIdimE+8YIu4v1oNRk1MTKRlmBlRNlkOlOzYsUM2WAcHB1FYWAi73Y7CwkLs3r0bgL5RKx4lq53HQ9sIT4epqSn5aN3u7m4AM43x9evXIy8vD83NzTK/+fn5sNvtMq8NDQ0pDQnSptfd3S3Te+CBB+TxpWLz5s2yl05NTQ3y8/Pl/C3nzp0DEDvviZlEZbBu3Tq5jwceeAB2u133GGfh3LlzMo3CwkIAM/OWiKCWmGNl3759sNvteOGFF2LSSHd5G9MGYuc4seIP998P9Y47AAC3/f3fzzyy99ln5TKtT7/5TQJQqUkAACAASURBVABATm/vzOOF/+//nUkjGnT63G9+gxX33ovlDz+c0mN9px97DOodd8D24Ye4/Xvfm3k88L334ra//3vgv/875WMiovkhht3Ea4yLhoHZIzZDoVDMIxTTMR9BTU2N6XCYZA1Rs19FxWMd4xG/CJo9DjWVeVcEh8ORcI4M7XqAecMHmGkMiB49yRrRe/fuhd/v152jzs5O+P1+9PX1Wc26KdGQ0eazsrJy3obCpLo/7S/6IlDQ1tYWN30xX4W2oSUC9Nru98ahNyKIou0tZaz/Vs89cKOONzY2WppPQpSLWWNUNKJbW1tjeh9ZHQ7ndrt185x0dXWho6Mj6XaKoujml+js7IwJrIpeBMb6Ka6vZNeCIHriGIMV4vqura2FoigxQwg7Ozt1500MFUolIGC1XophiNq0xeN1gRsBL2NgSgz9SnTP6ejoQFdXl+7+1tjYiGAwmHJPCjOix57Z/B+JOByOuMcNICbw4HK5sHfvXl0Qd8uWLejq6sLBgweTBknb2trg9/tjyko8vhq4cb1qf0ytrKyMuT7r6upMh/Fo68vevXvR1dUV8xlorEMi6Mkf/OhmZzlQkpeXhxMnTqC9vV0GQ4CZBnVzc7OcSPT5559He3u7nCAUmGm4DwwM6CY1FbTzn4hGvXa+D+37xrlSmpub0dDQIP9uaGjAT3/6U/n37t270dvbq8tvUVER2tvbTSdK1Q7ZMdvv7t274fV6Y9Lr7e2Vk88aj8X4t3YfzzzzjCyngoICrFq1SqYpliWTqAzy8vLw8ssvy/Ryc3PR3Nwc07NjYGBAd0zV1dU4dOiQ/LupqUmXxr2GXhDCXMo7HUTwQxsEUVevxu8PHYIa/UBWV6/GJ48/jk8efzxm3U8ef1z2/lDvuEMO27n+5JOYrq+X6336zW/OpHnHHaYBF+OyP2zYgN8fOoRPq6t1efy0uhq/f+WVOR83EaWHGOoXrzEuvnCaNbgdDgf27t2rmw/E4/HM+Uu7aEQEg8GYrvOJgiUtLS3w+XyyG7XIU7Ju96LHivaLcn5+vmm36mTEsYt0EjXGfD6f/JJubMyKxoKVRnRtbS18Pp9ufpbW1lYEg8E5z1XhcDgwPDysa0yUlZXN+RfsdOxPURQMDw/rjnl4eDjhMYteCdqGaktLCzwej677vdnQG1VV4ff7dXVLe12kcu5Fg9Hv91vqPeNwOGQg0NiQA27MMzHbITzBYFAef0lJCTo6OizV/4mJCV1Qc2hoKCbAYlY/Dx48qEs/0bVg3B+gn4fE5/Pp3jfOIxIOh+d8T7JaL8WcTYqiyPUcDoesk8XFxfB4PLIsUgnGtrS0oKOjQ3d/E8Oe0tWLYXh4WAbwUmF23BMTE6b33rKyspieJqJ8gsFgzMTCRmJOE+O8IX19fbpr33i9lpWV6eoKcGMyb+3njJgDRZRBbW0thoeHY+a/CgaDunJPNKkt0c3Epmqu3Keeegq9vb04e/ZsNvOUVFVVFY4fP4729nbTHhKLwWIqA3Gszc3NsofKrWrDhg24ePEivF5vTPAtXUZHR+FyuXD16lUZnCNaTI4cOYJHHnkE169fx7Jly7KdnYScTicqKipiGjeNjY2yYXCrGxkZkfNmWHnSyGJTWVmJiYmJWc0jE69+3cw6OztlcEw03kKhEBRFSViHzLa71YlAjJU5jzKlv78fbrd7UZ2HbEt0fTidTjidzpTqSGNjIwKBAJ96QzeVw4cPo66uDp988olcltbHAxPNB9GzZt++ffPyqLmFYHR0FHa7XQ63Ms4xQ0SLk9PpjOm+L55GkO2JIjNFTPTJIEn6GR/Peys4ePBgTO+jffv2weVysQ5piLkxFlqQrK2tDR0dHQySZJAoa2Nvyf7+fgSDwZTnZUo2nxTRzWJptjMwG2bDWBabxVQGbW1tuHjxIo4fP44vfvGL2c7OvNAO9Wpubk7bI7WJ6OZ27NgxVFZWxswtYnU4wM1usQWFMq2lpQWtra3o7++/JYIIomGnnY9B1KH5fqzyzWbv3r0LLiAh5r5YDPe2hUZVVdPH/SYbwmfEc0i3kpty6A0RzR6H3tBidzMNvSEiIiKi+cWhN0RERERERERECTBQQkREREREREQUxUAJEREREREREVEUAyVERERERERERFEMlBARERERERERRTFQQkREREREREQUxUAJEREREREREVEUAyVERERERERERFEMlBARERERERERRTFQQkREREREREQUxUAJEREREREREVEUAyVERERERERERFEMlBARERERERERRTFQQkREREREREQUtdS44KOPPsKLL76YjbwQUQZcuHABAPDyyy/ji1/8YpZzQ5R5r7/+OgDg+eefx9KlMR+DRERERLSIvP766/jss890y2yqqqrij4qKCvzqV7/KeMaIiIiIiIiIiLJFExrR9yj5xje+gYsXL+KNN97IeKaIKDN+/etfo7KyEleuXMGqVauynR2ijHvxxRdRVVWF3//+91i2bFm2s0NEREREWeTz+VBfX69bZtrn+HOf49QlRLcqm80GYOY657VOixGvASIiIiISxHdDLX5DJCIiIiIiIiKKYqCEiIiIiIiIiCiKgRIiIiIiIiIioigGSoiIiIiIiIiIohgoISIiIiIiIiKKYqCEiIiIiIiIiCiKgRIiIiIiIiIioigGSoiIiIiIiIiIohgoISIiIiIiIiKKYqCEiIiIiIiIiCiKgRKaF4ODg7Db7diwYUO2s0JERERERERkGQMlN7H29nasWbMGdrsdTU1N2c6OzqFDhwAA1dXVpu/X19fDbrejp6cnk9kiIqI0cjqdcDqdGdtfY2MjbDZbxvZHREREi5PlQEl7ezvsdrvutWHDBjQ1NWFycnI+85h1paWlsNvtaG9vz3ZWpMHBQezbtw9TU1MAgIsXL2Y5RzeEw2EcP34cAFBVVWW6jsh3JBKR24igTyAQyExGiYgS6OzshM1mQ2VlZbazQkREREQZZDlQcu7cuZhlFy9eRHd3N6qqqm7KYIlomM9nr4b52sc777wDACgqKkIkEsEzzzyT1vTnYmhoCABQUFCA9evXZzk3RESzc/DgQXg8Hvj9foRCoWxnJ6sqKytNe45MTExgYmIiCzmau1AoBJvNhs7OzmxnhRYI1gkiIhJSHnpTXl6OSCSCcDiMhoYGADNBlFdffTXtmZtvxl4N8Zw4cQKRSAS7d++et32k6q233gIA5OXlAQDy8/PTmv5c/OxnPwMQf9iNmfz8fFy+fBmRSAQVFRXzlTUiIktGRkYQDAbR3NwMABgYGMhyjoiIiIgoU2Y9R0leXh72798v/xY9HKqqqmC32zE4OCj/L3pTTE5OoqmpSfayWLNmDdrb23W9UQKBgBzqIt7XGh8fl/NbiOE/2t4ao6OjsNvtqK+vRyAQwIYNG+R6g4ODMg273S632b17N+x2O7xer+mxms2nIfI3Pj4uj1ObXyv78Hq9Mn8iz+FwWPe+2KapqUmuI8oXAI4fPy7XEeUryk8ct/G4jOehtLQUo6Ojcd83O0/xhMNh2fso3rCbeMT+xsfHAVg7l+nIMxGR0eHDh+FyueBwOOByuXDw4EFL242MjMBms8mXsReG8X2bzYaRkRHdOuIXbTH0R7y0xC/f/f39ct4Os/0JlZWVCfdptk5/f7/Mr9/vRzAY1L0ntjHbp/EYjb/QNzY2wul0yuMwpmtFovSB2LLWDqFqbGyEoigAgNbWVrlOvB4FZnOjmK1rPGep5gsA+vv7ZV6cTqdcr7GxMWmZGMvTmGcr9c/pdKKxsVHmQ1s24v1450ssM25rpb7NtRysHPfIyIhuv1bqhPb9eOkTEdEtSNV48sknVafTqUYikZhXeXm5CkAtLy+Xy8LhsApABaC2t7fr1svNzdW9Fw6H1aKiIrlM+xJp+v1+0/f9fr8aiUTUU6dO6dLVvsT+46WhTevUqVMJ04h37Nr3E+2jvb096T4aGhpM38/NzVXD4bAaiUTU9vb2mLIsLy83LYP29vaEx+71euU5KygoiHm/oKBAvp/sPCV6iTwXFRUlXC9RmYrzbeVcpiPPi+0lyvXq1asq0WL0wgsvqADU69evx10HgNrR0aGqqqr6fD4VgDo8PJww3eHhYd12qqqqHR0dMen4fD7d+8a0xf3L5XLJZYqiqIqiyL+DwaBcz+Px6LbVbme2rdnxuFwu1fCVQPe3y+XSpRFvuciXNk9m5eLxeGT+g8Fg3LIwMtvOLH2zslYURVc2Iq/a7cQxmZWhy+XS5U3sQ+RD5E38bZa+lXyJdbTrmR2jkVnZ+3w++bfV+qcoimn9E3kS6yaqu9o6YSwXkZ6xPhn3abUczI5b7FMQ22m3NdsuXp0Qx6pNT7sdERHd3H75y1+qOTk5umWzDpSEw2FdY180WsV6Ylk4HFbD4bDq9XplA3psbCymITw2NhbTyBb7EGlXV1erANSGhoaYYIJo6GvTrK6uVsPhsC7AYtYwjxcgsdKoLyoqUk+dOqVrrGsb52b7EEGU3NxceWxjY2MygNHb26s7Nu32ouzMAldjY2Oq1+tVT506JZeJMhPrifNgDEiIMrdynhKVlTgGEZhJV6Ak0bmca54X24uBElrskgVKjIEEswaVGbMGtla8NIwNZbNgh7FRHi9PxgadcTuzvIpGZKIAhdVASbz1jA1Xs8azOPZEwQCxnTGvxv0qihJTNsbjTNYo1pa1y+XSBb1EXsQ+RVraIIQ2rVTyZRbQEMeYqH5p82PGav0zC2KYBUXMys8YJDFbz1i+gvG6s1oO8Y5bu894gSbjtvHqhMfjSVj2RER0czMLlKQ89EYM9cjPz0d3dzcAoKGhAZs3b9at19zcjM2bNyMvLw95eXl46aWXAMzMZ1JYWAi73Q6XyyXXf/fdd3H33XfLdaqqqvDGG29g//79Mm0x3KK7uxv5+fmw2+1y3hCzp7709vYiLy8P69evx/333w8AuHz5cqqHnNDTTz+N9evXIy8vTw41STbpn3gizNTUFFwuF+x2OwoLC+UxiGFMQlFREXbt2gUg8Vwk+fn5WL16tRzmox2iI4jzUF1dLct18+bNOHHihO79ROcpnvHxcXkMZWVlCcsgVYnO5VzyTERk1NfXB0VRUFxcDABy+E1XV1fC7fx+PxwOh+l7YujB1q1bY96rqKiA3+/XLTOms3r1agDA1atXdcuNnwlr1qwBcONz6OTJk1AUJSY9h8MhJ2E9ffo0AOCuu+6Kc2TW+f1+03mmxHEbh2AY86Uoim4Iajzi3AhlZWUIBoMIhUIIhUIIBoMxZS2O78qVKwnTrqmpAQCcOXNG/utwOLBmzRo5WTkwM1R4586dunU3btyoS0t7PlLNlzjngvacmQkEAnGHXqVa/4zpiOPQ1hFx7ozny3j+HQ4HFEWRZTc0NGRaJ0XZifooJCuHQCBgWufM6pI4DiE/Px/BYDBmW6OtW7fC7/fzCVhERIvIrOcoAWYa8F6vVzdXiaCdn8OKFStWoLq6Wk6cd/z4cdTU1KC0tNTSl6bc3FxL+8nEY3Tnug9j2YkJW5MZHBxETU2NDMQksmHDhlnlbcWKFXHfe/755wHM1ItMTC5rtZwT5ZmISCsUCpk29kXw12yuBa1k9z5jo8/KNnMhGufG+RvMgj7xgjypMjses+OeLyKY5Ha7dccs5p9IRjTsT548CWAm2LR161Zs3LhRBhREuW7ZsgXAjcC9oii6fbrd7rTly2reE8l0/YvHLKAz2/oXDAbR1dUVU8etBECsqq2thc/ng9/v5xwlRESLxKyfehOJRHDixAk89thjKW3f0NAgt9e+xGNkd+/ejbGxMbS3tyM3Nxfnzp3Dj370I10avb29Mdunu6dIJhQUFJiWRaplKhw6dAjATG+RcDiMSCQSMxmuIJ6aE0+y82RG9F75/ve/P6v8z9Vs8kxEpCV6BhgbXq2trQBmJnmdC7PeDFZ+DJgLRVGgzgy11b3m67G+ZseTrBdHumgb2z6fz/S4a2trk6azc+dOBAIBADM9FjZu3CgDKCMjIzhz5oyu15EQDAZN95mufM1VNuqfoC0Ds7o3l0dwezwe0zI9cODArNM0qq2thaqqMgATr/cOERHdGubUoyQVRUVFAGYesSiesDI5OYnBwUHZu8Hr9convezatUt2fxU9B0QaP/rRj+QHezgchtfrRX19/azzFok+unc+vyxo93HvvfcCmDku7ZN0xBN/xFNf5iIvLw/hcFj28hBEGQ4ODsrzMDo6itLSUt37ic6TmfkcdpPMbPNMRGQkht2YNbqSDb9xuVy6oRlaokEteiloBQIB3XDBdBJDUhIRvSIS9Zax+mu/y+WSAQYtcdzGwMJsGfMqhnNo95HsB5REx7RlyxYEg0H5mGixbkVFBU6fPo2TJ0/qeh2JMjQOjdKymq/ZqqioMC177b4zUf+MeRC9b0TPFe0wKS0RpBRlaZXL5ZpTkEXLSj13OBzo6OhIa48VIiJaeDIWKNmxYwdyc3N183Lk5+ejvr4ev/vd7+R6u3fvlvOPiDlQvvvd7wIAnnjiCQD6uSgKCwvlPCWpqq6uBgDs27cPdrsdL7zwwlwO0fI+KioqZON+165dcj6Rmpoa+Wjd2RDBjsHBQVk2xvTEeQAgz4PL5ZJBDqvnyai3t1ceb6a78c42z0REWmLYjZh3wqiurg4A4j7Ctq6uDn6/X/e+eMwvAHR0dKCrq0vXyG9sbEQwGEzrL99aLS0tABAzt0JjY6PMV3FxMRRFkccnaIcXiLkckjVI29raEAwGdY/F7e/vR1dXF3w+35yORaukpETmpb+/H36/H3v37pXvd3R0oLW1VVfW4tG5Wtq5M7REmezdu1cXRNi6dSsOHjyIrq4ubN++Xbe+y+VCSUmJLp3+/n5d2VvN12xs377dtOzF43QzVf+CwWDMY3eBG3VR/Kt9zG8oFILb7YbH40k5mNbW1ga/3x/zKGan05l0qJwZszohHmUtHDx4MK1DpoiIaOGxHCgRjWurc4EY59nIz8/Hyy+/jIaGBl1aDQ0N8heOHTt26N4vKChAe3u7DDZUVFRgYGBA/q1d54c//KFpfhPlv6mpSQYscnNzZU8Pq8cE6Oe/EO9b2cfzzz+P5uZmFBQUyHWrq6vh9/tjhoqYlbnZ8ezatQvNzc1ymZhDRkucB20ZFhUV4bnnntO9n+g8mRkYGAAAfPvb3467jplkZSr2b/a3+He2eSYi0hL3MdGb0UgMjejr64v7vs/n081BcfDgQV0DsaOjAyUlJbq5QoxDM9JNDLPRDiXKz8+X+QJuDIXQrqMNbLS0tEBRFDkHR7wGaHFxMYaHh9Ha2qqbp2N4eDhtQ0sURUEwGJR5cbvd8Pl8uvRbWlrg8/l0ZS16Cmn19fXJeSeMQynEJKfaXpIbN26UPQmMDfpjx47B4/HoyrCvrw/Hjh1LOV+zEa/sRRAkU/XP4/GgrKxM7sPv98ccn6qquvk+FEVBR0fHrAI2xcXFCAaDuuMWZT+bHkxmdSIQCOjmnwHMhw8REdGtw6ZqPr2eeuop9Pb24uzZs9nME91kAoGAbFiEw2HLk89SdoyOjsLlcuHq1atYtWpVtrNDlHFHjhzBI488guvXr2PZsmXZzg7RLcNms8Hj8cxbDykiIqL5cPjwYdTV1eGTTz6RyzI29IZuXeLXsurqagZJiIiIiIiI6KbGQAnNmXgcsfYxiEREREREREQ3o6XZzgDd/JI9apiIiIhufemYa4WIiGghYI8SIiIiIiIiIqIoBkqIiIiIiIiIiKIYKCEiIiIiIiIiimKghIiIiIiIiIgoioESIiIiIiIiIqIoBkqIiIiIiIiIiKIYKCEiIiIiIiIiimKghIiIiIiIiIgoioESIiIiIiIiIqIoBkqIiIiIiIiIiKKWav8YHh5GMBjEH//xH2crP0Q0zz777DMAQH5+Pmw2W5ZzQ5R54hqw2+1ZzgkRERERZdtnn32G6elp3TJdoKSkpATnzp3DP/7jP2Y0Y0SUORMTE+js7MS+ffuQm5ub7ewQZdzZs2fh9Xrxz//8z1iyZEm2s0NEREREWTQ6OoqDBw/qli01rnTHHXegtrY2Y5kioswaHR1FZ2cnampqsGrVqmxnhyjj7HY7vF4vtm/fjmXLlmU7O0RERESURUuWLEF3d7duGecoISIiIiIiIiKKYqCEiIiIiIiIiCiKgRIiIiIiIiIioigGSoiIiIiIiIiIohgoISIiIiIiIiKKYqCEiIiIiIiIiCiKgRIiIiIiIiIioigGSoiIiIiIiIiIohgoISIiIiIiIiKKYqCEiIiIiIiIiCiKgRIiIiIiIiIioqhbKlDS09MDu92O+vr6bGeFiIgoI0ZGRmCz2dDf35/trCwYi61MxPGGQqFsZyXtnE4nKisrs52Nm1Z/f7/la6GyshI2my0Dubo1NTY2Wiq/xXRvIrqZpRQo8Xq92LBhA+x2uwxIjI+PzykDgUAAdrsda9asQTgcnlNakUgEADA1NTWndOYqncdERESZk6iBvdga33Tz2Lt3L1wuFxwOR7azQkRJeDwetLW1ZTsbRJSE5UBJfX09du/ejYsXL8plg4OD2L17d9ozNT4+LoMxcw3E3GxEr5g1a9ZkOytERLSAhEIh2Gw2dHZ2ZjsrtICEQiH4/X7U1dVlOyuURfECubW1tVBVFbW1tXJZZ2enaQ+kY8eOQVXVjOQ3kYXei8hqz5F4tm/fjmAwiJGRkTTmiojSzVKgZHx8HIODgwCA9vZ2RCIRhMNhtLe3Izc3d04ZqKioQCQSweXLl5Gfnw8A+Oijj+T72v/fLMyOyaqF0iuGiIiIFr4zZ84AADZu3JjlnBCRFcXFxVAUBadPn852VogoAUuBEm2w4t577wUA5OXlYdeuXejt7QUAOSSnp6dHrjs6Oip7R0xOTsrl9fX1sNvt8Hq9sveI6EHR09MDl8sl13W5XLDb7RgdHQUATE5OoqmpCWvWrIHdbkdpaal8T6unp0fmqbS0NGHPFJHP+vp6BAIBlJaWyjxpj0e7f+0QpKqqKl0ejMcEAFVVVfI4mpqadMOXRNmIXjuCWIeIiBYu8Uuu9qX9pdDs11Exb4DxF8V4v6Q2NjZCURQAQGtrq9yP2XrivXi/yDqdTl1ek81r4XQ60djYKPNs3E6bntmwpERlI97v7++PSd/Kr61iToVE+09WJsb9Op1O0/dDoZDuWBsbG2PSEr/UG1/adY37M0tHu59kv6z39fVBURTTYTeJzrVZ2sZfyo3HY1xfvC/SEy/R60m7vdm+xLJk5WHGWMZGom4kq0fJ6pDx/WyVgfE+o02rsrISJSUlAAC3262rx8aeJjabDa2trQAARVF0+9Oe/0RDDWdTp4205SryKtIJBoPw+/0x9wJRrtpr2kr5aNOey3X83e9+FzabDV1dXTI/8Xr5JbsvOZ1OHDx4MGk5EVH2WAqUrFu3Tv6/oaEBXq9XF/gAgPLycgDAz372M7nsV7/6FYCZ3hFvvPGGXC56p9x7770yCGOlB8Xk5CS2bduG7u5uuf65c+fwV3/1V7r1jh8/jl27dslhQufOncOf/umfxuTZ6Pjx46ipqcG5c+dknnbt2oVAICD3X1VVhe7ubt0QpOPHj8Plcsn1Eh2Ty+VCd3e3riz+8i//MumxExHRwtPf34+SkhL4fD6oqgpVVdHR0YGSkhL55X7nzp3w+/267U6ePAmXy6X7RTEUCiEYDJoOoThw4ACCwSAAoKOjQ+5Ly+12Iz8/H6qqyoaGsREgGiXavCqKkjRY0tXVhb6+PrmdoiiykSWWd3R0wO126xqmotEjtvN4PCgpKYnZn9vtRltbW9L1tCorK+H3++U2qqrC7XanVCb9/f264xLrmQUnFEXB3r17oaoqhoeH0dXVpWsgdXZ2orW1VR6vz+cDAPh8Phw4cECu43a7MTw8LPfX1dWly1NlZaXuHJWVlSWcF2diYgIVFRUxy5Oda5/PB7/fL9MeGRlBV1eXzHdnZyfC4bCuXMzqlNiXOO6Ojg4ZzBPbx9tWNIZFeZiVq5EYgubxeHT1xSxYkkyyOuR0OjExMaF73+/3m9aP+SwDs/vMxMSEzMexY8cwPDwMAHKdiYkJ02MW+QMg8yvqp5bo9dDX16dbLq7v7du3A7BWp40aGxt15bp37150dnbKYUKKosDlcsn3i4uL5bYiyKO9ByYrH625XMeHDh2S9U2bh5aWFt0+jHXBeF8EgLKyMnlPJ6IFStV48sknVafTqUYikZhXb2+vCkD3amhoUMPhcMz7YllRUZFu3Ugkovr9ft162r/FvrTL/H6/XO71emOW+/1+taioSI1EImp7e7t8v729PSZf2rS0L+3+xDGNjY2pBQUFKgC1vLw87v6164l8mB1TeXm5CkDNzc1VBwYG1EgkojY0NMSspz0Gs7zyxddcX6J+Xr16VSVajF544QUVgHr9+vWY94aHh2M+64wvn88n1wegejyemHQURVFdLpcuTe12iqKow8PDch1VVVWfz6cCUIPBoGm+g8GgCkDt6OgwzbNxucfjURVFkX93dHSoho99mRezY9C+r01Hm9bw8HDS/Jnl1ViGxvSTpSXS0e7f7P1kZWLG4/HoykmcF22eVVVVXS6X7vyZlaNxmVmejOddUZSEZWhklqbVc+1yueR62jobj8vlMq1TZvXAWBbGbUU5G8+hcT1jvuKdw2R1zyhZHRLHZrwexfkS22WqDIxpGfNvdm3FWx7v2Ix136weGZdZqdNGLpcr6T3HrC6Ke7DZ+snKJ53XsbGcjMuNxz2bMiKizPrlL3+p5uTk6JZZnsy1uroap06dQnV1tVzW3d2NqqoqAMC2bdvk8jfeeAOTk5M4d+6cnMPk+PHjAIDXXnsNwEwPlLy8PKu7BwC89NJLMi+bN28GAGzevBknTpzQrVdeXo5du3bJdYUPP/ww6T7279+PvLw85Ofny21Fub5GBQAAIABJREFU3s32n5+fj7/9278FANkTJZGmpib5y893vvMduZxPxyEiWji0v0yKl/jFVhC/EG7dujVm+4qKCtmLRPwye/LkSQCQv+jfddddup4mopfJbJ9cYpwEPD8/X/eL5dDQkG5oq+B0Oi0NvzHb11133SWXiXwn+jzTrq9l7BHhcDigKAqGhoZM1xc9ceKlZ8ynYCwTM/HmFlu9enVMHuP9am9G1JctW7aYpnv16lUAM2XR2tpqadLeeOfN6rkWPQnEL+BmPQu04tVNs3pgLEeHw2Fa9treAsCNX9rjHVsgEDDtQaMoSkrfpZLVoaGhIdMhTWIuGOP8EvNVBqKnmfE+I/Z35coV8wNMg5qaGgDQ9Wg6ePCg7FFhtU4blZWVJe11Eo/Yt5Bq+cz1OrbCWGcS1c14ZURE2ZfS44HXr1+P3t5ejI2NySDCuXPnEAgEkJeXJ4ffHDt2TA61aWpqQm5uLi5evIhwOCyDGn/2Z38260xv2LBhVtu9/fbbKa0fb34Q4/7vueeeWeVH6913351zGkRElHnGL95AbAOpoqJCDs88c+YMKioqZDBANDYCgQDKysrmLZ8TExO6cf/iZRwWlE5imIR4iXlW0iUdj8M1zkcguvanaufOnXLuAmCmcRkMBuUQBdFgKykp0e1PzC0hHDhwAB6PRw7dmM3TP6yea4fDIRueHo8npjy1c0Fo52bIpmAwiK6urphjm+0whkR1yBggTLb+fBANaTH3yHxdS2bEPUob5J1NnTZqaWlBR0eHPI9m5WxVussn2XVMRItHSoESIT8/X07iCtwIQIjgx/Hjx/HrX/8aALBp0yYZkR4aGpK9M+byZfCtt96a9bapiESfQGN8so9x/7/5zW8ykh8iIlp4zH7RNf56KB4HGQqFcPLkSfnrZ0VFBU6fPi0bIOLzcr5ox/1rX8eOHUv7vkZGRqAoim5OlVQbs/PdKG1sbNTNR6Bq5m9Ilej9IhpqbrcbPp8vpreAdi4H7Uu73oEDB+T8CPHmBQESl4+Vcy3mJVEUBV1dXbp5FCorK9HV1aXb1vhr/nxKdGza+Um0r2Q9YlJl1tMgWe+rdNKWgVkvN9Xw2N/5oA0cDAwMQFGUWdVpo5aWFtlTL968QKlIV/lYvY7TJVmvOCLKHkuBkp6eHlRVVclfw8QyQfQk+frXvw4AuHjxopywdfPmzXjggQcAAHv27AEAFBQUWH5s7ocffojJyUlMTk6iqKgIwMwEqOIpM6OjoygtLbWUlhVNTU2YnJzE+Pi4nHRVHJ/Z/sPhMP7pn/4JgH6YTzpMTk5ySA4R0QIlvjiLX1u1AoGAbuiDWPfMmTMIBAKyF8rWrVsxNDSEM2fOxH1yiTDXoEFFRUXau5gnIoYmWAn+aL9fADd+uY73XUF09bfyZJxk+53LcCctv98f01jTNtLEkI1UhkrU1tbC5XIlbJybdeu3eq7r6urgcrkwMTEBRVF0Ewn7/f6MBEaM51AMeYknWXlYlawOxRsCJB7HbBxuMheJykDcOy5fvpwwjVQa3MYhaYmI63dkZARDQ0PYuXOnfG82ddqouLgYHo9HV19T6WFitXysSnYdA/GH56VC5DfTPZSIyDrLPUrEE2HEI2vFHCANDQ1Yv349gJmhOQUFBQBmgiUiwCDmLxFPgUkWUNi8ebPsxVFTU4P8/HxcuHABO3bskMvFY4NdLpfuCTRz1d3djfz8fDzwwAMyv+JDwWz/hYWFuHjxInJzc9HU1DTn/YsyA2ZuxIWFhXNOk4iI5ofoPq5t6DQ2NprO9+DxeNDX14dgMCi/3G/cuBF+vx9tbW26Bkg8iebtSKa5uRnBYDCmd0JlZWXCp6rMlmiMiYYlgLgNYOMvyiKPxqdJCGLeF+MTglJ98onT6dQNR+nv75/10BuPxxPT/V/7aFAxzMXtdusa3yMjI7JhKB5dKoRCIfj9/qTDQ4yBJivnurOzU1dPRd0Uc6MoiqJLt7Ozc16G3mifbtTf3w+/34+9e/fGXb+trQ1+vz9mDhen0xnTIybR44GT1SFR97RlGAqF4Ha74fF40trDIFkZiKfoaI9FDGsTRB0xC9waiUCt9tqMx+FwwOVyYe/evfD7/brAp5U6bcZ4nXZ1denWdzgcKQ0JtFI+ViW7joEb97a5BGqTBQSJKPssBUoeeeQRtLe3yx4VwEzvCq/Xi/379+vWra+vl/8XQ3G085cAwLe+9a2YfRiHtzzzzDMy6FJQUIBVq1YhPz8fL7/8si7QUlRUhOeeey5hWuLveHOOaA0MDOj2OzAwoJu49eTJk2hoaJBp5ubmorq6Gi+//LIMGMXLhzEPK1asiPn/+vXr0dzcLLfVlhsRES0sYqy9doy+GK5gbNxu3boVfr9f19NEzAEQDAYt/ULd19cn555IdVy/w+GQj+7UNgDq6urmpft+bW2tfDSm2JdxQlzB4/GgrKxMN5eGanj8sZH4BVp7LOJRnlYdO3ZMPubYZrOhra0t5TSEQCAQMyTE5/PB7XbLRtaBAwfkY3q15S+OxeFwYO/evbp5FjweT8IhJWY9H5Kd61AohNbWVt28JMXFxXC5XGhtbUUoFMLExASCwaDcdmhoaNbDkhIJBoOyPMQwh0T1sbi4GMFgUM7hIl59fX0pBy+S1SE1+jhg7fno6OhI+xCfZGXQ0tICn8+nu88oihJzjfh8PnnOEw1lEb04xLWZbOLguro6ee8y3teS1Wkzw8PDujJ3uVy6IWHaSYZtNlvSHkRWy8cKK9ex6Okl9jebQLPf7zedlJiIFg6bqrmLPPXUU+jt7cXZs2ezmaeMGx0dlV9cxbwkRLcqUd+vXr2KVatWZTs7RBl35MgRPPLII7h+/TqWLVuW7ewsejabLWkwYKHr7++H2+1GMBjUNSRDoZBsXMfrHTNXYh/JAgwLTWNjowwqLlYsg4UlU9fxyMgISkpKMDw8PG9znxBRag4fPoy6ujp88sknctmsJnMlIiIiohliKMPAwIBu+b59+wBYm6dltsTQiL6+vnnbB9FikKnr+PDhw6aT4hLRwrI02xlYCMSwF7OhMkRERESJFBcXY3h4GCUlJTFznGSit0BbW5uc54KTQxLNTqau466urlkP8SOizGGgBDPzgnDIDRERUebdKsMOiouLs3Ys2dz3bB04cOCmHm6VDiyDhScT19LNdq0SLVYcekNEREREREREFMVACRERERERERFRFAMlRERERERERERRDJQQEREREREREUUxUEJEREREREREFMVACRERERERERFRFAMlRERERERERERRDJQQEREREREREUUxUEJEREREREREFMVACRERERERERFR1FLtHx9++CF++9vf4gc/+EG28kNE8+y3v/0tAKCpqQnLly/Pcm6IMu/SpUsAgJ07d2LJkiVZzg0RERERZVMoFMIf/vAH3bKYQMmnn36K9957L6MZI6LMmZqaAjATMLntttuynBuizPvd734HAHjvvffwuc+xYyURERHRYia+G2rpAiV33XUX7rrrLgwODmYsU0SUWaOjo3C5XDh06BBWrVqV7ewQZdyRI0fwyCOP4MUXX8SyZcuynR0iIiIiyqLDhw+jrq5Ot4w/pRERERERERERRTFQQkREREREREQUxUAJEREREREREVEUAyVERERERERERFEMlBARERERERERRTFQQkREREREREQUxUAJEREREREREVEUAyVERERERERERFEMlBARERERERERRTFQQkREREREREQUxUAJEREREREREVEUAyVERERERERERFFpC5SMj4/DbrdjzZo16UqSiIjolldZWQmbzZaWtEZGRmCz2dDf359wvf7+fthsNthsNjidTgCAzWZDY2NjWvIxW42NjaisrMxqHuaD1fMyF+J82mw2jIyMwOl0ynO7UNlstpTPd2dnJ2w2G0KhUNrzM59pG/cxMjKStjTF9ZzONBeC2ZbVbO9loVAopW2tlPt8X/dENH8sB0qamppgt9tNXwDw0UcfAQCmpqbmJ6dEREQZpG14zqZBt1CFQiG43W50dHRAVVVMTExkO0sAZvLV1dWFurq6bGflplNZWQlFUaCqKlRVRXFxcbazREQAPB4P2trasp0NIpoFy4GSixcvzmc+iIiIFgTxK6EIJIiXw+GYl2DJsWPHoKqqbpnT6Zy3wMzVq1cBAFu2bJmX9GdrYGAAAFBbW5vlnNx8JiYmUFFREbNsoQTB4lFVFceOHct2NjKqpaWFwSyLMl1WDocDqqriwIEDaUtz+/btCAaDt1xvH6LFIOWhN+Xl5YhEIroXERHRrUD0tvB4PGhpadG9d+DAgVuiUXflypVsZ8HU0NAQXC5XtrNxUwoGg9nOAhGZKC4uhqIoOH36dLazQkQpmvfJXMfHx1FfX481a9bIOUzq6+sRDocB3BjSU19fL7eZnJyU64+OjsrlPT09sNvtqKqqmu9sExHRIiR6NTQ3NyddV4yfjzc0p7OzU84R4XQ6467X2Ngo5ygRvVmCwSD8fr9uzgngxlwX2lcqnE4n3G43AKCkpCTp+Hmz/Wl/Ga2srIyZByPefBxm6wqhUAh+vx9lZWVJ86AtP7M5DMQ8A52dnbrj1qZhzJvT6URj4/9n7/5j2zjv+4G/b039T1NCE/BdYSPVaB6BYkVtw+vgzAkpbTLAI9AWsGEHEL0ioVrDGzlgcw2N7FZBKwQlGAkn1YpNBATX0orWJFBrjtcG0zGztoqs1bqJjVpFuxY8inMy559CE9Rgq70O/P4hPo/vjsefokjber8AIiF5d89zzx1pPR8+z+eJWnK3mHNVmPe37ytes+/bzC/I9n3suRHEudRqN3H+AJBKpSztY29vUVaxWLScj1M+hmbubVGueTtzm9c6lrk8p5FTjcpuhzh34GFOoHrtKupmPy+ne8vpXMR2Tu1SK6+F/R41v2+/T9rNPWM/jlM+FlFf8b1U7zumUVvar2WtY9WqU622qved1AxzLhr7NbLfo/WuZb02MdfJ6/Vidna2pToSUe/taKBkdXUVn/rUp7CwsCBzl2xsbGBhYQGDg4MolUp4/vnnAQALCwtYX18HALz11lty+zfffFMe79vf/jYA4PDhwztZbSIi2qWWlpagqio8Hk/d7ZLJJEqlkpyWIwIb9k6nYRhQFAVTU1N1txNGRkZQLpehqio0TbPknMjn8wiHw5bpQKqqttRpKhQKSKfTAIBcLodyuVxzqksmk4Hf70c6nZblJRIJ+P1+2QkIh8MwDMPS2bpx4wY0TcPy8rLleLqu4+zZs45l1ZoO5FSHQqEgO6SxWAyqqlrymkSjUaiqKkcEeb1ezM/PW84hFApVda5SqZRlO1VVoaoqFEWRr9faNxQKYXx8XO4biUTg9/vrJgVNJpMIhULyOpTLZaRSqZaSUIqpCcBWLoRmprKoqirvx1wuh1QqZen8NXtvA1udSlH/dDqNeDxuCSQlk0nE43HLORaLxZod21bKboeiKBgeHrYc3ykQo6qqvObm8/J4PNA0rarTm8/nYRiGvA9VVbVM3VtaWqp7L4jPsLle4liZTMZyX9ardz1O91skEoGqqlV1i8fjlvo4iUajKBQKcpupqSnLfRSNRhGPx2EYhtxG07SqYImiKJbvulwuV/d6i0ByK5+1WlRVlceyjyA0b9PstYxGo9B1HblczjJdaHh4mKO+iB5DLQdKrl+/bknkWm90x2uvvYaNjQ3s378fd+7cwebmJnRdB7AVMPn617+OT37yk3L7t956CwDw/e9/X762sLBgKRsAfv/3f7/VahMRETVUKBSaCjzEYjHLPHbRgcpms1XbptNpGYzweDyIRCJIpVIt183n81XlnDh79mxVoKJTxBQkcyBFBCampqYAAEeOHAHwcCQOsBVsGh8ft7SF6BjXyosipgPt27fP8vr4+HhVHebn56Hrujzm/Pw8DMNAMplEJpOBruuYn5+X2xcKBUun5dSpUwBQNRReVVVLkEEEdcydnnr7mq+NGJFkbhe7eDyORCJhqVs6nUYqlZLXU+RM6GSuEfP96PP5oGkalpaW5Put3NvmthkZGYGqqpYAmdM5Li4u1sw50UrZ7UgkEpYOcSKRgK7rVZ+feuclgoPmYI+4H0ZGRuSxzPf64uJizeBrJpOBYRiWc/R4PPKaj4yMVAW/IpGI/Hu6GcVi0fFaiLa+cOFC1T6N8nQUi0VLXpyRkRHZtvl8HqlUCul02nLe4pgioCL+az4/n89XN9gn8kUJp0+fBgDcvHmzbn2dJBKJukHxVq5lMplEKpWqCpIAkCuC7uRqSkTUeTs6okQEOf78z/8cbrcbAHD06FGcPHkSAHD79m243W45QkQESERApK+vD2trayiVSpYpOPaEZURERL1W6w9uEUwQBgcHAaAjyf3EH+CdJuom6moWCARkJ010ZM0dbV3X4fP5LAGcGzduQFXVmh3ku3fvVr1WLBZhGEZVHUQwRQRXfD4fIpEI4vG4DO7US/5Y6zrZA2Sibc3BG7GvmD4s2P8u8Xg8UFXV0i5mtQJHzzzzDICHI2x2gihDMHfKa6nVZvbAltfrlddcnON279FGo7taYW9v8dzeya53XiLIdPnyZfn+7OwsIpGIrK+qqpaRV/WIAEwr5yn+pm6WOD+nQKVTIEqcSz3Dw8M1R0CJwJH9u8/+uRAj+LbDfq1aIQKftTR7Lf1+vxw5Ve+7Zyc/10TUedtO5nr16tWG+/zO7/yO5fmhQ4csz8WoFDH95vbt2zh27BiOHTsGAHj77bfxgx/8AABkkIWIiKiXzHP4FUVpa5RIq+w5BkS+kZ1i71QD1Z204eFhGTjJ5/MyIaumabKDtrS01PKPHKJTEQqFLOfs1LEy55Rxyi+znbwuO0EEeUSeGPHw+/09rtmWTt7bTvdQt8reKZFIRAYXxLQbc0CvUCjIDnYzeS0aBQvsuT7E1JhWOQUV2g1ExWIxJBIJmRvHaSSe07Ht27Wab8WeM2S7gZZGmrmWIrD0qCbKJqL27HgyVwD46U9/ann+ox/9yPJcBETW1tbw+uuvAwCGhobw6U9/GgDwne98B9/97ncBQL5GRETUaebREvUEg0GkUilL3oBmfoU1a/WXUKccAyLfyE5x+sPfPppC/Cqbz+dx48YNmZB1eHhY/lqu67ocIu+k3qgDc34S88M8HUfkJRH/L4hOlcjfUS/nwk5o1Ak1X0vzo5dLx3bi3n7cym41mGNe8tU87cZM5O8Qo53qJU2uxynXRyKRaOtYTiMatjMdROTIyeVyjnlTnI69nWlk+Xy+KmdIN3J/NLqWp0+fRiQSQSgUqtue2xn9QkTdt6OBEjGl5m//9m/lH1YrKytySs5nPvMZAMCBAwfQ19cntwWAZ599VuYvuX79upyOY85pQkRE1EmiM9/oF2Bd15vuwNmH9Tcz1N7pV1YxTL0bnWhRhj0hKwBks1nLMr5iePqNGzewtLQkgx7PPfccstmsHLJer95OU07E9k7TcszMeUnS6TR0XZcdGdH29YI0nWCfuiCmDdWaIiGmJDyKv0C3cm/XI65fK8uidqrsWux1Ec9b7cCKJV8vX75smXbjROTlqHUfDw4O1s0zJD5v25mCJO43p2uh6/q2p7SL6W8iCFJrSpP4XJiDqa3kWhH1bzRlZqfUu5YzMzMyAbSd2L6T08iIaOftaKDkS1/6EoCtkSIHDx6Ey+WSf1wdPnwYx48fl9uKL721tTUAW7lMRP4SsQLO4cOHW56XSURE1Cyfz4dEIoF4PF4VLEkmk/IXU1VVLZ1jkcjPiXmVFJHksNEvwh6Pp6oD4fF4LB2qfD6/o1NvxLB689z8aDQKwzCqEj2ePXsWS0tL0HVddspEnpJwONyw8ys6qvaOnLgWTsv/Cua8JCMjI9A0TbaLCMCYj9vu0qr12H9NF6Naaq2kIZL62n+Bzufzlvo1Wh54J7RybzcifoE3n2MwGKyZ76HdsptdRtg8GkAkOI1EIm11YAOBAFKpFAzDsATiMpmMZVSTKK/WqCkxEsU+Esq8tLj5uyCTybQ89Ubcb07XAmicuNWJfQpbKpWSdRZJgu3fT4FAwLIilfjb33zu+Xy+5rUUbWgOwOzk1JtWr6W4d+3170QuFiLqvqYDJWLEh/hvo+2Ah0OYzXlF9u/fjzNnzuDq1avo7++Xr7/wwgvy/83bm1fVqbfCDhERUSfEYjHkcjnE43HLXPilpSW5GkOhUJBL/4r3agU/DMOQ89v9fn/VyhtORMdFHL9YLGJmZgaapskla/1+P3K5XGdP3kTkIDDn0RDTIuwdy+eeew66rlctraxpmmNCVrtayU9jsRjS6bSlDqqqyukzohNjzksyPj4u3/P5fHJ5V7H/1NRUxzstkUgEw8PDsgxd1xtO8ZmZmUEikZDXU1EUhMPhjq5w045W7u1GZmZm5BK04ngej6fm6KJOlu0kl8thfHxc3keRSKStIAHwcJSSfZSXCHyY8wiZVxpyUi6Xoeu65R4XKzctLi5a2m98fLytKXdO10JMKWlHLpezfD9qmmZZrWZxcVEuByweXq/Xcn+L4K/IcyK+12pdk5GREblEt9h+J78DW72WHo9HjmozB9o7MWqHiLpPKZu+IV955RXMzc3h1q1bvawTEe2glZUVaJqGe/fuYe/evb2uDlHXXbt2DcePH8f9+/exZ8+eHSsnmUzK3AIcct2YaK9u5hDpBJEDpd0ON21PsViEqqp1O7CZTEbm9+nU1DVRbjOBT9q98vm8DGr3MvcQEdV3+fJlhMNhPHjwQL7WlWSuRERERPWIYfjtJr2k3enChQvQNK3uiI2dcOXKFQC9y5dBj4fLly93LbcUEXXWU72uABEREZHIozA/P9/1Ti89norFoswT0m3xeHzbSVbpyZdKpXZ8dTIi2hkMlBAREe2AWCzGIfktehynrzxuU4WeJB6Pp6n2HxkZ6XjwjdedmsH7hOjxxak3REREREREREQVDJQQEREREREREVUwUEJEREREREREVMFACRERERERERFRBQMlREREREREREQVDJQQEREREREREVUwUEJEREREREREVMFACRERERERERFRBQMlREREREREREQVT9lf+O///m/827/9Wy/qQkRd8JOf/AQAkMvl0N/f3+PaEHXfj370IwDA0tISnnqq6p9BIiIiItpFfvzjH6NcLlteU8qmVwKBAN58882uV4yIiIiIiIiIqFfMwRLLT2l/8Ad/gEKhwBElRE+wH/7whzh16hR+8pOf4CMf+Uivq0PUdf/8z/+Mz372s3jvvfewZ8+eXleHiIiIiHpoYWEBf/qnf2p5rWrM8Qc+8AH85m/+ZtcqRUTd9eEPfxgA0NfXx6k3tCs9/fTTAID+/n4GSoiIiIh2uQ996ENVrzGZKxERERERERFRBQMlREREREREREQVDJQQEREREREREVUwUEJEREREREREVMFACRERERERERFRBQMlREREREREREQVDJQQEREREREREVUwUEJEREREREREVMFACRERERERERFRBQMlREREREREREQVDJQQEREREREREVUwUEJERNSkYrEIRVEQjUZ7XRUAQCaTgaIoyGQyXSkvn89DURQkk8mulGeXTCahKAqKxWLd7YLBIBRF6fhxuykajT5ydXoSeL1eBIPBXldj2x6176LH1ZNyPxBR5zUdKBkdHYXL5cLo6OhO1qcl2WwWLpcLAwMDKJVKva4OERE9AUTwQTz4RzQRERHR7tJ0oGRjY8Py3266dOmSDIgQERHtlGQyiVAohFwuh3K5jHK5DI/HI0dQeDwelMtlzMzMyH3EKIudHNVRq4yRkRGUy2WMjIzsWNlmPp8P5XIZsVisK+W1a3FxEeVyudfV2JaZmRl5/zUjGAzC6/XucK0671EczfM4cPouetLxXiGibnqq1xVoxubmJoDqIE0gEJDvERERbdfs7Cw0TYPP55Ov7aaOCBERERFtM0fJiRMn4HK5sLKygvPnz8PlcsnpOevr65Zts9kshoaG5DZDQ0NYWVmR709PT8PlcmF6eloea3R0FKOjo5iYmJDbif0BYHV1tWqkyerqKkZHR3Ho0CFLWdlsdjunSkREu0ShUKj7vjkvQDAYhN/vBwCEQiEoiiJ/1RejQPL5vGV/kXvCTPxS6jTdp5ky7CNN7MezlyfyG2QyGVkf83FrEfuZc5QEg0EEg0FZF/Gwn3ejNnA6dq1tga3cAqKsZvext4nTL9P1jmtn/oXbaR+RK6VWm9jbzHwdnX49N18rcX7iGLquwzAMx2PZz9teD1Fv+33jxNw+Tseyv1/v139FURCPxwEAqqpW5dwwt6vTedXSzPQ5e9s71bNT7eZ0Hk7b1nvPiVOOEvP+zeQvsd9T5vb1er1V3wn2+9Lr9SKZTNa9l5spy358+zk0ulfs5Tdzzet9RxERdSSZq6ZpuHjxony+sLCAz3/+85bnp06dwu3bt+Vrt2/fhqZplmAJALz22mvyWI2m+bz//vtV212/fh0LCwtYW1uzlHXq1Cmsrq62cXZERLRbnD17FoZhNJ2XZHFxEblcDgCQTqdRLpcbBlrskskkSqWSnOpjGAZ0XZedgFbLiEajiMfjMAxDHlPTNMeOVygUAgBL2e3kZNF1HX6/Xx4nEonA7/fX7CSfPn0aACwdlZs3b0LTNCwtLVm2zWaziEQiltdUVcX8/DzK5TLS6TTi8XjDDrSiKNA0TdYxl8tVdSTbOa7YT7S3mJbk9XpRKBRkeel0Gn6/X55zsViE3++X17RcLmN8fLxmGclkEqlUqqr+YjqUpmlQVVW+L6ZjKYpiuRdqXZt4PI6lpSW5naqqVZ1k8dx8v4TDYUsbe71e+X4ikYCqqjXvA7ENAFlHMYIrn89DVVUkEglLG4ZCobrXJJPJIBQKWdrV4/FY9tF1HeFw2PL5UFXVcpxOtVuxWKw6DwDyXhTbKIqCSCRiKa+2/qlCAAAgAElEQVSZYImZ1+u1HEO0Yy3BYLDqnjK37/z8PAzDkMG/YrGIeDyORCJhmRIWj8ctn/9EIoFQKGQpu1FZwNY9Ho/HLVMfi8Ui8vl83Xslk8lUfZYKhYLluyyfz8Pv91uug9/vh2EYLbUxEe0eHQmU9PX14cqVK9jc3MSZM2cAbAUshC984QsAtkaNbG5uolQq4eTJkwCAb33rW5ZjbWxsYHJyEpubm/jKV76Cubk5TE5Oyvc3NzfrTrd59tlnMTc3hzt37siy9u/fX1UnIiIiu1gshkgkAl3Xmxph0akyzdN7PB4PNE1rayRkPp9HKpVCOp22dGTE8e0jJCKRiKXsRCIBXddbLheAJSfI2NgYgK3ghxMxteny5cvyteXlZYyPj1vKLxaLMAwDg4ODlv1zuZw8xsjICFRVxfLycs26ifNeXFy01MH8vJ3jCvaOYyaTgWEYlms4MjICTdMwNTUFALh37x4A4MiRI3KbegGwUqkETdMs9W9mWpg9z4kIUtmvjaZplvaYmpqCYRgyMOB0Th6PR9bZqY1jsRhUVcWFCxca1tMuHA5D0zRLPhzRhvUCSuPj44hEIpa8PTMzM5bnqqpa2locz9yx71S7XblyBQAs52H/nF24cAGqqlquZ63PbD32z8rMzIxlGqFZPp+HrusyCAts3VORSES2h3gej8dRLBYRjUahqqpjjiLz51+8Lz7fzZQFQAZhzHVeXFyseQ6C0zWfn5+Hruvymk5NTVXVnUESIqqnI4GS8+fPIxAIAABeeOEF+XqpVMLKyooc8XHu3Dm4XC643W4sLCwAgGXkBwAcPnwY586dAwC43e6W63L06FG88847eOmll2RZ9jKIiIhqEUk0NU2TUxm6tfyu0GwCT7sbN24AsHa+xfFUVa0arWH/d1ZMZW01WaL913hR/7t379bcJxKJWDrd2WwW+/btg6qqsnMjOqX2ZLX79u2zPPd6vXXrvLS0VFVHJ60eVzh16pTl+fLyMlRVrbqO5sCC6PzVG3FhNjg4CF3Xt70Kk/0czXUze+aZZwA8DOiIgFGte3NpackSyBGabUMzESAbHh6uem94eNgSiHDar9Hfj/YAqGiTd999t+Y+7bZbM7LZrPw72kxV1ZZWddQ0reGIG0F8V9iDEG632xJAEAEbVVWh6zrm5+cdy3V6TXy+mylLfOZbXbihVjDVfk0LhUJVG4vvRSIiJx0JlNTy3nvvNdymr6/P8ry/v39bZZ4/fx4TExOWaT5EREStMq+cIqao7BT73P1UKrWt4zl1Zh+1FVEGBwdlh1d0ej0eDwKBgOxYLS8vO3bC2tHN8xedN3vOCft1FfeXyLlQr4M7MjKCdDotRzs1Oy3Dnh9jOx3DevsWCgVL3cSj3RFKgHOnuZmOdCdWSexUu4kgmvnaxuNxy3QywzCQSqWq2q7VEQ+Li4syWNIoR4kIwNjLFHlAzMSUF3ui62a1UpYINDVLBKTEOde6Xhw9QkSt2tFAiZ2YDmN+zM3NdbQMkd9ETN/Z3NzEsWPHOloGERHtHqKTsFNLUtrn7ov8BNvhVNdWc6fsNDFK5ObNm7h586b8tXdwcFCOfMlms5YcGI8Tc74Q88N+Hcx5Mux5HezEctCi09co+OOU52MnO4zmHDDmh32KU7OcRiTVG6XUKZ1sNzEqytyR1zStatqUObeI+dHqqlsiwJtIJJBKpRpO3XEq0zyNRuQlESNKWhldZ78/G5W1Heb8JOZHt5ZOJ6Inz44HSj72sY/J///qV78qV8MRq9NcunSppeOtr683NQxRrIyzsrKCt99+u6UyiIiImlVrSH6t4fz23CO6rjcMjNQqw+65554DUJ1Hod5Uhl7SNA3Ly8tYXl6W0yWOHDkCXddlne3TiNoxPDy8rZEN7ZTXasdadIjrTf8QPB4PEomEpQynUURiZI59alA7zCOAnAQCgbaCcU6jP2pNFQMeTqNyOl+xXzN5ZerpZLuJUVH1AkeapnU8ECvyw9T6m1lMVWlUrshLUigUZDDPzumzpeu6vEbNlCVGqoi2d+J0r4j9GgXQnPI+ie8YIiInOx4o6e/vl0ndLl68CLfbDZfLheeff17mKWnEPCLE7Xbj4MGDDbcV+VA0TWu4eg4REZEYam/+Yz6fz8th8rVyM4jX7Z0z0WkzJysMBoNVf5irqmr5A16sbtJMGXY+n8+xMxMIBGomYeylcDiMbDaLbDYrgzyi3QKBADRNaztfi5no8NqXE91uvo9aRDvbjx+NRuUv/GJZWUEk/aw19cCe62N2dtYyvUDkezBvIzqW5sBZu1NIxC/z9uV7xaiBsbExGIZRNd0jGAzWHYUgztce3JuamqoawZBMJmvmyRDOnj2LVCplGZkTjUZbGgnRyXY7ffq045Qk870hkhjbR394vd6ml7C138/5fL5uvhaRrNietyOZTMprmMlkLO0tgnlOU3rMo0fE++Lv/2bKAmBJHCuIpceB2vdKIpFAPB63tJX4PhfC4TAMw5D3gViNiIiolqYDJSKXiD2nCPBw9AYAPP3001X/PzExgenpaRw+fFi+d/jwYczNzeFzn/ucYzlmBw4cwNjYmHzPPpXGvM/XvvY1uaIOAJw8eVJ+URMREdXi8XiQTqdlvghFUeSSk42Gv6fTaZljwNxZKRQKllwV4XBYTuWptc3S0lLVNvXKsBN5CsydMrFU7aPmyJEjMAwDhmFYch8EAoGOjoDxeDxVeSD8fn/L0xpaIabZmK+D2+2WQZRYLIalpSVLvgbzqjt22WzWcm8C1ulUYgSB2Cafz2NkZEQu1Sr2M6880s45mTv9YjllYKuNy+VyVa6NcDhcd/qDWP1E1FEEC0ROFnPdxbLX9fJkxGIxJBIJ+P1+uV+xWGxpCkYn202MkLBPCTEn5vX5fDAMA/F43NJ28/PzTecE8fl8GB4ettzfiUSibnC0UCjA6/VayiyVSvJzEQqFLHlJPB4PIpFIVSBKrOZkzsVjGIYlyNmoLGArEBOJRCz3ucfjkeXXuldisZhcftt8b5qn9djvJ7Gkd6dyIBHRk0cpm75FXnnlFczNzeHWrVu9rBMR7aCVlRVomoZ79+5h7969va4OUdddu3YNx48fx/3797Fnz55eV4eInmCKojgGLILBIAqFwiMZwGyF1+uF1+ttOw8NEdGj4PLlywiHw3jw4IF8ravJXImIiIiIdgtVVTE7O2t5LZ/PQ9d1nD17tke1IiKiRp7qdQWIiIiIiJ5E5iknZul0miuyEBE9whgoISIiIiLaIY/79Jp6nuRzI6LdjVNviIiIiIiIiIgqGCghIiIiIiIiIqpgoISIiIiIiIiIqIKBEiIiIiIiIiKiCgZKiIiIiIiIiIgqGCghIiIiIiIiIqpgoISIiIiIiIiIqIKBEiIiIiIiIiKiCgZKiIiIiIiIiIgqGCghIiIiIiIiIqp4yvzkrbfewtraGrxeb6/qQ0Q77H//938BAIcOHcJv/AZjpbT73L9/HwDw0Y9+FIqi9Lg2RERERNRLv/rVr/DrX//a8polUPJ7v/d7yOfziMViXa0YEXXP2toa/v7v/x7nzp2Dy+XqdXWIum51dRWzs7P4q7/6K3zgAx/odXWIiIiIqIfeeustfOMb37C8ppTL5bJ48sorr2Bubg63bt3qeuWIqDtWVlagaRru3buHvXv39ro6RF137do1HD9+HPfv38eePXt6XR0iIiIi6qHLly8jHA7jwYMH8jWOuyciIiIiIiIiqmCghIiIiIiIiIiogoESIiIiIiIiIqIKBkqIiIiIiIiIiCoYKCEiIiIiIiIiqmCghIiIiIiIiIiogoESIiIiIiIiIqIKBkqIiIiIiIiIiCoYKCEiIiIiIiIiqmCghIiIiIiIiIiogoESIiIiIiIiIqIKBkoAjI6OwuVy4dKlS72uChER0a6gKAqCwWDT23u9Xni93h2s0c4LBoOP/Tn0WiaTgaIoyOfzHT92Pp+HoihIJpMdP7awk/UXgsEgFEXZ8XMhInqSNR0oOX/+PFwul+PjcbexsQEA2NzcBABks1m4XC4MDAygVCr1smpERNRFoqOUyWRaeo+I6FGQTCah6zoMw0C5XEYsFut1lYiIHktNB0rW1tY6VujAwABHcBAREe0CXq/XceRIuVzG4uJi08cpFAooFAqdrJrU6V/5OXLkoccpwOjz+ToWXOjGyBEnpVIJqqrC4/G0vO/jdK2IiHbaU63ucOzYMVy9enVbhdpHcDxqAoHAI1s3IiIiIiInxWKx11UgInoidCxHyaVLl+R0FbMTJ07I0SOrq6uWqToTExNwuVyYnp4G4DzSZGVlpeq44pgLCwuW4wPA+vo6zp8/L481MDCAyclJrK+vN30uop7mMqenp2U509PT8vhDQ0NYXV2t2l/kPXG5XDh06BBHzxARPaHEr7Dmh/lXZKcRFbV+ba41+qKV7Z229Xq9lvo105my72P/ldnr9SIajcry7McWrxuGAV3Xq9rGqe72tjSPyrCP0hDHF+857SMkk0nLcc3ler1ehEIhAIDf7696v1gs1qyTnai/mPpQq+3sx3QadWBv12g0WrNc8/bFYtFy7cR+5uM5nUM0Gq1bXjQale3SbL2CwSD8fj8AIBQKOZZtv88anaf9+E7XVGjl2pm3N+f1CAaDCAaDVfdmvZEije4pp/o7nXcn7j3Aem/YyxfHrHetxLHt5yzuGcFcjtN52e8xjlwhokdZxwIlYgSGGC1S6/166o00cTruF77wBVy/fl3us76+jhMnTuDixYty+42NDVy4cAGf//znmzsRAO+//37NMs+dO4eJiQn53u3bt/GpT31KBmJWV1fxqU99CgsLC3KftbU1nDt3TgaEiIjoyZDJZOD3+5FOp1Eul1Eul5FIJOD3+2Wn4uzZs9B13bLf8vIyNE3DjRs35GvFYhGGYSAcDleVMzIyAgBV23u9Xsdjq6oKn88HALLDY66fqqp1gyVerxfz8/OWfUKhUFVHKZVKYXx8XG6naRpUVZV1LpfLUFUVmqbJbUS97PL5PPx+PxKJhNz27NmzDZNRKoqC4eFhuY9hGJZOaTKZRKlUsryv67rswBUKBaTTaQBALpezTAnK5/NQVdVSp3pJZcXUDdEOYh9x/QDAMAzLe5FIBH6/33I9kskkQqGQrE+5XEYqlWoqiKCqqrx26XQaqVQKiqJYrqe9jaLRKNxut3w/l8shlUpVtb0IeIl61dpOWFxcRC6XAwD5GTFPn7Lfm4ZhNH2efr8f4XBY7qvruuWcWr129ei6Dr/fX/eamdW7p5zq79SOnbr3mtXoWrVCVVV53jMzMwC2AjGpVMpyj4VCIQZLiOiR1XKg5Pr165ZEridOnGh63wMHDliCIJOTk9jc3MS5c+darQaArUCGrusolUp48cUX8frrr+P27ds4fPgw7ty5g83NTfkH5PXr1zuWmFXUe25uTtbjZz/7GQDgtddew8bGBs6cOYNSqYTNzU1MTk4CgNyeiIgebeIXVfND/Npq3y4SiVg6wrFYDKqqYmpqCgDw3HPPAYClQ5DNZjE+Po6lpSX52s2bNwEAR44ccayTpmmYnZ21bD88PAxN0ywBjGw2i0AgAACy42XupIn6Xbhwoeb5FwoFS0Dj1KlTAKyBGmCrQ2TuTI2PjwNAW3kZpqamoGmaJT9ELBZrmC8ikUhYtkkkEtB1XXZiY7GY7KwBgMfjgaZpyGazbdVpZmYGhmFsq4Nn7sCOjY0BeHj9ASAejyORSFiugQh6NBoNlE6n5X7ivtQ0zXIPRCIRS4BtZmbGco4+nw+qqlruTyGXy8nj+3y+qvuyWSIYYq6Xx+NBIpFo6jwTiYTlc2e/7p2+do2uWavS6bSsv2hHc3vv1L3XDZFIxHLv5vN56LouAzHA1jlHIhH5nUFE9Kh5rJcHHhsbw9GjR9Hf34/+/n58+9vfBrA1yuPgwYNwuVzQNE1u/9577227zGPHjsnAzsmTJ+Xr9+7dAwA5kuTixYtwu91wuVyYmJgA0NmEuEREtHPMI0TMv4CaiWDA4OBg1f6BQEB2REWnc3l5GcDDHAL79u2zdFbFKJNaSRjD4TAMw5D7Ly8vY2BgAB6PRwYwxKiU06dPAwCWlpYs/w4KXq+3pVwGtepk/3V73759AIB333236WMLuq63lYBSBKLsz+t1YpstR9d1DA8PO+579+7dVqopiRE3tY4n7iv7eT3zzDMAHv69UYvYzlye/XzdbjeA+vks6o1cMBseHrbcl83KZrOO92Yz18+8Xa39OnntGl2zdtivk8fjsQQdd+Le6xbx/SOI7yf7veN2u2EYRtfqRUTUipYDJceOHcPm5qZ8bDex63a0ujTx008/vUM1Ad55552G2/T19e1Y+URE1Bv2Dg/wsCMqBAIBOYLh5s2bCAQC8Hg8UFVVdoyz2WxVx8hMjDQRHcFsNosjR45gcHBQ/hIt3hMdkkKhYMkPIh726TpO7Pt0g73dOsWeGyGVSjXcR3T84/F4V9tCBJlEbot6I5o6yZwvo9l7ZLucAlYi2LYdvbp2nfK4199OjOi2n0s8Hu9xzYiIauvYiJKPf/zj2z7G4cOHO1AT4MyZM5ZgjngcOHCgI8dvxtzcXFX5j/ovAERE1Dqn0RP2qZ6nT5+Wv7ovLy/LUSiBQAA3btyQI0HEFBcnYsrI8vKy7Eh5PB4cOXJEdmqXl5cRiUQs+5nzg5gftZbmFYkYI5GIZfvHjQhg2XMjiBwTzTLniDA/OrGEbD3m/CTmR60cL9vh9XpRKBQs5TiN9qinndFATqNQGo2YacQcuOzVteuUx73+dk7n8jh+txDR7tCxQMmHP/xh+f9i+sn09LRMtupE5CsRf1D29/cDAK5evYr19XWsrq7ii1/8YtN1EIGWK1euYGVlBcDWKjgLCws4dOhQC2fTPlGHr371q/K8SqUSpqenMTo62pU6EBHRzhMdVjGlxsw+rUBse/PmTWSzWdmZE6NBbt686ThFwm54eBjZbBY3b96UUyPMI1Oy2axlKlAgEGg5IaMYlWIfPt+uZpNn2nM0NMueN0U8FyMTdF1vGBhxGhUk2rWd/GbtBA0EMXKonelL7RBBurNnzza1vT3/zNLSUtXUFLNaI0TM09PMxPWrlavHvp39+b59+7Z17TrF6Z5qVqfrX2valr39a12rWlPqmsnzAzycnsili4nocdKxQMnHPvYxObVELI07MTHhON1E5Pa4cOECXC4XXn/9dQDA0NAQgK0cI263G88//3xLeT1efPFF9PX1YWNjA5qmweVywe12Y3R0FP/1X/+13VNsype+9CUA1jwpBw8elHlKiIjoySEST5o7j9FoFIZhWBKIAlsJDufn52EYhgyciNEg4+PjTXVUT506BcMwMD8/b5mmEwgEZA4Tc4LLsbExGIZRtYpIMBismRBSdKrMHdF2VgoRPB5PU9M4wuEwdF231CuZTDZc9SYej8t9isUi4vE4IpGIDFaoqmrp0CWTyaqpN6IjaO98T01NIZVKVbVVoyWWRe6FdjqGHo8HkUgEoVDIsn8+n9/WdahXHgBLkCoajda8ZubVXjKZDHRdl4mL6x3fHlAUCVHN92Y+n5eJbBsFmxpd93avXafUuqea1cn6i+8b83VyupdqXSsRuDEnXg0Gg03nFxkZGYGqqjLJtJBMJltaDpqIqJuaDpSIgEetPBv9/f144403sH//fgDA/v37MTk5iS9/+csArPlEzp8/L0de9PX1yWk7586dk/9wAlsBlTfeeAN9fX2O5dpzlLjdbrzxxhs4c+aMpb5nzpxx/MWv0fGcyrS/Jp6LfQOBAK5cuWJJ9Cra4tVXX21YByIienzEYjG5HLA5/0W5XK7q6A0ODkLXdctIE9EBMQyjKjmlE7G9ruuW7QcHB2EYRtV0CY/HI5eWNecGCIfDloCKmc/nQzqdtuRHmJqaqjtqoB4RMBLHqtXJGxkZQTqdtqw4NDs723CaQS6Xw/j4OBRFgaqqiEQiliBVoVCAYRjymEtLS0gkEpZjiNVWxDmLztvIyIhcxtTcfoZh1O3Ii5WFVFWFoigtrwI0MzMjl3E2X7N2l2ttRCyZbM6DUWsUjljeWFEUhEIhy+ottZiXKRZL+Ho8HrkcsDkPSzqdbmpqiWEYda97u9euU2rdU83qdP3t13h+ft7xGjtdK6D6cxQOh6s+R/UUCgV4vV7LuZRKpaqAMhHRo0IpmyYHvvLKK5ibm8OtW7d6WSci2kErKyvQNA337t3D3r17e10doq67du0ajh8/jvv372PPnj29rg61KZPJIBQKWZarpZ0TjUZlEJCIiOhJcvnyZYTDYTx48EC+9lgvD0xERERERERE1EkMlBARERERERERVTBQQkRERI+dkZGRHVsul6rNzMxw2g0REe0aDJQQEREREREREVUwUEJEREREREREVMFACRERERERERFRBQMlREREREREREQVDJQQEREREREREVUwUEJEREREREREVMFACRERERERERFRBQMlREREREREREQVDJQQEREREREREVUwUEJEREREREREVPGU+cmDBw/wi1/8An/5l3/Zq/oQ0Q577733AABf/vKX8aEPfajHtSHqPsMwAAB/8Rd/gQ984AM9rg0RERER9dK///u/4//+7/8sr1kCJe+88w5+9atf4Yc//GFXK0ZE3fPLX/4SAPD2229jz549Pa4NUfetr68DAH7wgx/gN36DAyuJiIiIdrNf/OIXKJfLltcsgRJVVfHMM8/gX/7lX7paMSLqnpWVFWiahm9/+9vYu3dvr6tD1HXXrl3D8ePHsby8zGAhERER0S53+fJlhMNhy2v8KY2IiIiIiIiIqIKBEiIiIiIiIiKiCgZKiIiIiIiIiIgqGCghIiIiIiIiIqpgoISIiIiIiIiIqIKBEiIiIiIiIiKiCgZKiIiIiIiIiIgqGCghIiIiIiIiIqpgoISIiIiIiIiIqIKBEiIiIiIiIiKiCgZKiIiIiIiIiIgqGCghIiIiIiIiIqpgoISIiKhJwWAQiqJ05FjRaBSKoqBYLHbkeLUoioJgMLijZbQrmUxCUZRHuo706MtkMlAUBZlMpuG24p7b6c8dPdoURUE0Gu11NYjoEdZyoCSbzWJ0dBQulwsulwuHDh3C5OQk1tfXd6J+PTE0NASXy4XJycleV4WIiLoon8833eGi7cnn84jH40in0yiXy1hcXOx1lYiIiIgAtBgoOX/+PE6dOoWFhQX52traGi5cuICvf/3rHa9cI5cuXYLL5cLAwEDXy65lYGAALpcLly5d6nVViIiowxYXF1EulztyrJmZGZTLZXg8HvlaMBiE1+tt63her9dxVMajGoR49913AQBHjhzpcU2oG8QIqp0wMjKCcrmMkZER+RpHjjhrJRi8ne+jR0Wt70UiokaeanbDhYUFXLx4EQBw8uRJ/PVf/zXcbjdKpRK++tWv7lgF69nc3AQAbGxsdPS43/3ud9veV9RF1I2IiIiq3b17t9dVICIiInLU9IgSMQ1l//79ePXVV+F2uwEAbrcbr732Gs6dOye3nZ6eltNXXC4XhoaGqkZYiJEgq6urOHHihHxun+6SzWblsczvj46OYmJiwnI8l8sFAFhZWYHL5cLo6Cimp6cxMDAgR51MT0/L8sQxz58/b5k6JKYWmevcqL6rq6uyfACYmJiAy+XC9PR0s01MRESPOPuv4uLX2Xw+L/OXmPNtiPfFw8z8i7fYTtd1GIYhtzf/6ms+jigTeJifwTAM6Lpe9X6tX1Ttx0smk5b3g8EggsFg1TmI49Zj38e+n6IoiMfjAABVVRse15zLxKktG10HO6/XazlWM6MOxLWv1V729+2/xIvrVCwWLeWLPAnifad9k8mkfM28r9P5FYvFqrayjx7wer2IRqOWMmu1g73tnc7b6/VWlSvKFK+nUikAqHkccxvY7wWne9i8rX2UhNP95ZSPwtyWTvVxagfzeZr3Md93Tudgb2vz+9FoVJ6feRunOts/W073gH0bce8Eg0H4/X4AQCgUcrzXzPvX+z5q9Jmspd73gng/mUxWHd9Jvc9co+9F+3atlGP/PInvSvOxmvmeJKJHXNnk5ZdfLnu93vLm5qblcefOnTKAMoDy2NhY1fvmx5kzZ+S29od531rbAChPTk6WNzc3y7quO76v63r55MmTju+Z9+vr66t6r1aZJ0+elHU7duyYpR7N1Pd73/te3XPhg49H5SE+H/fu3SsT7Uavv/56GUD5/v37Ve/lcrkygHI6nXbcNxKJlM3/dIrtzfuYX1NVVW6rqqrleSKRKAMoG4YhX9M0zbKNYN9O1MP8mqqqZU3Tqva1v24YRhlAORKJVJ1HIpGw1EWcR71y7dLpdFUbinPN5XJ1z9+JU5mibvb6m8/B6TzL5a22NLdHM/Wo1d7iub0+4n3ztRTtYm4H82vmOtWqo7ldm72OTtdDVdWq+9PpHOznLco0H19sY97O6XrbPzu12I9vGEbNuon6O31ua11Xc1var0Otz719P/sxa11rcXxRP3N7mLc3t6F9n2aupflecdovkUjI542+48xqfR8185l00sz3mNPnwd6+tcpz2q7W92K75Ti1n9jGqa2I6PHwzW9+s/zBD37Q8lpTI0ree+89+f/mURN2q6urcnrO5OQkNjc3USqVcPLkSQDAhQsXqpK+Hj58GN/73vdQKpVw+PBhAA+nvvzgBz+Q24hjnTlzBgAwNzdnGX2yublZNd1lY2MDJ0+eRKlUwp07d2S9dF2X24sRH+a8K/XUqu+BAwcs5YvzN4+0ISKiJ1MikZD5EXw+H1RVhaqqKBQKcpuzZ8/CMIy2ciaUbblMTp8+DQC4efNmy8eKRqNQVRUzMzPyNZ/Ph0gkIn+Ft5ctjI2NNSw3FAohEolY8kXEYjGoqoqpqamW6prP55FKpZBOpy3nL+puHwWQSCQQi8UAAB6PB6XQeDkAACAASURBVJFIBNlsVr4vtjfnbBF1u3DhgmMdisWiYx0KhQI8Hg8ymQx0XUcul7PsNz8/D8Mwqn59TqfT8Pl8ACDbSNM0S50ikQh0Xa+qSzqdlvuI8xMjNQAgHA5D0zTZBqIMTdMwPj5uOZb9/hTvi1/Cnc7b4/EgkUg43ieGYcjtRPk3btyo2q4RTdMwOzsrn9+8eRPDw8PQNM3yK302m0UgEGj5+EIul7NcB1VVsby83HC/RCJhuQ8ymQwMw7DcZ6LNxf0u8vGI8gBY2t6pTj6fr6otxsfHqz5b8/Pz0HVdts3U1FTVPRCLxSzPt6PVz6RZs99j9s/D1NSU5buz1c9cLY3KyefzVeWI70r750mUT0RPDkugpLzNBHXXr18HAPT19ckAQX9/P86fPy+3+dnPfmbZ52/+5m9w4MAB9Pf348SJEwAgv6A++tGPAgBu376NEydO4K233sJrr72Go0ePNl2nV199Ff39/XKq0LFjxzA7OyuTrrYayKhXXyIi2p3sScW9Xm/VkHaxzb1797Zd3r59+9reV9d1xw7m4OAgAFg6o6qqWrYRnZxa+UXEvuJYZoFAwLHzX4/oaNsTvno8HqiqiqWlJcvr9uvgdrthGIZ8vrS0BE3TqsoRU0eciE7cM8884/i+6FybO8Hm5/bOt/04qqpaOo+i3kD13xf2djBfs2KxCMMwMDw8XFXH4eHhqiCd/f4U95To1Ivztpcp2theN/s5qKqKUqlUVZdGwuGwpa7Ly8sYGBiAx+OR94M4V9HRbof9M1TvHjA7deqU5fny8rLjNfR4PDIYItqw0fQU+z1kvm7inO2fLft103W9qi6d1Opnsp5a32P2+ovPjPjubPUzV0ujcsS52suxf68AW/e7fTsierw1NaLk6aefbumgn/zkJy3PDxw40NL+a2trALaSxopfr65fv45Tp05haGiopX94+/v75f+XSiU8//zzWFhY6GgCWFFfIiKinWDP/2APYLRKdMTNagUC2uF0LKcym+XU8WtnNY5CoWDJVyAezQRw6gWnal2P7V6ndjitBNjO6oAiGCZyfIhHKBTadh3rER1wEajJZrM4cuQIBgcHZSdcvPcodExFAMN+T5lH+ng8HtmxbjeHhei8i9wi9b4LtvNZa1Y7n8lOfo914zMn+hv2a+s0ooqInjxNBUoOHDiAvr4+AFtTXhp5++23Lc9XV1fbqNqWiYkJ3LlzB5OTk+jr68Pt27fbXmXn9ddfB7CVkPbOnTvY3Nxs+dctIiKibsrn81BVFYlEAuVyGeVyuerXzFY5/eAgfpHuBKdjtTO6QHD6pd9p6kIzNE2T7Wh+bGcJ5VrXY7vXqVnmII7TaJ/trDBkGIZje+3UqAWPxwNN07C8vCyvu8fjwZEjR+TfbMvLy4hEIjtSfjtUVXVsI/M96vF45OuqqsLv9zc9Itnc1ul02rEs83Scbmj1M9np77Fufuac2nu7o/CJ6NHX9Ko3YvrM2toaRkdH5R88pVIJ09PTmJ6exsc//nEAW7lBRO6P9fV1vPbaawC2puS0Mm1GHFdMkRHDHZ1GcKyvr7f0R5jL5cL6+jq+9a1vNb1PK0S+ku38YUhERLuLU+dTDP+2D/m3a3aEhaZplnwKQq3h7K2oN/Q9m806Tnup57nnngNQncOg3jSTegKBQMsBFvsIBzunKUvm507TkNplr4NoZ4/HU3fqw9LSkuP0kHpE23diqhjQ2iiH4eFhZLNZ3Lx5U97X4vzy+Tyy2WzDdm1nFE07xPSYVohcFva2td9D4roBDz9bjYJemqbVnf7SyrQ9p/ul3c9ks99jzWjlM9fOyDN7OZxiT7Q7NR0oefHFF2Xy0oWFBRw8eBAulwsHDx6Uy/QGAgG5jVge1+12y0SpX/nKV1qu4MTEBNxuN1wul0wU+9nPfhbAVr4Rwe124+DBg3WP9eyzzwLYCrS43W643W55zE4xJ651uVxyFAsREVEjYu67+Q9z0eEzd0ychpd7PJ6mRkmOj4/DMAxL0sVMJiMTNG5XIpFAKpWqWv7UMAxLAtlmiISW9ukegUAAqqq2nKBybGwMhmFULbsqlvZ0IkY42OsgclqIRKDhcNjyvt/vh6ZpHf2lPxQKyXYVSTUTiYR8f2pqCrquVy3jqut6y4kmRduL5WSFTCZTc9nlesR93MyUk1OnTsEwDMzPz1s63oFAQOYwadSuYvpXOwmPWyHuQXubRKNR+RkTSzELly9fBlAdtDCPMhEJS80JkEUiXXMbiuksQjgcdrwHRF1E8KOZPB5O30ftfiab/R5rRiufuWa/F+uVY8/plEwmHZduJqInS9OBkv7+fnz3u9/F5OSkDIYAW9NYxsbG8OKLLwIArl69isnJSezfv19uc+zYMVy5ckUGEczM+U/Eijpims+LL76IM2fOyOf79+/H5OSkPM6BAwcwNjYm3zcHTszHEY4ePYq5uTlZt/3792N6erpqO3t9mq0vsDXyRrRPX1+fHGVDRESPD3segEZJGDtFrMAi8kLk83mMjIwgkUhY6mRf7QF4uOqE2KbWr6A+nw+5XA7xeNySdyKXy3WkUx+LxZBIJOD3+y35GtqdrrG4uAhN0yzXwuv1tjX1Rkx/SKVSluOFw+G65+5Uh7Nnz8rzEXUxvx+JRLY1nceJYRiyXf1+v2WVH2CrY5dOpy33Sjweh2EYbY0UWlxcRCQSsZzX/Px8W+clVoIR9a+3MokYPaLruhzBAGz9wm8YRlMjk8TqJKIt6q3Gsl1imo25ndxut7w2MzMzGB8ft3wezKsECYZhyM9+KBSyrHIEbH220um05bMlpv0ITvfA7Oys5T5Jp9PyM1Av6OX0fQS095ls9nusWc1+5pr9XqxXjtfrtZRTKpVaDvoS0eNHKZu+XV9++WXMz8/j1q1bvawTEe2glZUVaJqGe/fuYe/evb2uDlHXXbt2DcePH8f9+/exZ8+eXleHqKFkMikDHju5ogn1RjQalcFEIiLqvsuXLyMcDuPBgwfytaZHlBARERERERERPekYKCEiIiIiIiIiqmCghIiIiOgRFovFdnRJXuqtmZkZTrshInrEMFBCRERERERERFTBQAkRERERERERUQUDJUREREREREREFQyUEBERERERERFVMFBCRERERERERFTBQAkRERERERERUQUDJUREREREREREFQyUEBERERERERFVMFBCRERERERERFTxlP2F+/fv4/bt272oCxF1wc9//nMAwI9+9CP853/+Z49rQ9R9hUIBAPD222/jgx/8YI9rQ0RERES9tLa2hnK5bHlNKZteCQQCePPNN7teMSIiIiIiIiKiXjEHSywjSoaGhvDzn/8c3/nOd7peKSLqjlu3buGll17C97//ffzWb/1Wr6tD1HVvvvkm/viP/xg/+9nPOKKEiIiIaJf7p3/6J4yNjVleq5p688EPfhC//du/3bVKEVF33bt3DwAwMDCAvXv39rg2RN33kY98BADgdruxZ8+eHteGiIiIiHrp//2//wdFUSyvMZkrEREREREREVEFAyVERERERERERBUMlBARERERERERVTBQQkRERERERERUwUAJEREREREREVEFAyVERERERERERBUMlBARERERERERVTBQQkRERERERERUwUAJEREREREREVEFAyVERERERERERBUMlBARERERERERVTw2gZJLly7B5XJhdHS011UhIiJ67CiKgmAw2OtqOEomk1AU5ZGu46Mqn89DURQkk8mG20ajUSiKgmKx2IWa9YaiKIhGo72uBhERPeaaDpRMTk7C5XLB5XJhYGAA2WzWcTsR0BCP1dXVjlR0c3MTALCxsdGR4xEREdmJTqfT40nuXPZSPp9HPB5HOp1GuVzG4uJir6tEREREu1zTgZLbt2/L/9/Y2MDLL7/suN2Xv/xly/P333+/zartjNHRUY5MISKiukSn3fzweDy9rlZTvF6v46iMRzUI8e677wIAjhw50uOaPNqKxaLjyBGfz4dyuYxYLCZfEyN07MG9mZmZx+pe7pVa7UdERLtHy1Nv+vr6AGwFTkqlkuW9hYUFbGxs4PDhw52p3Q4QI1I4MoWIiKj37t692+sqEBEREVm0HCj55Cc/KQMhr7/+uuW9b3zjGwCAl156qWq/1dVVjI6O4tChQ3JaztDQkGUKz8rKihztMT09jYGBAQwMDDjWY319HUNDQ3C5XDhx4oR8fXp62lLG6OioDOgMDAzg+vXrAIDr169X7UtERNSMYDBomZZjH8GRyWTkL9JiG5E3wev1IhqNym3sU3u8Xq98LZPJVJVtnxKUz+ctZRqGAV3Xq96vNdLEfjz7iIVgMIhgMFg1LUkctx6nqUzm/RRFQTweBwCoqtrwuPWOVYvIy1Hv/Jq9luZrI66n+Tp6vV7LvslkUr5m3tfpOtjbyrxNNBqFqqoAgHg8LrcBqkeaOLWpqKt5pEStESqiruby7fdqoxwg22kzcz1rtZf5PGpdV3tdzHW23xPmz1m99iMiot2jrWSuIhAyNzcnXyuVSjIIMTw8XLXP9evXsbCwgLW1Nfna7du3cerUqao8JtevX8fExAQ2NjZqjvyYmprC7du30dfXh8nJSQDA+fPnMTExYSljYWEBg4ODWF9fb+dUiYiILLxeLwqFgmVajq7rjp1fVVWRy+VQLpcxMzMjX0+lUpifn5f7q6oqO2Xi9UQigVAoVBVYMAxD7heJROD3+1EsFjEyMiKPpWma3Mbn8zmeh+hkRiIRuW0ul0M8Hq/qdOq6Dr/f71huLZlMBn6/3zKNKZFIwO/3y3MSrwGQ51WrvvXOvZZoNIpUKmXZb3Z21hKUauVaimuTTqeRSqUs16tcLsMwjKp9DcOAoiiYmpqS2+i6bul8O7VVoVCQx5qZmYFhGACARCIht3Hi1Kbme0/weDzQNA2zs7OW14vFIgzDQDgcBrAVlAiFQvI+LpfLSKVSTQUP2mmzZDKJUqlked/eXubji3M0Tz0S8vk8QqEQIpGIbINgMIhUKmW550OhkAyWNNt+RET0ZGsrUCICIWtra1hZWQHwcHTJyZMn4Xa7q/Z59tlnMTc3hzt37mBzcxOlUgn79+8HABlgETY2NnDy5EmUSiXcuXOn6lgLCwu4ePEi+vr68MYbb+DAgQNYXV2Vr+m6js3NTdy5cwf79+/HxsYG/vVf/xV3797FsWPHAADHjh3D5uYmrl692k4TEBHRLpRMJmEYRlVC83Q6DV3Xq0Y4RCIRx46/qqqWfCFnz54FAORyObn9qVOnAAA3btyQ29nzS5w+fRoAcPPmzZbPRYxSMHcCfT4fIpGI/EXdzNwxHxsba1iu6KCOjIzI12KxGFRVxdTUVMv1bfXci8UiUqkU0um0Zb9CoQCPx9PytUyn0/LaiHPSNM1yHSORCHRdr6pLOp2W+3g8HkQiEaRSKfn++Ph4VVvNz8871qOTwuEwDMOwBJtEe4qcMfF4HIlEwnIfi6BHoxwe7bRZLBaz3JMioOO0iEAikaiZb6VYLMLv91uCJPl8HrquI5fLye3EPT8+Pl73XIiIaHdpK1Didrvl9JtvfetbAB6OLvn0pz/tuM/Ro0fxzjvv4KWXXoLL5YLb7baM/LB79dVX0d/fXxV0KRaL+MIXvgBgK3HsgQMHADwMtmxsbEDTNLhcLhw8eFCW8c4777RzqkREtAuFQiHL0HwxPWBpaQmqqlZ1zkSn0hzUAB525u3s0w3ENNN9+/bJ10QZ9nxgZubtW6XrOgKBQNXrg4ODAGDpoItpH/a61covIvYVxzILBAKOwYRWNTp30eF/5plnHN9v9Vraj+O0r/ibxR5AsCeqNbexGMFhbytxfiLZ7U4QwYsrV67I1+bn56FpGjwej7yOzz33nGU/0Rb37t2re/zttJlZrWCICCbapVIpqKpqCZIAD6+pPXjpdrvliB0iIiKgzUAJAPzZn/0ZgK1/XFdWVrC2toa+vj784R/+oeP2YlqMefWcevr7+xtu08ofDy6Xq+ltiYhod7OvelMoFOR7TjkVurWKiDkng6IoVQGMVjmNAK0VWGiH07GcymxGu+deL6DSy2spiGCDPTi33WvbLE3TsLS0JJ/rui6n3Yi/s/x+v6Vufr9/R+tkzyFiHn3TjEgkAqA6+CKCjvZcN04jqIiIaHdrO1AiAiIbGxv4kz/5EwBbkf1aAY6LFy8CACYnJ7G5uYnNzU05DaYVHo8H58+fBwBcuHBBTv0R9u/fL49vfnzuc59ruSwiIiI7c9BE6MYyovl8HqqqWnJUbPdXcKfRKp0cweB0rHojZGrZiXMHenctBXMQx2lJ6nK5bJmOsxPC4TB0XUexWJR5OuxlmvOTmB+18slshz2HiMhH06pcLgdd1x2TvDqdS62cL0REtDu1HSjp7+/HyZMnAUBOb3FKfmYnRnasrKzg7bffbqvsc+fOyak/X/ziFwEAH//4x2VdLl26JLfNZrMYGhqqShgrkru28wcbERHtTsPDw1U5HYCH0zzsUxQ6SUwbqDXdQHAaJeGkVt6H5eVlANXTE1oh9hXHMstms9A0raXjNXvuZmK6S60cJt28lvY6iHbxeDyyrRotk9zKSJdaKwY6EUGRmzdvYnl52RKUEG24k9N/7HRdbyswYufz+ZBIJBCPx2UASExvahQMa6X9iIjoydR2oASw5iPZv3+/41xnQYweOXfuHFwuFzRNq7miTTP+7u/+DsDWyjnT09MIBAIyeCLKcLlcOHXqlGW6z2c+8xm5n8vlkvlOiIiIGhEra5hX4CgWizJx6U78wi6Izpu50+00PcPj8TSVA2R8fByGYVh+cc9kMjIB6nYlEgmkUilLrpNoNArDMFpeRaTZczcTSUBDoZDlda/Xi2Kx2NVraV69KJ/PI5VKyZVVAMgOvbmtxFQjM1VVLdNkahFTnppN8huJRDA/P49UKmXJqyMSz4ZCIUtwIZ/PNx2Qa5WqqpYAXjKZbHnqjRCLxeQ9IFaGUlW16u/VZDJpuQ9abT8iInryNB0o6evrAwC5Ug2wNf1GvD46Ouq4vfC1r31NjkABtlbHEVnza5VV770DBw7I/ScmJgAAV69exdjYmKWOJ0+ehK7rMunr8ePHLfUYGhqqWRYREZGdWELWnEsikUjs+BKiIyMjcslgUbZ59Q5B1ENsU+vXc5/PJ5cDFtuKZWA7Md0jFovJ5YDNuSbsq9c0o9lzt1tcXISmaZZ8FGfPnpXld+taGoYh28Hv9yORSFiWs43FYkin05a2UlW1ajqIWAnHnGDYiVjJRbSX0/QTs9OnT0PXdaiqWhUgmpmZQSKRkMtXK4qCcDjsOG2pEwqFglxSWVEULC0tWYJKrRIr7IjgSKFQgNfrtdwTpVLJcfWnZtuPiIiePErZ9K/wyy+/jPn5edy6dauXdSKiHbSysgJN03Dv3j3s3bu319Uh6rpr167h+PHjuH//Pvbs2dPr6tATLJlMIh6PwzCMrieJJSIiouZcvnwZ4XAYDx48kK9ta+oNEREREREREdGThIESIiIiIiIiIqIKBkqIiIiIdkAsFmsrJwsRERH1FgMlREREREREREQVDJQQEREREREREVUwUEJEREREREREVMFACRERERERERFRBQMlREREREREREQVDJQQEREREREREVUwUEJEREREREREVMFACRERERERERFRBQMlREREREREREQVDJQQEREREREREVU8ZX7y4x//GP/xH/+B3/3d3+1VfYhoh/3P//wPAMDn8+Gpp55qsDXRk+f9998HAHziE5+Aoig9rg0RERER9dIvf/lL/PrXv7a8ZuklfeITn8Cbb76JUCjU1YoRUffcvXsX//AP/4AXXngBH/7wh3tdHaKu++lPf4pvfvOb+KM/+iMGC59A5XK511UgIiKix8idO3fwj//4j5bXlLLpL4qXX34Z8/PzuHXrVtcrR0TdsbKyAk3TcO/ePezdu7fX1SHqumvXruH48eO4f/8+9uzZ0+vqEBEREVEPXb58GeFwGA8ePJCvMUcJEREREREREVEFAyVERERERERERBUMlBARERERERERVTBQQkRERERERERUwUAJEREREREREVEFAyVERERERERERBUMlBARERERERERVTBQQkRERERERERUwUAJEREREREREVEFAyVERERERERERBUMlBARERERERERVTBQQkRERNSiaDQKRVFa3k9RFESj0YbbBYPBprZ73GQyGSiKgnw+3+uqNE3UmYiIdo+mAyXnz5+Hy+VyfKysrOxkHYmIiLoumUxCURQEg8FeV4V2mXw+D13Xcfr06V5X5bGSz+ehKAoymYx8rdmAVjAYhKIolocwMjICYOs7gYiIdoemAyVra2s7WY+uuXTpElwuFwYGBnpdFSIieoTNzs4iEolA13UUi8VeV+eR0+zICGrd5cuXoaoqfD5fr6vyxCsWizIoUi6X5SOdTluCJZFIBLOzs72qJhERdVnLU2+OHTuGzc1Ny+Po0aM7Ubcdsbm5CQDY2NjocU2IiOhRlc/nYRgGxsbGAABXrlzpcY1oN8lmswgEAr2uxq4QCASgqioWFxctr4+MjKBcLsvnp0+fhmEYDJoSEe0SHc9Rks1mMTQ0JEdtTE5OYn19Xb4/PT0t33e5XBgaGsKlS5caHgMARkdH4XK5MDo6atlejBI5ceKELOPQoUNwuVw4dOgQFhYW5P4TExP/n737DW3kvvMH/ha/JPckCGPuyYbUaDWC0PS8weTIkcTeJV7OY2gLa7wFO5TEm5rlpAdXxxi7kMVXjAOVcRw1DyxY9tZuSC3f1W421xZWPuw0K21Mc03crmlyBY9WbHrbe+T61NyV5I7O74H1+e7MaEYaybJle98vELsezZ/vfOePZj7z/X5GTSdlEJubm2oZMq21bOvr62r5KysrJcvI5/O2LkpSbiIiOloWFhag6zrC4TB0XXd9khyLxRCJRNQTaflYm/17cU4TiURcx3N2BbDepDnn4bZs5zjSdaC7u9t1mdLdSJYTiUTUtNIFScYBgGQy6Vo2ZzcGZz6KSCSCWCymcj8452FdbqX63Ou8ZH3culxYudWjV3m8tpkfEqQ7ffp0yXfOdbS26JEuJtbluXVFca6rc9vI+jnrxW1667Syr2Wz2ZJp/dSBcxpnHcu61LMrnNT15ORkxXEfeeQRAAyaEhHdL+oaKLl69SrOnz+PjY0NALutNqanp/Huu+8C2M1zMj4+rr4HgI2NDQwNDamgwvr6uus81tfX0dHRAQBYXl62BV9+8IMfAADa2tqQSCQwPj6uugrdvn27JLDiZnNzE1/96ldVUEWmHRoaQiKRsI27vLyM8+fPlyzj9OnTuHLlihpvenq6ZFoiIjr8kskkOjs7AQADAwMwDMM1+aRhGNA0DYZhwDRNxONx9Pf3l01Umc1moWka4vG4auYfiURKAheBQAC6rqtxMpmMujF2m0cqlUJ/f7/tptg5ztraGnK5nOc6Xb58WQWIJJgi03Z2dmJxcRGjo6PqSXs0GlXfh8NhALuBgq2tLVu5Ojo6SpaVTCYxPz+vxtM0DZqmIRAIqOF+6nMv84rFYhgbG1PbzzRN6LpeEixxbou1tTUkk8mSckjQS8aLx+PQNK2qYMnvfvc7AMBTTz1lGz41NYX+/n5kMhk1/2QyqfaJ2dlZtU5iYGAAuq6rHBuBQMC2rtFoFB0dHSXlGxsbQz6fV+PJtNbpvabt6OjA2tqarT41TSu7zs7tYBgGxsbG9j0nyPvvvw+gtK7dhMNhaJqGfD6/r2UiIqLDoepAyerqqi2RqzUI8d3vfhcA0Nvbi3w+j3w+j8HBQQC7gQgJIkxMTKBQKCCfz6O3txfAblBhe3sbv/jFLwDsBj1kHJnHuXPn1LIk+JLP51VQpaenB++99x4AYGRkBIVCAbdu3UJbWxsAYG5uztbKQ7oOAcDMzAx2dnYwODiIfD6PQqGgxp2bmyupBxnv5s2btuHpdBr5fB5nz54FAFUeIiI6GiTQ8MwzzwC4dxO1sLDgOr5hGCpIMDo6CuDeDZibyclJ6LquxgV2b3INw1DLlhtEa3eA9vZ29bfcAFvn0dfXB13XcenSJQBQN7CyHjK/cDisbpyt65TL5WAYBgYGBgAAW1tbKlgk6ybTeVlcXIRhGFhZWSkpl/OpvbO7w8WLFwEAmUxG5eY4f/48gPL1Weu8stkskskkUqmU2n7AvYCDbAP5V4YDu/XovPl322ajo6PQNA3T09Nly291584dALCVCdgNXsTjcVveklQqhWQyqbZ1KpVCOp3G4uIipqamYBiGrdzWgBYAlSz2gw8+sC1L13XbdNFoFIB9Xy83rbUOZH/0ahmUy+VKtkM4HEY8HsfY2Jgar729HaZplnSR2QsJejjr2ou0ICMiouOvbi1K1tfXVd6P4eFhNDc3o7m5GTMzM+jt7cXq6ioAoKmpCUNDQwCA5uZmDA8Pq3n89re/xZe+9CUAuy1Nenp68Mtf/hIzMzN4+umn0dzcrAIrb731FgBgbW0NAHDy5Em0trbi5MmTAHYDL8PDw/jjH//oK1ghLUmuXLmCUCiEYDCouum4JbKdmZlBc3MzWltb1bDh4WFVzjNnzgAAf1CJiI6Y+fl5WyJN6X7j1oJAvreq9NQ5nU7bAhDWechN8tramudTeAloOOcBAJ2dnSqPgjwBd2vNAeze/FrXSboUSDCkq6ur6qf6N27cgKZpJXUSDoextbVlG+ZsQSNJ1qWLg0wHoOJT/Frm5dWaQOpNri/y+bzrOjlziKytrUHXddeyVXMt4Lausv2sQS8AePTRRwEAd+/eBXAvKNXf368CK+WCANb6sXJOEwqFSobLtLLPCud+KcfRjRs3XJclgRbndpBteNiuo5z7MRERHU97Tubq1trCGjxwevLJJ8uO29vbq5Lnra6u4vz58zhz5oy6cOjv71ff5fN5/OQnP1HTpLGc5wAAIABJREFUAbtPLqQ1x5UrV/Dss8/66npTTlNTU83THpe3BRER3Q9yuRzS6XTJTbDc/FXqAuJn/sBu64BKeTG88pYIt7e3OYdtbW2pYIkz74O0CJB1km43YnZ2FtFoVJXVT24ICeI4180ryHQYuAUSrHXv90Z9a2sL6XS6ZN3T6fSeyyjdcWQ7yke6JFtJCw4AthZHQGnOmkpdYg6CBFqkq5R85HqPiIioEeqezBXY7Wbj5cMPP6w47vj4OG7duoWJiQk0NTVhY2MDb7zxBoDdJzgSuLh27ZpqqSKJXJubm/H222/j5s2bqsvO8vKyLfdIOXNzcyVv9XE+LSEiouNJnm5bk5QGAgHVBcCr+021rHlDrB/njW05br9NbsMkX4gEPaQLRHt7OzRNw8LCQkm3GzE7O6vyjKTTaV+vA9Y0zXXdDuuTeLdASK1lteYxsX6q6S4irTfcWPOTWD/W7jgDAwMqAGLdXm55bQzDqGEta1NuvQDYcqdYP367xdRCEuZWEwCtFMAkIqLjoW6Bkscee0z9f2ZmBtvb29je3sbExASuXr2Kxx9/HMBuclZJcLq9vY2ZmRkAu602nn76aSQSCSQSCQSDQQwNDak+xdaWGRIAka4x0u0G2H2zzfLyMlpbW3Hp0iWVn+TTTz8tKfP29rZqqSLjvfHGG2pYPp9HIpHYc4sUIiI6GqTbjdsNW7nuN375TQjZ2dnp2RLB2TXESrrsuN1cSs4JazDl4sWLSCaTJd1unKRLhzWo4NYaQbr+HAXSjcWZY8PZtcnancnKmocF2H2QU49gkFuXE+mWIi1LvEhekpWVFcTjcSSTSRUEkK5Gcl21X5z7pSzfrQUUcG87SPehgyT7u5+33gC7AbT9DNwQEdHhsedkrsFgEFevXkVzc7PqMrO8vIxQKIRQKKQSmHV1dalgxPj4OILBIEKhkGrp8frrr6tljI+PqzwhkgD2m9/8pvpeWo8I6XYD7AZi5BW/oVBIJXqVRLDSLQfYfbpx6tQpAMArr7wCYDc3yqlTpxAMBnHq1Cnb64SJiOj4km43kgjUSVpb+Hn9bzmTk5NIJpMl87G+RlVuZp0tAqT7y+TkpEraKaamppBOpzE/P6/KaZ1exrXesMpN6tjYmErYCezWhbP7STqdtt0kRiKRkmCBtIhxdtOJxWL7/gaTarW3t6t8HlZdXV3QNE2ti2wLa0LWSCRSEhAaGRmBYRglrW66u7ur2mck74g1gBMOhxGNRtHf31/y+l/ZTrlczpaXRBLJyn4r29063/3oeuNseSQtXLyCcLIdnN2IFhcXbfvRfrweGNhtpZNOp0vmK8sTEkCr1DKGiIiOB9+BEkmSWs74+DgmJibUuE1NTRgZGVFBirffftv2PbAbuFhaWlLBjhdeeAGDg4Oqe83JkycxMTFhC4a0trbaAh7WwIlz3La2NiwtLakfttbWVoyMjKj5y3y6urps5bAu+7XXXrOtpzNnifwdDAbVMPn/XvKbEBHRwZFWFV5P3OVGTwIRterr60Mmk0F/f7+te4/1jSLhcBiGYdi6AHV0dKhWIX19fep1wNbuQYZhqG4Y1lfCSs6HVCplu2GV7jfAvZwlsvzJyUlbLotoNGp7E4q8qceZY0W62VjXLRQKVdWt6KBcv35dvQ5YPvJ6Y+G2LSYnJxGPx23zCofD6pW91vkNDAxUfFuQlVfy09nZWfW6Yeu8pawSnLDW8+TkJAzDwNTUFPr6+tQrkmX6TCZTXYX5IPVi3S8qtbS5fv06otGord7m5+fr+oYbZ+4YqS95m44zv0xHR4d6NTJwL8DkTKhLRETHU8C0/Aq8+uqrmJ+fx0cffdTIMvkyPDyMK1euoK2tja/gJarC+vo6dF3H3bt3ceLEiUYXh+jAvfPOOzh37hw+//xzPPTQQ40uTsN1d3dja2vr0OYQuR/FYjGsrKwcqW2Sy+VUDpTDGBTbq6O4TYiIyJ+FhQUMDAzgiy++UMP2JZnrfsvn86pLzosvvtjg0hARER1NlbobUWM8//zzMAxjz29ZovpJJpM8ToiI7iNHMlBy7do1ALvdWqRbDxEREVVH8m7sd4JPqo7k7ajXW5ZobyTHzHFsKUNERO4eaHQBajE0NIShoaFGF4OIiOhIm52dteUdocOjnvk5DoLkaDmO+vr6qsozQ0RER9+RbFFCRERERERERLQfGCghIiIiIiIiIipioISIiIiIiIiIqIiBEiIiIiIiIiKiIgZKiIiIiIiIiIiKGCghIiIiIiIiIipioISIiIiIiIiIqIiBEiIiIiIiIiKiIgZKiIiIiIiIiIiKGCghIiIiIiIiIip6wDlge3sb3/ve9xpRFiI6AJ9++ikAYGZmBg8//HCDS0N08H77298CACYnJ/H//t//a3Bp7m+BQKDRRSAiIqL73ObmJv785z/bhtkCJR9//DE+++wz/PjHPz7QghHRwfmf//kfAMC//Mu/4IEHSmKlRMfeH//4RwDA0tISb9SJiIiI7nP/9V//VT5Q8vjjj6OlpQUffPDBgRaMiA7O+vo6dF3Hz3/+c5w4caLRxSE6cO+88w7OnTuHX/3qV3jooYcaXRwiIiIiaqCFhQUMDAzYhjFHCRERERERERFREQMlRERERERERERFDJQQERERERERERUxUEJEREREREREVMRACRERERERERFREQMlRERERERERERFDJQQERERERERERUxUEJEREREREREVMRACRERERERERFREQMlRERERERERERFDJQQERERERERERUxUHKEDA8PIxgMYnh4uNFFISIiIiIiIjqWjmyg5OrVqwgGg7hw4UKji3Igtre3sbS0BADo7u72Pd3m5iaCwSBaWlr2q2iHctlEREROgUAAsVis0cUgIiKiQ66mQMkTTzyBYDCIYDCIq1ev1rtMvhQKBQDAzs5OQ5Z/0N59913s7OygqakJXV1dvqf77LPPADSmnhq5bCKivZqamkIgEKgqOE1ERERER1/VgZL19XXcvn1b/f2DH/ygrgU67FpaWhoSIPrpT38KADh//vyBLvcounDhwn3V2oiI9sfly5cRjUaRTqeRy+UOdNmLi4sIBALIZrO+hh8W2WwWgUAAi4uLFcft7u5GJBI5gFJ5O+z1SURERI1RdaDkRz/6EQBgZGQEALCxsYF8Pl/fUh1i0jpCWrQchO3tbSwvLwOortvN/Uq2EVuyEFGtstksDMNQv3XS9ZGIiIiIjr+qAyVysfjCCy+gra0NAPDmm2+WjLe5uame7MvTfWtApdL3KysrOHPmjPr+zJkzWF9fr1i+StMlEgkEg0EkEgmVHPXChQvY3t7G8PCwbdonnngCiURClTcYDKr5jI+Pq/lYl93T02ObfmJiAtvb22oc+X55eVn9v1LrlHfffRcAfHW7SSQSqtVLT08PPvnkk5rqSda5EdtofX1dLU/WR/KcJBIJWx23tLRgeHhY1XFLSwtWV1cBAKurq6oerMvej21ERMfLwsICdF1HOByGruu4fPlyyTixWAyRSAS5XA6BQEB9/LSmiMVitmmseTMikQj6+/sBAB0dHar7j9dw4SyHs7WGtPbIZrPo7u5W48k85Hv5WE1NTan5RSKRkmmB3UB+R0cHAKC/v9+1DNblpNNpGIbhWm/S7cmrPF6c05RrKVLP+pQ6Kfcwo9w2dyOtXXK5nK3OZTr53queKy0vFoup8lZTLiIiovuCaTE5OWlGIhGzUCi4fpaWlkwAZltbm1koFMyRkRETgHny5EnbeDdv3jQBlHwGBwd9fT83N+f6PQAznU6bhULBnJiYMAGYZ8+eVcutZrqmpib13dmzZ810Ou05bSKR8CzzxMRExWVLfRUKBfPs2bMly5d5eH1kmpGRkbLjyfbw+lRTT/XYRtY6rWbZMp21jmQeXtP29vaahUKhZBrrPrKf2+gofaR+7969axLdj65du2YCMD///HPPcQCY8XjcNE3TTKVSJgAzk8nYxolGo+ocYRiGaZqmGY/HXcd1TifzNk3TzGQytuWVW6bXcLd56LpuappWMg4AM5VKlQyzjqtpmu1vWS/rtIZhmADMaDRasgwZpxxn+az1Y61TGddxyVLCOY3bfJzlrXd9evGzzZ2kbNbyWYfpum5bL+vffpZn3X9l/n7KRUREdNz88Ic/NB988EHbsKpalFy/fh0A8OKLLwKAelJ/+/ZtbG5uqvFmZmYAACdPnsStW7dQKBRsLS8qff/yyy8D2G09UCgUkM/n0dvbC+Be1x831Uy3s7ODiYkJFAoFvP766zhx4gQSiQRu3ryJQqGAQqGgpv3JT36C1tZWW3cbmXZoaMi27N7eXuTzeRQKBUxMTADY7Z60srJSsvx0Oo18Po8XXnjBc53y+bxqIWFtGeFmenraVoabN2+qVj/V1tNh2UayLrdu3QKwW+/pdFptIymTdE26c+cOzp49CwA4e/YsCoUC3n77bduy672NiOh4kZYNzzzzDADgqaeeArDbysSNYRgIh8MAgNHRUQDA+++/7zn/2dlZNR4AtLe3Q9M0rK2t1VzmyclJ6Lpum+/s7CwMwyhp4RKPx9HX12dbtqZp2NraUuNcvHgRhmGU5GZJpVJq2nA4jGg0imQyWXO5nbLZLJLJJFKplKpTWRdgt6WJF9M0bdM8//zzAIAPPvig6nJUU5+6rqs68bKXbZ5KpdDe3g4Aajm6rqtrMgAql04ty8tkMmr+7e3tni2oiIiI7ie+AyXb29u4cuUKAKCzsxMA0NraipMnTwKAuhkF7t20fvvb30YoFAIAvPTSS+rmu9z36+vrKrfE0NAQgsEgQqGQmsaaSNaq2una2tpUkCMUCiEUCuHRRx9VXWqk64Uf1mUPDw+jublZlaOpqQkA8PHHH9umGRkZwdNPP43m5mY1vhu5qDl58iRaW1vLlkFIGVpbW/G9733Ps6zl6ukwbCMAeO2119Dc3KzKcPbsWVy+fFl1L5JtWMl+biMiOl7m5+ehaZq6eZTuN14BAevNOQBomlZ17q69JjVNp9Pqt9lZrjt37tiGO1/ZHolESpYv49y9e9c2XIJG4vTp0wBQt2SoEmByLiccDlcdTHrkkUdqLkc19TkwMFDTMvxu80cffdT2t6ZpJfuc/EaWSzrstTzZz0VnZ6drkIyIiOh+4jtQInkyAODUqVMqmOC8sbb68pe/XHaelb53Ize1e53OeeO7vLyM8+fPq9YbtXIGM5588knX8az5TsqRtwpJq4taylANZz01chsB9u2Uz+fx7LPPYnl5eU+JWuu9jYjo+Mjlckin0yX5oOSmuV4BAWuOEMnXUSu5oR0bG6spr8dh5AwEAJUDC86cIpqm1bTs/arPem7zw7g8IiKi48R3oEReT+vl9u3bJV0XvBKJ+v1eunxYP3NzcxXLWst0b731FgD3bhnVsHZBAoAPP/yw6nmIfD6PjY0NAJW73ZQrgxc/9XSYttG1a9cA2LsD1XLhV89tRETHi3TTSCaTtpvMsbExAN7db6oRiUSwtbUF0zTVR9f1Pc83Ho/b5ikfaxeM/bKX1htu3FozWLsGOWWzWWiaZqsDwzD2VIZ61ud+bfP9XJ5bsIqIiOh+4StQYn097dLSUskNrrQEkP6ykhfj+9//vmp+fPXqVQwPD1f8/rHHHlPLfeONN9TbSOQNLF5vH6l1OjfNzc3I5/O27kROkq8kn8/blj0zM6OWnUgkVMsHyZtRDb/dbgCUlAHYXffvfOc7nuOVq6fDvo2CwSC2t7fL5kOR+e/nNiKi40W63bjdIJfrfuNXLpeDYRi4ePFi2fGc3S3KDZduKdV296mFM9/HjRs3VBmA6gImbjfikhfGuRypN2d3GCFdds6fP+97+cDB1KffbV4v1S7P2UpqbW2t5tY4REREx4WvQIk8yfd6Pa1cmMirg1955RUAu61MpJvO0NAQ/vCHP1T8vrm5GSMjIwCAK1euIBQKIRgMqi4XXmqdTpw5cwbAbhecYDCIU6dOqdYcVtIFZnp6GsFgENeuXbMte3l5WS17fHwcADA4OFhTd5jvf//7AHbzhFTS3NyMwcFB2zo8++yzJXk//NbTYdxGf/M3f6PKJHllJG+O1de//nUAuwlag8EgXn755X3bRkR0fEi3G68bTMlF4ef1v14kOGDNtRGLxUpax0nAwZkU1mv45OQkkslkSdnk9bL10t/fr26sJfFqPB5X38v6SQClnFAoVJILQ5KJymt7RVdXFzRN82zNITlVrAEWPzf7B1Gffrd5vVS7vI6ODrVOi4uLSKfTmJyc3JeyERERHRW+AiU/+clPAHg/qenu7gaw+5aQ9fV1dHV1YWlpyfbGld7eXvzDP/wDAFT8fnx8HIlEwvZ9W1sb5ubm8NJLL9mWbc1rUet0wG5Sz5GRETW8ra3N9pYXMTw8rObf1NSExx9/XC17bm6uZNkTExOqhYdVpfwXm5ubKsjh9QTN6dKlSypYAuzW6Y0bN0rW1U89HcZt9PTTT2Nubk4lED558iQSiUTJeOfOnbPldJEgWL23EREdLxLs9/qtkzeOzM/P72k5hmEgnU7b8l5Eo1HbOOFwGPF4XOXJiMViZYf39fUhk8mgv7/f1mXI+kaeejAMAx0dHQgEAujo6EA8Hi8JXqRSKdV1Sa4P3IyOjqo37gQCARWAuX79OnRdt62HdCXx0tfXh3g8blv/TCZTcX0Oqj79bPN6qmZ5hmGobdDf3297sxEREdH9KmCapil/vPrqq5ifn8dHH33UyDIRdl+DOz09jba2Nrz33nuNLg4dI+vr69B1HXfv3sWJEycaXRyiA/fOO+/g3Llz+Pzzz/HQQw81ujhHwtTUFMbGxuoeeKHGicViSCaTsFwGEhER3ZcWFhYwMDCAL774Qg3zncyVDpZ0RXnxxRcbXBIiIiIiIiKi+wcDJYdQPp/H7du30dTU5LvbDRERERERERHtHQMlh1AoFEKhUMCdO3cQCoUaXRwiIrrPjY6OwjRNdrs5RmZnZ9nthoiIyAMDJURERERERERERQyUEBEREREREREVMVBCRERERERERFTEQAkRERERERERUREDJURERERERERERQyUEBEREREREREVMVBCRERERERERFTEQAkRERERERERUREDJURERERERERERQ84B/zv//4vDMNoRFmI6AD8x3/8BwDg9u3b+OyzzxpcGqKD9/vf/x4AsLW1hQcffLDBpSEiIiKiRvrP//xPmKZpGxYwLUO6urrwr//6rwdeMCIiIiIiIiKiRrEGS2wtSs6cOYN///d/RyqVOvBCEdHBuHXrFmKxGFZWVvCXf/mXjS4O0YH7+c9/juHhYXzwwQd44IGShpVEREREdB+5fv06xsfHbcNKrhD/4i/+AqdOnTqwQhHRwfrv//5vAMBf/dVf4cSJEw0uDdHBu3PnDgDgiSeewEMPPdTg0hARERFRI33yyScIBAK2YUzmSkRERERERERUxEAJEREREREREVERAyVEREREREREREUMlBARERERERERFTFQQkRERERERERUxEAJEREREREREVERAyVEREREREREREUMlBARERERERERFTFQQkRERERERERUxEAJEREREREREVERAyVEREREREREREUMlBARERERERERFTFQQkRERERERERUxEAJEREREREREVERAyVERERUlVgshkAggEAggFgsVvL94uIiAoEAFhcXG1A6qqdsNutrW8o+kcvlDqhke5PL5RAIBDA1NbUv849EIuju7j7QMkxNTSESidRlXoeN17mGyK9AIFDxmGwEP+eKg8LjzI6BEiIiIhdTU1OH9sKqkRYXF5FMJpHJZGCaJmZnZxtdJCICMDY2hosXLza6GERExwIDJURERC4uX76MaDSKdDp9ZJ6SH4Q7d+4AANrb2z3H6evrg2ma6Ovrq3r+h+npmpW0mDiu/LYc8TI7OwvTNBEOh+tcMvJDttv58+cbXBK6Hx2FlgimaeL69euNLkbV9qP121HYXocBAyVEREQO2WwWhmFgZGQEALC0tNTgEh0e+Xy+0UUgIocbN25A0zQGqoiI6oSBEiIiIoeFhQXouo5wOAxd13H58uWScWKxGCKRiHraIx8/T+StOT7cnuzIvOUpv3O+kUjENr1bixfr94FAANlstmK5JLeI27xlPZPJpG3+bst2a50QiUQQi8VKliHTy3DDMJBOp13L7aw3Z113d3eju7vbtgzr9M51c5LuVtayea13NU/3rNvRax9xls05f1k357xk/bq7u8uWzVnv1n2uu7sbHR0dAID+/n4EAgHXXBfW+ne2+pG6c+4vi4uLtunc5utcJz/jetWhrJfzuPSTP0Xq2Mrraa7zGPQ67r22VznOafy0sEomk+jq6ioZ7qwHa53KctzWzbpM675V730zEolgamrK1zFSSz15Hete43ntK5WOz0q/B+XyOlVTB85zlHPdqjnuZNmV1ntqaqpkuc7yALv7oNd53e/+71yO2za1ltn5vfM3wjmd13nL+ZFtVGnftip3jhXVng9isRg0TQOw27XOa70qLde5voD79vJaFzfO84Kfc9uRY1pMTk6akUjELBQK/PDDzzH9pNNpE4B59+5dk+h+dO3aNROA+fnnn3uOA8CMx+OmaZpmKpUyAZiZTMY2TjQaNQGYAEzDMEzTNM14PO46rnM6mbdpmmYmk7Etzzlvt7Lpuq7+lmVKGWQc698yP+swJ7eyu00nw8qRdUqlUmqYpmkmAFPTNDVM1/WSeWmaZls/r3HdliHjWJdhmqZpGIYJwIxGo57rIdtZ1tUwDFs5/Ky3G1m2sy7Klc1tn3BbNxlmnb+sh3V5btvWa5nW6azDreVxK7NzP5RxnOM591/nct3m7eS2j8h8MpmMmoeVc/+RcZx17Jyv23iaptnq0q1+3fZ353hu83bbfl7HhLOMXtvOuY7WMjmPced21HXdNl+38u1l35R6sm4bP/ur33ryOo86x3Huk/K33+PT7ZxtHSbjuk3rtw7czsde+3Wl485tmNdviXM8TdNKzrFux6z1mLRO6yUej9vm4Vb3zmM0Ho+rfUDKb12+dVrn/uFc33L7ttt2tdZTNedY67Z3q18nt/OEdXrrtH7On25lK1cet+3tHOZ1nXSU/PCHPzQffPBB2zAGSvjh5z77MFBC97tKgRLnD77XhYdX8MHrgqYc5wWczNt54+O8ELROX+7CyOsmWFS6ECsXYPC7PLeLLa8L6XI3wVbRaNT15qzSeNZ1k3WOx+NlL+JrDZRI2b2CVM4bV6/luQWV3C7sTbN0m7ltW2dgqFKgxDm9s069AiXO/dK5D7ttG6/t5TUPr2Fu61suSOE3UOLkFUxxK4+1Trym83PD6ef7cutj3c5yY+RnXZ3rIMupdd/0U09e01VbT24q7Td+j0+33wOvY8d5jvNTB17Hp3Ob+T3u/P6WuN3EO88dzrI6x9sLZ/1rmua5f0aj0bIBB7d6d5bZOcxt3/Y6hiqdY932JZlXLYESr98kt4CXU7lASaXt7bb9Zf3Krcdh5xYoYdcbIiIii/n5eWiappKVSvcb6Xrh5MwJoGla1Xk8vJpFO5Ohrq2tQdd11+nLdSt45JFHyi7/gw8+AAA888wzJd/puo6VlZWy0/vlXE8p1+9+97uy073//vsAShPIhkIhGIZhG2bddmJlZcW1W4J1Wz3zzDMwDKPur1eVsmia5rqN0um0a9lOnz4NALbmzNIEWzz66KO2f63jybJkeue2lWnu3r3raz1aWlpsf7vVvZtQKOQ6n70kSJaEpdauCZJ82YuzjurJKy+I27Fa7njK5XIwDENte1HpOPEank6n0dnZ6VpWScoMAKlUCul0GpqmQdM0jI6Ous5POPdDt2F+9k1xUPXkZm1tzXV9RDXHJ2DfF6Q8zmMnEolga2vLNqxSHcg58KmnnipZnqZpWFtbsw2vdNxV81vi3L/9njukrH66PnlxLrurqwtjY2Ou3QtPnz6NdDpd92Tgzv3DeQz5PcdubW2V7Euy/WqxsrLiug2lHPK7Xq1K29srH1I4HC7Zr486BkqIiIiKcrmc64Wx3GzUqw+us29vOp32Nd3W1pYtf4fX9M5+8n4vxNwCKochOaQEM5zrPTY25mt6wzBs/bHlY73Rb29vRyaTgWEYvnNa+GWaJoDdC2633APOmxqgfjf2ctPY0dFhW3fJSdJozz//PAzDUMdWLpdDMpks+5pbubm4ceOGmsYwDDz//PNqHGcugHqvb7k8EbWSGxHJE1Pt8Wsl+641r4FXWfv6+tQyJicnS7535kDwEyDbT/WsJ8A7UC328/isltv5uJbgrt/fkr0Ih8NqX6kmJ4e1PM4HFLOzs4hGo2q/tgZF+vr6VNDPz3F58eJF2/wXFxdLziN++D3H7sdx47Y/VHowsldyvnXuO14Pk44yBkqIiIiK5AmM86ZabsgXFhb2vAx5mmjudn+FaZquT4W86Lpum1Y+8trDbDYLTdMQj8fVd34v0NyeEB6mVyO7rbcEISqJRqOu087Ozqpx2tvbbfOs9carXNl1XUd/f7/thsGtBVI1T8X9yGQyrutf7jXPB0GelMtNhqZpiEajFVs1WG9ylpaWbC2JFhcX0dHRgVQqpdYzk8nUpbwShHTuT9WodGNrLbf14/W67XI37dbzgPVjrd+pqSkYhgFN09Df32+bXhKBWqet53FRTr3rqVYHcXx6cdaB2/m41qf4lX5L6iEcDtv2m46ODs/flO7ubiSTSVtZ3FqJyavIJShiTV4qr6aX37xy+5C0wpHf+f7+fqRSqZrPiY04x7rVpd9WgnuhaZrrurJFCd2X8vk8gsEggsHgsX415BNPPIFgMIjl5eVGF4WIGkC63bhdAJTrfuOXPIkp97S8nK6urooXInLjKd0T/JAm0jKtlVfT8/3idmErzdxrDdroul71tKlUyrZMt6fKtZDAjNxoeXWUoqqwAAAgAElEQVQxkNYSe73Ilm1b6cZuv59CellbWysJOliDV15k/85ms1hbW7MdU1J31d4wuzUddzZfl7/9PHV2ezqfTqc9W2nJtrZ2i/HDrcuJtLqpdM2Wy+UwNjaGeDyu9kO58ZRg3sDAQFXlqdZB1ZObzs7Osq0o9vv4FJXqwKs7hfymOLtYVeLnt6QafoJn8/PzALxv5NPpdNnuc059fX2e5/ZwOIx4PF72IUE6nS4JttUSZPN7jnXbl2T7leN1HHR1dbnuN17dtKz2Euzs7OxseKuyg3JfBkq2t7dx4cIFdePPm+LKrl27BgBoa2vzvFg86vW6vr6O27dvAwCee+65fVtOS0sLgsEgNjc3AQCbm5sIBoMlfViJ6GBJtxuvIIbcLPh5baUXueCx9iePxWK+mzuPjIzAMIyS1//JK3GBe33RrRfUlS6KwuGwas5sveiUZs1+blzrJRwOl9SHdA1wBmympqbKvgpRXLp0Cel02vXVpNZXmFpbechFvWwzqVdn03F53aJXk3J5taZYWloCcK8VwKVLl2AYhm2cxcVFJJNJFazZC9m2/f39tm2bzWZtQSlZT7kBPCgDAwOu3aIqbVfJHTQ5OYl0Om0LDMp1irU7j5+uN6dPn4ZhGOpYymazJS0sZLtZg4rlnlpbv5N1GhkZ8Rw/Ho9jbGzMtj9JKxYvXttucnISyWSy5Jxl7VYmrx8dHR1VN5fJZBLZbFYFYKzz7e7u3pebpP2qp0pdMGS/se5v2WxWnfv2+/i0KlcH7e3tqjWaVVdXl6+8Mk5+fkuqLbszCCCvgxfSItMrKKtpmm0eU1NTtocTuVzOVkfymy37vzO/yuXLl8v+9sl50XnuqXb9/Z5jBwYGbOeXXC7nO2DhlodG9g3nviuBz3LdZt22l1+yr7m9mtktd8xRVlOgRJ66B4NBXL16td5l2neTk5O2m/hPP/20ZJyVlRV183qcW1D4NTc3BwB48cUXPcfxU6+H2Y9+9CMAQG9vL5qbm/dtOTs7OwCAzz77zPavDCeixpAbWK+WGPKkSW6ga2UYRkkfar9P0aQZs/PGcmBgQJWvr68P8XjcdgHop9uB9P2WPBqBQEB1ETpIEpRx5gnZ2toqyZWQz+d9BXHa29thGEZJvob5+Xn1RPj69eu2PubpdNq27vL0UsbxezE9OjqKtbU1WzeuTCajliu5Uaxl6+/vRyaTqVsXgtnZWcTjcdu2HRgYKHminEql1L5V74SIXiQxoPWpruSUqRQsGRgYQDqdhq7rtpuC0dFRRKNRW3ceP8eA89gZGBgo2f/b29uRSqVs22tyctL1hicajWJyctLWh98wjLI3MKOjo0ilUrZ9UeqnHLen1X19fchkMiU3g1KGxcVFpNNpW14SuQkaGBhAOBxGJpOxnW86Ozur6irohwS8DqKenCSPhnUdOzo61HnlII5PwF8dXL9+Hbqu27alW2JYv+td6bekGrOzs7a8FTLs0qVLvrfr1taWbR5ra2uIx+O2MlvrSLrpybZaWVmxneNknl5WVlZKWrOlUin09/dXHSzxc46VHCpyPGqaBsMwfB1P8/Pz6rpBgi9e+24qlaoYOHPbXtWQbjbWfScUClUdsDvsAqbljPLqq69ifn4eH330kecE6+vrtg3a1taG9957b39LWWc9PT1YXV3FyMgIxsfHkc/nS1pJrKys4Pz582hqasKNGzeqanJ79epVDA0NoampqS7NAuvpwoULWF5eRm9vrwp+VLK5uYlnn30WAHDr1i3PuvBTr4dZS0sLdnZ2MDc3h97e3n1bTjAYBLDb5O/pp5+2HVOFQmHflitkeXfv3sWJEyf2fXlEh80777yDc+fO4fPPP8dDDz3U6OLQEReLxbCysnLs+mYfBHmimkqlSm7OIpEIIpFIXfMlHGeLi4vo7++vGGA4bLidWQeN4HW8yDkpHo8fu5t+Km9hYQEDAwP44osv1LCqW5TIU3dp7rOxsXHkWlx8+OGHAO7dsLrdzHd1daFQKODOnTtV3+zLze5hbCEgZaqmbG+//TaA8t1uAH/1elitrKyoOtnPbjdERHR8yBta9trK6H4lNyjO+pO3T+x3bozjRAJN0jKOiLxJFzrn8TI9PQ2guhxfdHxVHSiRHeqFF15AW1sbAODNN9+0jZNIJBAMBpFIJDA8PIxgMIgLFy7Yvrd237lw4YIt2LKysoKenh6Vy0HGkZwOXra3tzE8PGybd09PD9bX1wHsPkkPBoPqhnh8fBzBYFB9b+WWN6Knp0eNL+slZdve3gaw22JjfHxcTSPjWOdrzePxxBNP2LovSRkvXLiARCKBlpYWWxlWVlZw5swZNf2ZM2ds5Zc6kLo7c+aMqreWlhasrq4CAFZXV1X9VCLdaby63VSqV9me1nWemJhQdea2bi0tLWoc2RbWvB7Avf3Mum+5zcMPieL76XZj3X+d289Z/9b1ICKi42V6ehrRaLThb445ykzTLHlN6X50bbgfxONxXL58udHFIDr03LpUSfcg0zSPVKss2j8PVDOyPHWXlgVnz57FxsYGlpeXbcEBMTMzU9KCYXh4GFeuXLGNt7y8jNXVVfzqV79Cc3MzksmkuqF3juPVlWV7exs9PT3Y2NiwDV9dXcXq6iqWlpaq6mZQLm+Esy/Z8vIydnZ2VMsLL5ubm/jqV79qm+ft27cxNDSEQqGAoaEhW7mdyVCXl5dtQQFgt0WPruuqG8e3vvUtW91tbGxgfHy8Ytm8WBOcnjt3znWchx9+2HN6tzLfvn0b09PTWF1dVd22pLuS2NnZwfT0NL7yla/Ykj7JdrGS+lxfX7dFgGUef/u3f4unn37as4zb29sqAOhMkuUkXZes6zI0NITOzk4VeLLug1KGjY2NmrcBEREdTgeZ5PY4O+g8OMfV6OjokesuwC5rrINGkdfBE3mpqkWJPHWXlgXSGuH27duurT12dnYwMTGBQqGA119/HZubm7hy5QqampqQTqdRKBRw69YtnDx5Ejs7O3j33XcBAN/85jextLSEfD6PQqGAmzdvqvm5tf4Adt/KIjeoznkDu/lXWltbbTkgpGzlbqLdNDU1YWlpCYVCAYODgwCgghNzc3O2VgyFQkEtUwJHg4ODat1kXGe+kJ2dHfT29iKfz+PWrVsAgJdffhnAbouGQqGAfD6vcmlIlygph5QvnU6jqakJwO5r1M6ePQsAOHv2LAqFQsWbdz8JTsvVq5RZ1sW6zhsbGyrx2He/+13bePl8XtWtX7/4xS8A7HYRkvrxM493330XOzs7aGpqKvsKzM3NTRUkkXW8deuWalkl+2BbWxtu3bql6h/Y3S5HrYsaERERERHR/ch3oGR7e1u1BJF3dbe2tqpAhNsNd1tbm2olEAqF1E38zs4OdF1HMBjEqVOnVIsFeUvKc889h+vXr+O5555DMBhUiUTL+clPfgJg90ZbAh+hUAjf/va3AaCkpcleDA8Pqxvqb3zjG2p4pRthucm+cuUKQqEQgsGgaokjdWD12muvobm5GaFQCOvr66rlxNDQEILBIEKhkJqnTC/bY3BwEIlEAidOnPCdtNWNtLT42te+VvW01jIPDw+rQIskugWAjz/+2HW85uZmzMzMVJVU9Utf+hKA3W3d09ODX/7yl5iZmakYCPvpT38KoHJ/RNl/m5qabPv1e++9h1AopPbBjY0NnDp1CsFg0Nb66Pe//73vdSEiIiIiIqLG8B0okdYeANRNYDAYVDfozm4iAKp+xark8njuuedw5coV1+BBJU888YTt7y9/+ctVz6NWe7kRlsCBVTX1J9O/9dZbqoXO+Pg4Tp06VfMrnOuZ4LS1tdX295NPPulrvGr09vaqJMOrq6s4f/48zpw5UzaAtb29rfZdv69C9Cp7JeW6KBEREREREdHh4DtQIk/dvdy+fbvk/e1eTp48qbqkWD8vvfSSLSeGdKGp5pWpv/71r21/f/LJJ76nPShzc3Ml617Na4SlW4f1I61GWltb8etf/xpLS0uqm83Q0FBN3T6qSXBaibNrlrwhp9J4APDYY4/5Xs74+Dhu3bqFiYkJNDU1YWNjA2+88Ybn+BIArNTtxsqr7GJwcNB1/95LEIiIiIiIiIgOhq9AifWpu+S+sH6kNUOl938//vjjAHaDKtZWDvKmEudNsjyB99MiQvJELC8vqzwm+Xwe3//+9wGgqi4c9bS9va2CFFLGN954Qw3L5/NIJBIlCU+drMGCN954Q71FRd6iI3Ukb8Hp6urC66+/rqZxtnaR6csFUPbS7cZZ5pmZGbXMRCKhWqqcPXvWdbzt7W1MTEzg6tWrtiCN5ExZWVnBzMyMbXmJREK9CWdoaEh1pSnXMslvtxvg3v67s7ODRCIBYLf+enp6sLm5qbbv0tKS2gfl2HG2dCIiIiIiIqLDyVeg5Nq1awC8n7rLTWald7d3dXWpm0nJsxEMBnH+/HmVQ+Sxxx5TgZdnn31W3fRW8sILL6jpnPlPmpqaMDw87GdV60JacgC7OSxOnToFAHjllVcA2HNYnDp1yvWNQU7Nzc2qW4k1x8mzzz5r6/Ykb8GReQO7LXgkT8fXv/51NV4wGFTJVp3kTT5NTU01B5msZV5eXi7JyzI4OIjW1lbX8UKhkHqXOXCvTq9cuaL2GTfj4+NqOZJT55vf/KbruPl8XtVdpUAVYN9/5RXIp06dUrlLZB+05uAJhUK4cOEC/vCHP1ScPxERERERETWer0CJJKn0ujmV3A7Ot9K45d14++23MTIyopKOArutPdLptLpp/tnPfqZuSJuamjAyMmILPrgJhUK4ceMGBgcH1XLlJv9nP/uZrduDfC85UcpxWwfrdNa8E/L/1tZWjIyMqGml7F1dXVhaWrIFHk6ePImJiQm89tprFZc7Pj6ORCKh6gbYbaUyNzeHl156CcBusMr6fW9vL9566y3197lz52zLP3PmjOt6V9PSwllma/2Mj49jbm6upMwTExO2FiHj4+OYmJhQ+4Vsd3kl8T/+4z+qemxqasLg4CD+6Z/+ybbcF154wbb9pW69Aj1ra2tqPL/dYt5+++2SZSQSCbS2tiIUCuFnP/tZyT44ODiIGzdulMzLmbPEbZsTEYlsNotAIIBcLtfoohAREREdawHT8gLpV199FfPz8/joo48aWSZqsO3tbYRCIQC7gRe/uTuOmjNnzmBjYwMjIyO+WvUcF+vr69B1HXfv3sWJEycaXRyiA/fOO+/g3Llz+Pzzz/HQQw81ujhViUQi6OrqwuzsbKOLQkRERHQsLCwsYGBgAF988YUa5juZK90/aklwetTk83nV3aunp6fBpSGiwyKXyyEQCGBqaqrRRXF18eJFJJPJRheDiIiI6FhjoIRK3Lx5E8BuDpHjSt5c09bWxrfRENGRId0hs9lsg0tCREREdHwxUEIlZmZmUCgUjnV3lN7eXhQKBbz33nuNLgoRHRKxWAyapgEAxsbGEAgEEAgEbONEIhE13CtfiPX7QCBQEtSQFitTU1O28dymd04bDocB7DYRJSIiIqL9wUAJERERgNnZWRiGAQCIx+MwTROWNF4IBAKIRCJqeDweh6ZptmBJIBCAYRhqnGg0io6OjpKAytjYGPL5vG0ZEhyR6b2m1XWdCV2JiIiI9hEDJURERBVIzpLr16+rYaOjo9A0zfYqc9M0VasPAHj++ecBAB988IFtfrqu2xKyRqNRAIBhGGp6r2nD4TC2trb2vE5ERERE5I6BEiIiogrW1tag63rJ8EgkUrZ1xyOPPOI63BpMAaDeNGYdLtPeuXOnZHpp+UJERERE9fdAowtARER02G1tbcEwjJKcJQBsAZRcLqfynBARERHR0cQWJURERD7ouq5yilg/0h0nm81C0zRbfpP9avnBYAwRERHR/mGghIiIqMjZJUZ0dXVVzAvy/vvvA7j3Ct/9ksvlEIlE9nUZRERERPczBkqIiIgsNE3D2tqabdjIyAgMw0AsFrMN7+7uxuLiIgCgpaUFgD356n60/Ein054BHSIiIiLaOwZKiIiILObn55FOp9XrgIHdliamaSKZTKrX+AYCAQwMDKCvrw8A0NfXh3g8jv7+fvV9JpOpa9my2SwA4PTp03WdLxERERHdw2SuREREFu3t7TBN0/U7r+FidHQUo6OjZadxm4fbdBKcsZLuPRKcISIiIqL6Y4sSIiKiI+Ly5cuIRqONLgYRERHRscZACRER0RGQzWZhGAZGRkYaXRQiIiKiY41db4iIiI6Acl2CiIiIiKh+2KKEiIiIiIiIiKiIgRIiIiIiIiIioiIGSoiIiIiIiIiIihgoISIiIiIiIiIqYqCEiIiIiIiIiKiIgRIiIiIiIiIioiIGSoiIiIiIiIiIihgoISIiIiIiIiIqYqCEiIiIiIiIiKiIgRIiIiIiIiIioiIGSoiIiIiIiIiIihgoISIiIiIiIiIqYqCEiIiIiIiIiKjoAesfv/nNb3Dnzh389V//daPKQ0T77E9/+hMA4PTp03jggQcqjE10/Pzxj38EAJw6dQqBQKDBpSEiIiKiRioUCvi///s/2zDbXdJXvvIVpNNpfOMb3zjQghHRwfn000/x5ptvoqenBw8//HCji0PUEO+99x7OnDnT6GIQERERUYNtbm7i7bfftg0reZzc3NyMsbGxAysUER2s9fV1vPnmm3j55Zdx4sSJRheHiIiIiIioYRYWFvDOO+/YhjFHCRERERERERFREQMlRERERERERERFDJQQERERERERERUxUEJEREREREREVMRACRERERERERFREQMlRERERERERERFDJQQERERERERERUxUEJEREREREREVMRACRERERERERFREQMlRERERERERERFDJQQERERERERERUdmUDJhQsXEAwGcfXq1X1bxubmJoLBIFpaWvZtGUTUeIFAAN3d3ervqakpBAIB5HK5qucViUQQiUT2XKbFxUUEAgFks9k9z+swyGazNddpObFYzDZfWc7i4mLV87HuA3T81OvYPAoCgQBisViji7Hvaj3eD1okEsHU1JTt70aeb6ampu6bY4FoL7q7u30dK9VeQ8i5y3peqLdcLnfofgukTEf12tZ3oGRiYgLBYFAFElZWVlzHu3r1qhovGAxic3OzLgXd2dkBABQKhbrMz81nn31mWxYRHQ5yc+z8HNUT7/1gcnISuq4jHA43uiiunn/+eaTTae5Dh0y5G8rjFkyk42lxcRGGYeD8+fONLopy/vx5GIZx6ANMVLvu7u6SayRu7/2Ry+WQTCYxMDBgGy4P3eSzHwEL+R2Uz2F/4BMOh6HrOiYnJxtdlJr4DpRsbGyo/+/s7ODVV191He+73/2u7W8JPvjV0tKy7y1HiOhoMk1TfaLRKDo6Omq6aTJNE9evXy87jt8ngFtbW9ja2qq6DMdZLpdDOp0uuYioh9nZWZimuecATHt7OzRNw8LCQp1KRofNUTs2JSBMjVGvG5v5+flDFySWm5X5+flGF4XqTJ7YA/ZrpEwmg/7+/ppvpP22rLgfLS0tAQD6+vrUsFgshrGxMRiGobZBLpdTwar29naYponR0dGalzs1NYX+/n5kMhm1jHA4rFqphMNhmKaJ2dnZPaxd/Q0MDCCdTte9hfFBqLrrTVNTE4DdwEk+n7d9t7y8jJ2dHbS1tdVcoINoOUJER9/IyAgA4P33329wScjpgw8+AAA89dRTDS5JeRcvXvRsHUlEVIt0Oo3Ozs5GF6OE3KzQ8dLV1QVd10se/rS3tyOVSiGdTrNlSZ2tra1B13XbsGQyiWg0aguQXr9+3RZM2avLly9D13W0t7erYbOzs3sKvhwEqQO5NjxKqg6UPPnkkyoQcu3aNdt3b731FgDgxRdfdJ12c3NT5RoJBoN44oknVMsRyQ8ixsfHEQwGkUgkbPMoFAqYmJhQLU8uXLiA7e1t2zgrKyvo6emxLWdiYqJkvEQioebT09ODTz75pNrqIKJDpLu7u+TpiTxt8dtfXJo1GoaBdDpdsZuP86mLTJ/L5RCJRGpqgmltQus1nbOJrbPfq9+6kH6z5ZrqOpdVyfz8PDRNK3mi6mwy6va0yjmOs3mp33wyzvm41WNLSwsMw2BXjiPMuZ2t23Ivx6azCbWf49h5LDn3b+syrceaHJfJZBLAvePNepzW0u1Q5lvp+HZrsl+u2X53dzdisVjJ/J3nIBlm7TrpVVde62Sd1u18IWVwltXrPOFcZi6XU+MCuzc71u+s83IOdyPleOaZZzzHcZa93Pq51ZPb99ls1rYd3X7fHn30UVsZ6eiTbl6XLl1y/b6vrw+aptlaEkUikZLzmDX3j/w/nU7DMAzP85XXcS/LKHfejMVirvu7c1y5jrGe5+U8Uel86+f4co7j59iQFrNuwdBy5wbn9Zcz35p1ncqVo1IrSa/6djvHS1lkn3D+nkrZrNvTzzWi27ncuR8eFTUlc5VAyNzcnBqWz+exuroKAK47z+bmJr761a9ieXlZDbt9+zaGhoZKgiHlTE9PY3p6WrU8WV5exre+9S31/fLyMs6fP6/KIsuZnp5GT0+PGjYxMYHx8XE1n9XVVQwNDfkuBxE11vT0NADUPZLe19cH0zShaRp0XVfNG60RfD80TcPk5KRqAptMJn0l8ero6MDAwIDndPJjG41GbU1sx8bGqk4Slsvl0NHRgVQqpeZlveByW1Y0Gq0YLNna2kJXV5dt2OLiIubn521Ngw3DsF3QLy4u2pqVZjIZAEA8Hq/YVcrKrXlqMpksuXiQFi+/+93vfM+bDo9sNluynf1096p0bE5NTdmaUKdSKQBAKpXybNKczWbR0dGBeDyuynLx4kXbhah1/4/H4+jv70c2m1XNpaPRKIB7zefl3BYIBGzNuaXbYbmL8mw2C03TbOVJpVLo7++3Xeh2d3dja2vLNm8AMAyj7JPQZDIJTdNsdTQ2NlZyET02NmZbJ2D3OHeed+LxeElXylgshmQyqZYxOTmJjo4OzzJVEggEbOf0TCaDWCyG0dFRVTbruS4cDmNxcdG2LxiGUTZYdufOHQCo+Hvhtn2cyYez2az6LZCPpmmuN3wdHR3o7OxUZUyn0yXllDJJGenou3HjBgDgkUce8Rynq6urqpZE0kVE13Vomqb2PTkfOPfbtbU127lIghLW33m331+/0uk0Ll26ZLsWq3S+9XN85XI5aJpmO+YvXbpUsa7u3r0LoDQYGo1GXY87L/JbYh1/YGAAuq57nnsvXrxYct1UiZxHredaAMhkMrbr52QyafuN0jQNmqYhEAio4dbfLeH396mrq+tIdYUVNQVKJBBy+/ZtrK+vA7jXuqS3txehUKhkmpmZGezs7GBwcBD5fF61DAF2Ay6tra227jYTExMoFAolwYumpiYsLS2hUChgcHAQAGxBkZdfflmVw7mcjY0N1cxabrJkvJs3b+6pyxAR7T9rxFqaOR5WqVRK/di1t7dD13Wsra3tebpYLAZN02w3bO3t7YhGo+qmxC/5wbd2kbH+kE1PT5csS/5fLihjGEbJ70BfX19JsEMuLIT07ZcL+mrqzWpsbAzxeNx2s5JKpZBMJm0/3tLihTcOR5MEuKzb2c+FWKVj7PLly7Ym1PJUVm5K3EjyYuuF5+joqPp7a2vLVk5J9Omn66AzJ8/zzz8PoHwzZrngtpanr68Puq6rYKg8GbUm2ZMujX6aSBuGUVJHbk8MncGl/v5+RKNR283A6OioCmBJ2ZLJJOLxuG0ZcpFfLTlfWc9B7e3tFQOwd+7csbWOC4fDZafJ5/PQNK1iedz2l9nZWVvC1fb29pL9WW6UnDch8XhczSscDiMajbp2K9Q0raTbPB19B5UPR/Y7a5Dg+vXravly0289RsLhMOLxeMnvbzWc55VK51s/x5fcB1rPT35+P+R3xxmcmp2dha7rqlWan2CGtWvU1NQUDMMom19kdHRUXTd5tZJxkvOodR5A6W+Ppmm27Xbx4kUAuwEV+e1y+93y+/sUCoVgGEbF8h42NQVKQqGQCir86Ec/AnCvdcnXvvY112mkJcmVK1cQCoUQDAYxPj4OYDfg4tfw8LB6UvmNb3xDDd/e3sb6+rpqITI8PIzm5mYAwNDQkMqt8vHHH6vgjnW81tZWfO973/NdDiI6eM5EZclk8tBm/JZmziIcDvv6Ea40XTqdLmmtAQCnT58GgKq6kciPn6ZprhcwKysrrssqd7FdzYWQW1B9r2T9nU97pF4lOGTFG4ejSQJ8lVo4OdV6bJaTTqerulnZy41NuafHwO4xaBiGa+vezs5O1xvtarl1rXN7cu0MZsvxKecrr+m9ntr66dLiZm1tzVcAw+mZZ56BYRi+k1r6rVe3pvt+ArctLS2+hpe7KTmKCRXpcAiHw9A0zTOR/srKSknuDuDecVtLjgpN00paaFU63/o5vnK5nGtZ3YZZlTs+r1+/rlpjSDCj3DWZBK/7+/vVA55Kvw2S0F7XddU1qh7d6ZznODmnWH9vpGzlrpn8/D4dJTUFSgDg7//+7wHsZv5dX1/H7du30dTUhOeee67qeUkQYy9++9vf2v5ubW21/f3kk0+6Tuccj4iOhvb2dsTj8fvyFa9uAQbnzZ9f0uRcmlhaf3Clyayz/2mtTwWcff2dLWCcmdGz2WzVb8+Rpz0dHR22Ze2lyT4dTuFwWO2L1eTuqOTixYsqXwhwLw+APCnzUinwVy7XRDnOfvR+b/jdbqqtw9zehCJPWeuZgNCN2/nKWn/70R2uljd4tLe3I5PJ2HI17PVCX6YfGxuruE84cwb09/fvadl0/5EuJvWytbWlgiVuOUrcbvQr3TzXwut86/f42s9uIFtbW+q3qdL1i7W7czVdySUoA6DseSEajeLy5cvqb9le9Xp9ea2/T0dFzYESCYjs7Ozg7/7u7wDsVrq04vAyNzeHQqFg++xHs+fNzU3b3x9++KGv8Yjo6PB6unbcuUXz93JjIa105IHEc4wAAA6cSURBVMmG9WbT2n/X+vFqHur1NMTt1XnOZvTStUGCNtIHuZabNmveCuvHLXfAfrRsodr4uZl1PuGy9qmulLvDD+mGY705TaVSVecpEm65fuQCtxK3vvZ+A5Vu11bOYel02pa0WnKC1MrvRbLb+eqwtuySnA3WoLKXaloKWbep9SM3S265liRfzl4cptcW0974aUm6tbVV99f8Sl4j6fJrfcDidv51a8m53yodX7Xye90pXeAqnU8HBgbUOaWWPC5yHeX1u7eysmIL9I6NjSGTydTlPFDL79NRO//UHChpbm5Gb28vgHtdZ8o1gZeuOm+88Yb6Mczn80gkErhw4ULJ+JKvpJofzscee0z9f2ZmRr3lJpFIqC45Z8+eLRkP2A2YfOc73/G9LCJqPLnolxsntyb0tb6OrN4XFvWi67pr33MJMsjNXC11IcEPuYnRdb2mm063rjnSJLfcj+TKykrJxU21FzXVJGiVdbtfA26HUWdnp61VkdWNGzdcu3wIaRmx14vydDptSzRqTWTopVwuHTnuammRIn3Bq3n6J83j3cojXVDC4bC6ubIGL539zb24dd9ZWVmpeN6U85Nbvhdrs305jp396J1/e3VXca677Ffl+AnySKDC67zopx++bJ9K17eyrWoN0Llxyx9FR5eclxYWFly/d3srTiQSKdl/3XIl+TkPyDWDHH9eiWNl/nJcux0n1bQGLHe+9Xt8eZW10nmiXDfeakleErn2SSaTdW0hLd0wnQ+O6nVOqeb3yW/+psOm5kAJYM9HcvLkSde+7OKVV14BsJtQ9dSpUwgGgzh16pTKUyIk+DI9PY1gMFjyCuJympubVSKy5eXlklwog4ODaG1tRXNzs0oEu7y8jGAwiGeffbaqXClE1Fi5XA5jY2O2m+/Tp0/bknXJWzFqEQ6Hq8oUf1AuXboEwzBszV0XFxeRTCZtTxv91MXU1JRtPktLSwDuXQhIBnhn09pIJFL2xzwSiZQEcyKRiK0+5W0SVhcvXnRtLlvN23zkKU5/f3/Ja/ecN3FyA1trtyWqPwmMOS+opqamVFZ+Ia8zFHKzsNdm3rL/OPfDcv3ApduYdRw5vmT/st6MuAUUJGBnPbZkmDXI6TdZqFt50um0qsP29nbbmw38vgLXrRxywe/1mlIrtxuCWCxmS2Qo3YKs5wh5G5GTc7xYLFZy7pYLeesTW3mlrnA7b3V3d9vKKXXndRPptg3dTE5OIplMluxT1rqXrmXWroh76XojZWJg+HiRROXO1gjyFjlnYnMJGsr+4PZbDNwLZljPBYuLi7blyP4r+5TcgzmPM2f+DclZIr/t8gY+v8qdbwF/x5cErp2vYa9Efl+s53N5ra+VXJd5JaCWa1ipF0lo7dVVR1omOq9rxsbGbMnHreQ86uyKXK9uqtX8PvkJpB9KpsXk5KQZiUTMQqFQ8unt7TUBmIODg2pYPp83m5qaTADmxMSEbXwZnk6n1bClpSU1HwDmyZMnzYmJCTOfz6txbt68aba1tZkAzKamJnNpacksFArm2bNnTQBmIpGwjSvzunnzpho+Nzen5gHAbGtrKylfPp83BwcH1Ti9vb3mrVu3VLnd6oAffo7DJ51OmwDMu3fvmkdFNBpVx6r1E4/HS8aNx+Pqe03TTNM0S8bVNM3Udb1kGsMwbPOyLsv5ndB1XS3HNE0zlUqZAMxMJlOyDtbxnKqZLpPJlNSFczq/daHretn5GIbha1luy3XWmaZptvLIOlvLYt0u1nWVMjvnLd+nUinPdbeuv5XsV3T4OPdLr+1k3aec+1ytx6amaWY0GrWNI9M69zO3cdz2Oed3qVTK1DSt5BxmXW9ZlnNfdtvnAXiW2at+5Nh2rpMcF5XOec7zkLNe3coknOvktX2t9aHrumeZrftBPB5X6+62vpXqw1keP+V0zsO5XZ2/Oabpfh531rnb+bma85/bMK/tSkeb2zWS17a2XlP5Pa7k+HZejzmncTvO3M6bzvOTLM96znCew8tN7+c6yVkfbuewStdqUk7n8ex2TrOeE53nBjm23dbJ7drWbZ3d6tZ53nWbn5RVyue2Pm7nULf5+/l98jovHjY//OEPzQcffNA2LGCa9zrKvvrqq5ifn8dHH30EIjqe1tfXoes67t69ixMnTjS6OHQMSfI462tYK8lms+jo6LC9ik5Ifodyr82rRSQSQVdXV93nS0eXPIW1vvoWuLdPW1/DetTFYjGsrKyUdNGTOnA7FoHdVhZbW1v7mgzxKJNWKpVePXzQDmu5iI4aad1muYU+lLzKKddb1Vyj7YXX7+phs7CwgIGBAXzxxRdq2J663hARETm5vU2jEmnO6uxrLc1iK+V3qFY2m/X1JhO6v0g3GemGJuRtMPV6U8BhIE3rnU2wL126VPfcGPcT59u7DoNcLlf1G8SIyJ38DtTjtbz7SbrGOMs5OTkJYP/fbibm5+cr5qg7rBgoISKiupP8Jn5vFqQ/vvN1xPKmnHrftC0sLEDXdd4Mko28DtaZKyeZTPpOdHpUjI6OIh6Pl/Rfj0QibC2yB319fdA0rSTY1khLS0vQNO3AboyIjjPJhVbNw6BG6OvrQyqVKsm5JW8tOggSpPWTv+owYtcbovsMu94QERERERHtYtcbIiIiIiIiIqIyGCghIiIiIiIiIipioISIiIiIiIiIqIiBEiIiIiIiIiKiIgZKiIiIiIiIiIiKGCghIiIiIiIiIipioISIiIiIiIiIqIiBEiIiIiIiIiKiIgZKiIiIiIiIiIiKGCghIiIiIiIiIip6wDlge3sbU1NTjSgLER2ATz/9FACQSCTw8MMPN7g0REREREREjXPr1i38+c9/tg2zBUp+85vf4LPPPsM///M/H2jBiOjg/OlPfwIA/PjHP8YDD5TESomIiIiIiO4bhUKhfKDkK1/5Cv7t3/4Nv/zlLw+0YER0cNbX16HrOm7cuIETJ040ujhEREREREQNs7CwgIGBAdsw5ighIiIiIiIiIipioISIiIiIiIiIqIiBEiIiIiIiIiKiIgZKiIiIiIiIiIiKGCghIiIiIiIiIipioISIiIiIiIiIqIiBEiIiIiIiIiKiIgZKiIiIiIiIiIiKGCghIiIiIiIiIipioISIiIiIiIiIqIiBEiIiIiIiIiKiIgZKiIiIiIiIiIiK7rtAydWrVxEMBnHhwoVGF4WIiIjo/7d3/y5thHEcxz+FLl2O0M0lJFOlYEQ6uSgoJF0ERee2kf4BNmR2ELqV1j8gja1IQRpJoR2aK+Ikh0Mb2iw6nVqouBzhKh3aIR28e5rUX5eKpur7BYJ39717Hh0/fJ/nAQAA/5l/Ckp6e3tlWZYsy1KxWDz1JGzblmVZisfj2tzcPPX3juP7viSpXq+f6TgAAAAAAODiaTsocRxHruua65cvXx6oyWazh3ZthN0c8Xj8xHFqtZoJY2q1WrvTBAAAAAAAaFvbQcnr168lSfl8XpJUrVYPdIGE3Rp/d20c1c2RTqfl+762t7eVSCQkSXt7e+Z58+8AAAAAAABnpe2gpFQqSZLu3bunvr4+SdL8/Lx5Ho/Htby8LElaXl6WZVkaGxtTNpvV9PS0qQu7RaQ/3SNhp0mxWFQmkzG1mUxGlmXJcZwjO01mZ2cPdLF4nqdcLmfqc7mcCWv+Njs727KkKJvNnvkyIAAAAAAA8H9pKyixbVv1el19fX1KJBIaHh6WJC0tLZ1qEmHHSJR9Q07qNGn+xtjYmAqFgrkuFAp68uTJgXdyuZymp6dblhQtLS1pYGBAnudF+yMAAAAAAMCF11ZQ8v79e0nS/fv3Je0HEZLkuq7p7tje3jYByvDwsHzfV7lc1tzcnGZmZsy3fN8/srtjcnJSlUrFXFcqFfm+r/7+/shzdRxH1WpVkjQzMyPf91UqlRSLxVrqarWaCoWCYrGYGefLly9KJpOq1+taWVmJPCYAAAAAALjYIgclnueZ7oyhoSFJUk9Pj5LJpCSpXC6fwfT+3dramiQpFotpampK0v5eKLlcrqUuXCZUr9fNEp9UKmW6S75+/XqOswYAAAAAAJ0UOShp7qxIpVJmL48wUDjt8puzcufOnVO9H+6jAgAAAAAALr/rUQvfvXt37HPXdWXbttLp9KkndZxbt261Vf/x48dIdclkUp8/f/6XKQEAAAAAgEsiUkeJ53mmY6RUKpn9RcKfcN+PcA+T5vckHXp6jOd5kU+V+f79uzzPk+d5unnzprkfHlVs27aePn3a8s7t27cl7S+pKRaLJ9a5rmvqwtrBwcGWk3UAAAAAAMDlFikoefPmjaT9/T4O6xiZmJiQ9Ofo4JGREUlStVqVZVl69OiRJJlNXiUpkUgolUodOWZ/f78JYCYmJpRIJLSxsdHynUKhIMuyzPjN0um02T9lamrq2LrwmOOwLqwNN4MFAAAAAABXQ6Sg5O3bt5J0aNAgSXfv3pW0373hOI5GR0c1Pj5ung8ODkra3/w1n8+bAKQ5OJF04ESaZ8+embAjmUyqq6tLkvT8+XPzbiwW08OHD7W4uHjgGwsLCy11+Xze1DUrl8vK5/NmLEkaHx9XpVJRT0/P0f8YAAAAAABwqVxrNBqN8OLx48d68eKFPn361Mk5AThDjuMok8no27dvJnwEAAAAgKvo1atXevDggX7+/GnuRT71BgAAAAAA4LIjKAEAAAAAAAgQlAAAAAAAAAQISgAAAAAAAAIEJQAAAAAAAAGCEgAAAAAAgABBCQAAAAAAQICgBAAAAAAAIEBQAgAAAAAAECAoAQAAAAAACBCUAAAAAAAABAhKAAAAAAAAAtf/vvHr1y+5rtuJuQA4Bzs7O5Kkra0t/fjxo8OzAQAAAIDO2d3dVaPRaLl3rdF0J51O68OHD+c+MQAAAAAAgE5pDktaOkps29bq6qpu3Lhx7pMCcH7W19fV3d3d6WkAAAAAQMdtbm62XLd0lAAAAAAAAFxlbOYKAAAAAAAQICgBAAAAAAAIEJQAAAAAAAAEfgOzZGj/1vadbQAAAABJRU5ErkJggg==;" parent="1" vertex="1">
          <mxGeometry x="13" y="150" width="800.44" height="460" as="geometry" />
        </mxCell>
        <mxCell id="iNU4SzB9ZhQ7jGjwVNzf-12" value="" style="endArrow=none;html=1;rounded=0;strokeColor=#000000;strokeWidth=2;fontFamily=Verdana;fontSize=14;fontColor=#FF0000;jumpStyle=arc;exitX=0.262;exitY=0.217;exitDx=0;exitDy=0;exitPerimeter=0;" parent="1" source="iNU4SzB9ZhQ7jGjwVNzf-7" edge="1">
          <mxGeometry width="50" height="50" relative="1" as="geometry">
            <mxPoint x="253.82999999999998" y="280" as="sourcePoint" />
            <mxPoint x="303.83" y="230" as="targetPoint" />
          </mxGeometry>
        </mxCell>
        <mxCell id="cSFPyygMN9jZ2EI2h_Gl-1" value="" style="ellipse;whiteSpace=wrap;html=1;aspect=fixed;fontFamily=Verdana;fontSize=18;strokeWidth=2;strokeColor=#FF0000;" parent="1" vertex="1">
          <mxGeometry x="293" y="190" width="25" height="25" as="geometry" />
        </mxCell>
        <mxCell id="cSFPyygMN9jZ2EI2h_Gl-2" value="" style="ellipse;whiteSpace=wrap;html=1;aspect=fixed;fontFamily=Verdana;fontSize=18;strokeWidth=2;" parent="1" vertex="1">
          <mxGeometry x="223" y="190" width="25" height="25" as="geometry" />
        </mxCell>
        <mxCell id="cSFPyygMN9jZ2EI2h_Gl-3" value="" style="endArrow=classic;html=1;rounded=0;strokeColor=#FF0000;strokeWidth=2;fontFamily=Verdana;fontSize=14;fontColor=#FF0000;jumpStyle=arc;dashed=1;" parent="1" edge="1">
          <mxGeometry width="50" height="50" relative="1" as="geometry">
            <mxPoint x="243" y="280" as="sourcePoint" />
            <mxPoint x="293" y="260" as="targetPoint" />
          </mxGeometry>
        </mxCell>
        <mxCell id="cSFPyygMN9jZ2EI2h_Gl-4" value="" style="endArrow=none;html=1;rounded=0;strokeColor=#00B0F0;strokeWidth=4;fontFamily=Verdana;fontSize=14;fontColor=#FF0000;jumpStyle=arc;exitX=0.262;exitY=0.348;exitDx=0;exitDy=0;exitPerimeter=0;" parent="1" edge="1">
          <mxGeometry width="50" height="50" relative="1" as="geometry">
            <mxPoint x="253.71528" y="287.08" as="sourcePoint" />
            <mxPoint x="290" y="310" as="targetPoint" />
          </mxGeometry>
        </mxCell>
        <mxCell id="cSFPyygMN9jZ2EI2h_Gl-5" value="" style="rounded=0;whiteSpace=wrap;html=1;labelBackgroundColor=#5400A8;labelBorderColor=#5400A8;fillStyle=auto;strokeColor=#000000;strokeWidth=2;fontFamily=Verdana;fontSize=14;fontColor=#FF0000;fillColor=#000000;" parent="1" vertex="1">
          <mxGeometry x="263" y="320" width="6" height="20" as="geometry" />
        </mxCell>
        <mxCell id="cSFPyygMN9jZ2EI2h_Gl-6" value="" style="endArrow=none;html=1;rounded=0;strokeColor=#FF0000;strokeWidth=2;fontFamily=Verdana;fontSize=14;fontColor=#FF0000;jumpStyle=arc;exitX=0.262;exitY=0.217;exitDx=0;exitDy=0;exitPerimeter=0;" parent="1" edge="1">
          <mxGeometry width="50" height="50" relative="1" as="geometry">
            <mxPoint x="225.44528" y="369.82" as="sourcePoint" />
            <mxPoint x="306.55999999999995" y="350" as="targetPoint" />
          </mxGeometry>
        </mxCell>
        <mxCell id="cSFPyygMN9jZ2EI2h_Gl-7" value="" style="endArrow=none;html=1;rounded=0;strokeColor=#000000;strokeWidth=4;fontFamily=Verdana;fontSize=14;fontColor=#FF0000;jumpStyle=arc;exitX=0.262;exitY=0.217;exitDx=0;exitDy=0;exitPerimeter=0;" parent="1" edge="1">
          <mxGeometry width="50" height="50" relative="1" as="geometry">
            <mxPoint x="225.44528" y="399.82" as="sourcePoint" />
            <mxPoint x="306.55999999999995" y="380" as="targetPoint" />
          </mxGeometry>
        </mxCell>
        <mxCell id="cSFPyygMN9jZ2EI2h_Gl-8" value="" style="shape=image;verticalLabelPosition=bottom;labelBackgroundColor=default;verticalAlign=top;aspect=fixed;imageAspect=0;image=data:image/png,iVBORw0KGgoAAAANSUhEUgAAADcAAAA3CAYAAACo29JGAAAAAXNSR0IArs4c6QAAAARnQU1BAACxjwv8YQUAAAAJcEhZcwAAFxEAABcRAcom8z8AABYXSURBVGhDrVoJQJVV9idzQQWVRUBWBUFcM9dKJ83dUststcacppo2p5rGZv7NpFPTpKVtU462WI2l/ymnZH+8ncfjsSkKuCCI7AiiyCLbA977zTn3vg8eqCHO/PQ9vu8u557tnnvO9z0X/I9gp4+N/vWGraMJtoZatJ+rQFtREdpKSmCtqUJnUz31WR2jumEXhOz0ly/+O/xXwjEDzIIzGy3lZahKiELhR2/j2HNPwLBgLjTTQpEweQwSwkdDNd4X6omB0NwSiuTFc5H70tMo2PUBzmtUsFafc1DpSfNGcd3CCYU6Luz2Dtg7u5fvqL2Acz/9C4dffAaqyQGI9XZBtNcAqMO8kLJsDtIfuxfHnn0Cx195EsdfehLZzzyO9IdXI/muWYgP8Ua05yBEew+CbkYETrz2PGpUCbA1NwvavKa9y5KdtLxNWpeu+0K/LCcIiwUkrDU1KP7HxzDcOR0/jXJBbKA70h9ahsIPtuFCQiJa8vNoUCON7FaEM2yXL6PhdA6q4/6FvHe3IGn1IkSNGYSYUQNgXHUXSvZ/DXujIiSJabOBdcpi2e3/Q+GE5oi4AO2Vyn17Ybx9CqKHuUA7ZwLyd/wVDccySMvd+45FEow4boQV+PoasLc2o9aiw8ktL0MTGYRoNxekrpiLStVPjhG0NAnVyYL1Ldv1CafsLUZj/ikc/uVaxNDCumnjULRnJ6znnfcK25cYALmunV2IW+Q/BXwlWqhfKEyMYdt0K6a16Czytm1BfIQnDnnfjJxXnkZ7VYXo60S7+O4LfQjHi/OyEufjfoSWgkPcqEHIee1FNJeVOnoks2KgYLaDPu2C4W6wtttI9dTngBCXvqz0JbawaOiJyydykPXEWsQNd4H5FzNRm5Eq2nmDsDKEoFeZx/hZ4exCQxJluz9EvO9AaKb4o/KnfztaaUwXYbogwdhSnd2NaMxOQ/62N5D51KNIe+QeZD10L448uwFn9uxAS3GBYxTByZ0F2KqKcmytKP7iE8QHj0T8eC8KXgdFM6/C4knhutdUcE3heKhi+MKdbyLawwXGJbNxOfeYo5Wt40yQNEl7gQwt0FxZgqxXN0EfGQC13xAkjRkBc8BwmAKHweg/GFrfodDPmIBT72+FrUUGDRkRFbBlmKbjlnDRmAjNjPGIp/nnvv1ctCkq4LG98bPCMc7+fSd+9BgAy72L0Fou3dBOgnUKzTqBJiiMtORkIInOMI3vIJjHe8IS7gldyDAYSEiD31AkB4+CZbwPLCHuUPm5IHPjg+g4XyPmOgvYQSyzwmDjHSzXu3zsGExzJyOe6FT/8K1o43V7cSPgJBzvGmlihcnKH75DtM8gWFbeCWtVmWjjtbm7NzGx5wjW8nJYlt8G/ZjhSIn0RHKgK5IiA5H50CrkkiWPvvI80inM6/kMDHJDWrgHVKSELDrwbVayYBdx/qIPK5EDE90pkZi9RzsrFImhPqhP0ok2GzPGQx3/+H8Py3G/YpH6w+lQRfhAc1sYms+cFm09vKYXRBcNOPX6JiT6uyI13B8m/2HIeHgh6jLNpPzuVMvW3IjqhBjo6RA3BpECwr2hDXBD6bdfin7eDj1dVILPNv7HuJSajMQwH+jnT0JraaFoZQHFnr+acDYSjFnorKuB5Z75SKCFL+k0sk9O+Vk052XDNCOM3G0UkgPcceTB1bDV1Yo+VpkIUE5EWk8eh+WOKWI878V0cn17fZ3o672WsAdJ0MbMOwxQ9c/PKXK7IPfZxyhAW4lDdmMRYq4inGzGmR1vImqkCwrffUvc23iPXbFcN5SeygN7oQn2QXKYB/STAlBv0Yp2dnPmR1iDPqxhZoRR/u0u6MeNQupYL2gjfXHJIpUpXMsJIrx00iwixkeA6O3sQPamX1Gq54qq//9OjGtnGSRpKRwPlGIBTadOUJLridTlv6BsvkG0MTk56ueR9+YfhHslBQ+nPbaUIstlMYstxhqVDEtaglm6as3LRfLtYUgZ6wl1sDuKv95Drcqa3RCWE3MkFflN8wvPQn/rWCQtmIUOSrzFLPFl7yUcMXDi1efpPBuCmniZ8lzN96+F47/7DZIogJj9RyDnqQeJaItoJ9G6lNcNyXxraRFMi26BiYTTk2uW7d4p2rvVfS1Qv4O1yj3vIoqOqpJP5FxFcdItHQI0n8qGeoI3Mh5ZRWGvO5O4XhT+7Q06z4YhKWgk0lYvhK3xkmhnpxZZixMUC1w+noXk6ZHklh7QkcUrvru65a4EbRQyBo/qqDkHw8KpMMyfho5zHNVlu0M48Y3Tb/0ZsT5DcT5eyUAcHdeJqqgfoB3niZTQUdCFeaMq+oBoF5rkaOAEhfLZ996EOsSD5rjDMDWQku8c2dGXbERByV0ZxZ9+hBjae5UHvhD3vJqLcnZ01FbDsGgOUhZOg61eRrj+oq2sEKZ5U2EhC6QEUQRcPAtNtKcYijDOIl5IiKPkOwTmUC/oA4bg6Ib7yU+7U77+gMsr7cQQpD1BNNrbxHouXHgyaowqRFN6VPDma+JestOn+rqgMF/wyXtIDLwZlgkeMAQPg3n+FJTu+4wqB8ro6ZC2kbu3ni1A/s6t0E8JQAodAykknJoymfPqGEFDOGw/9roc2YncFzYgIWIMLmcfFi0uIishnNy6GQljR6Ix2Szulch0veCRPMd2uR5HNj5KadUAJEd6ITXYDbrA4TDMm4TUh5fCvG4pDDPCkRjsihQSKD10NBL9BuPktj9LQqRPkXbJu36h8pvPETvGFRX7PxP3LoJISxOyHlgOw+3TYa0ul4T56/plE0Nt5OI8rf1CLbJ//RgyxvshI3w05ZGUhYwbQUcEpWLksuZxHsgM80RWhBeSJvgh/y9/pDOsRS5JNDoovvbDcF1oOnoY6lBfnHrtGXEvhOuoKINpZiQyH7+PglqbFE5Q7+cKNJzPM4HWFuxZezf2hnhDHeEB7Zih0FEkNfqSFf3cKPB44R8U/s0fbZPjGbSm9BYHjX7C1lAHCyXsqSt/AXtbq4yWjSRx/FhvFGx9RQ7q+r4B9TmQnJqKAa6uWL/yHlzUa1D46Xac/NMmnP7TZpSS+2R89wVGDByMZSvXykL1BgXqAbJ69qbHoZoyDm2lZVK4qh8PID7QnXI15Yzhj/y+EXB4Xnf/Ori4uCAqLtrR2hMcxpavWkVjBkCrN8rG/wJKFC546zVoyDVbqIIXwpXseh8q2oiXNHFigHSOGxfOZDIJwVYsX9xVpnA2L2kSHG1JSUli3N2rVt7oUl1Q7F72/nYkkrvXpxEP3FD0ITUEjUC9WS8GyOyg92p830HfrHPqp1u56ZllTq8c5DvsWLNmjWBapVLJNkKXYAzHZWdHJ5YtWYqbb6KjI0U+GxHjuF+wIOIv/aEbh0L6QumuDxAfMhJ1Bo0UrvD9bVBRQ71FCiczQSdmFIh0Rx4eSvUrMgS66XRUuGadtNrSu1eI+76QmJgoxj/wwAPiXtDkfyIwiSKG7uhaarJP8LOeuOCRqNWppXBnP3yXarcRqDM7qtprCMfPCzkaXkuHVupfuXIFbiJmtVpZ7vQFq9WKefPmYfCgwTiSmeVovRIs4vWAt1icsJxWClf66QeI9R+OGl2CGCBt04sYaU5psbU2ou5oJs7F/oBz3x9AdfQhSn9OQB8dJaxwz+o1V9PNFVDywqjYWDHv6cfXo+10HmoSY1BxcD+qow6iNtUM66WLYtz1oPCj7VBRftuU4thz5w5+hxjKJCq+/UoMYDcQ6wqByI6KSzS1o+zA10i5dyG0E4KhJiIGqgD0tIF108fhu5nhWB8wGqlax94lK/NzRfawK0snCjA2mfo1NTfghXlz8VGoH0xER0vpmCHIDfqQEdBG+FJJdAfOUFrXWXtBjBfO2isRV5D319eREDYaLcdzpXCNRyy05zyQv/V1MYAZYV74b4cIIJTElBTBsuEhaPyGwhg0BKmU+adS1pEZPApHaG7GWHfKRDyQSrld1q8eQHNJvpgnHs0KuXo5s0PYzroG5P7xOWRODkZ6uDflmZ6whFI1T/QtdJ1K1UUSCakb7YrkFfNQn5Eu5inzFQjq1JRLlblqij/aS0s5tyS/ryyFceYEZK+njJoyFDGORjNjjLayUiSvng+d30BKiEdT+kSL+VPGEeFDVfA4qCf6QhdAuSIJeZgYNPgOhHnFfCpE5YMlsXKvaMeUO5vrcPSpRym3HCgESyblcD1oDBsFw/RgGCf6wRBA9WGIm0jjNIEDYZgVioZ0KaCzeHxtq29AytI5MK+8A/aWFmk5vkh/eDmSbp+CzirHc39ihjexvdWKrBc2EsODkBbhB03wUJjunIaztE9rU01oOVOIi2lpKNz9PpX6M2GkJNkcSYz4uiL7N+tJM23y8HBEU4ZyVfDOX6AZQwoL94WRIpxheigKtm9BjUlFdPNRn5WB8m8+Q+qaBSSYO9J4nP8gpN69EJ0X5XNOZwmbjmZAFeaF3FdfEvcuwkSEE29sRhwltA10+DH4MSijJlEDVThl96He0NK+TH1gJVpKi0Rfb7SQK6Q+Qgl4IBWf4ynbH+eO83Ex0nDCjXgPSm6aTh+n/RVBtR+VRmOp/rtzNgmjnHU8sptva8MlHHvxGegDR8JMybYmcAjO7PpYdpLSlFBXtu9LxPkNQxX9ZZDlpHC1+jjEBQxFwdtbxL3IJ0jwE68+R4XkYJioUjbeFoa2k6dEv72T5imrE5TLloLjSJ09CSljyXUDB+PUq5scPT3Bx4+W6kdzmA+0k71ofUekpjghgg/XmTYKHY64YauvJgsugjHEHWbaAmn3L6Pyqk6sqwiX8+KvkTjeG005meKeilVxRKLzUhVSFkxHyl2zYa+vF52dFy/CvHw2kkOGkDWGUcDZLNqtNEO4mSIRg2+lnpD39uvQBbnCTMVq+pLbUFt+FnWNdaitv0SfBjTW1iFzw4PkwkOpoHVH9oa1tNf5MZJIcISVORoybxypO1hYQtnePdCOdUN68AgY545D05mTop3RUpAH9ZRgHPnlatjbWwUtcku2kBxQQHVVnN8g1MRHiXtrUQGS591KVnCHjirmin/uFe38ArCrtFFANJSHpdX/3k+uNoqCgA+iJo3B7KAgeHn7wnuML7x8fBA22g+7I/2RFckBwxV5W38v5gnXpb3OHtMVZcWrMBnkGrIyoZvkAwsV1cYJ/qg/kt6l39Ld2xHtPQCV++ULEu4QAUUZ0XQiG9rxvsh47D5xb60oRgo/E6FQrA8ahfK9jjcrQiGcZyqkJQnlPDz3/ZcwUIRLo/MmdloQ1i9ZhAWLV2Dp4iVYTNf3LV5GZ+IkZJLwBto/J//0spjH00XaRcprpz0vkm66twkBgUsWM52vPkgllzdEBgphGe0Xq2BaQEaYG4mOynLRxqaTwhF4Mmcmp194DmqfwVSDJQgBLGvugok2spaiZM4mrnB5N9JMp+jH4DtpNzuyf/skUvyo8g4ajrR1CyhitooeZ5x8/mmYqIC10Jise5eSWRxbgb+IEIsj9h99pMMCxe+8QcoYjGQKQKb5t8BaXCjaS7/8GFEeN6Hk43fEveTM1ls4KqBzj1PlTAfpPcRUewsKPnwLSb5udAZ5Qj3ZExfV34vx/IxKGIqFFBFL4qI2GprJARQo6Kzyc0X+X+UDJyU3lGzy8469pLCRSAmnKp3Ox9IvPhXtIkYTPRu5Ij9wkDGb9lReNpLmR8A8lsYHDUUWJRSgDKe1rBzGWyOobxraHK+VeS2Oy13CMZRfXxS8uxXRo1wo59whHpklTQsXrmmmvZc8eyKqrlGAnlfFwTQ3nA5dfg7pAc3UAMoo0oRYwmVZCY59aa2uRNKSmWTdYbCEjYRuoj9KvtoNm/VKK9dlpsGyYiGS6IixkKuriY/zMTIu5Lz8G8R4DkDVfse7Ol6NlmDxnITjheXp1nnpPFJWzqOUzAdN6cko+vwjqPxd6bCl7CN0JBIjvHH08UdR/OUuOscOonTvLmRufIT2qz/SKEKmkOXVZLWCd99wkHYEBweUy8of9lFSQClb6AjyDDo6Qug8vX8JCnftwIXoH1G6/0tk/fYp6CePpUOe0jHKM3W0ZXKff0LMP3fwAKK8BuLoM4+QtvjNejdtRg/h2MwOxaLhSBI0Yb5IunMG2ijkntiyGYm+tEdCSdPh5HL+dO6NcaOS3g3q4CFI8h9CByxplhhV+Q3Bsd89C3sTvwghuuQSisUYIncVVzbkf/A3SuX4Ie5IyoA8oA8eDCPlr/pgT6LpTusMRXLECHLfEYinbIZ/nGNrahLZS3xEMJLmjEdbYZ6g1hs93JL9lFlwnJso3/8VmXwg0h5aAltFOQr37IaOtKj1HYIUSrPSKCJyomuij47OHg1ZSzs5EPk7t9Hmle7VQacie4OzRiU4vZOo3PcVTLOn0PxhVA3Q+UgBw0yumkoZDgclNQmoCfPE8d+/ROlgE1rOnkASRduYcXT4G9SChsKzM3ruOYdo4nWTg5szVKUf8nAhAdfA3nARzUWFOP72a0hZt5AylnDobxlDByrtybVLcPLNzbicLcMzU+KAwBZjd3f+ZYSE3AaK0M2lhTj14TYcJsuYKcfVTQuGftZ4pK1YhOzNm1BjkYV0y+lTMN1xKxJ8hqHi+29EGx9NSrrojB7CSfBy9BGuw9fkOtv+jFj3m2gf3obW4rNyVEeHKIMacnPoL4XkVvm6iqHMFIyLC0nnSlA7/xcDHSC6rZVluHQiB02FVFU0Nzk66JxLMUI/YxJiyW1L9ilP6mRkvBr9qwjXDRsldmJd+ir++D1E0WZW3xqE6lgZqZxxNdb7B16p25K9UfL1PxBPRWwCuWL5v/c5WnkWewbN6qEhiZ8XjibIN80SlYcOQTMpCPHeA5H3h9+hrUL+woFxNbfoH5hNfkvA20JantF4Og9ZTz+CmBEuSJoXiTpzomjnfsEXf/HNlbL9nHC8GL/uJW3aOEeQIjZTipb+6GocpMU0c8NQ/NknaK/t+YzjynWusboTuNdZPa3lxTjz3hYkUsEaO/JmZL/4FKzlJaJPcKPEBWKLOeszoFwJhSm5ixTr2DuaUbpvNxLnTsRPbqTR+VNxZsd2NJ/id3E9l+neDT2FUyg7w9bZTslwBk5v+T20VOH/6O4C0+I5qI7u/tWexNVmX4k+hOuJDtJWm/gZmiTcWnUeZ/++HcY54ThEjKhoPxxZvxpnd76Ni2YtpUOVsDdfppFXYYRrNarHmitKUaOOQf47/4f0tcsQHeSGH70GwLh0tggatjr56vlG0C/hxC9WHX+VVI3BP22q/Gk/Dm98ELpIXxzychG/PNJNCULKqvlI37gOWS/8CsdefgbZL9HnuSdx+PGHYFl6BxImjcah0QMR4zUExqkhOPLCRlQlxsHWwD9ClRAp1dUU1Af6J5xYRpYi0t14P0qnU9BcVILz6lic+tsfkU6lk2neTBimjoWahFZRiaMK94WW8kjdLeNguGsWjmxYh/wd23DBaEArWdEZ4gGwKK1uLFj1SziJbi3Kq573PUHqaGxAZ3WViKwtFUVorixGa3UprBeqYL/cfTY6o5uO3Os3BuA/Wi7R83fHU+4AAAAASUVORK5CYII=;" parent="1" vertex="1">
          <mxGeometry x="253.5" y="407" width="25" height="25" as="geometry" />
        </mxCell>
        <mxCell id="cSFPyygMN9jZ2EI2h_Gl-9" value="" style="ellipse;whiteSpace=wrap;html=1;aspect=fixed;labelBackgroundColor=#5400A8;labelBorderColor=#5400A8;fillStyle=hatch;strokeColor=#808080;strokeWidth=2;fontFamily=Verdana;fontSize=14;fontColor=#FF0000;fillColor=#E1D5E7;" parent="1" vertex="1">
          <mxGeometry x="253.5" y="436" width="28" height="28" as="geometry" />
        </mxCell>
        <mxCell id="cSFPyygMN9jZ2EI2h_Gl-10" value="" style="shape=flexArrow;endArrow=classic;html=1;rounded=0;strokeColor=#333333;strokeWidth=2;fontFamily=Verdana;fontSize=14;fontColor=#FF0000;jumpStyle=arc;endWidth=9.142857142857142;endSize=5.125714285714286;" parent="1" edge="1">
          <mxGeometry width="50" height="50" relative="1" as="geometry">
            <mxPoint x="248" y="480" as="sourcePoint" />
            <mxPoint x="298" y="480" as="targetPoint" />
          </mxGeometry>
        </mxCell>
        <mxCell id="cSFPyygMN9jZ2EI2h_Gl-11" value="" style="ellipse;whiteSpace=wrap;html=1;aspect=fixed;labelBackgroundColor=#5400A8;labelBorderColor=#5400A8;fillStyle=auto;strokeColor=#808080;strokeWidth=2;fontFamily=Verdana;fontSize=14;fontColor=#FF0000;fillColor=#E6E6E6;" parent="1" vertex="1">
          <mxGeometry x="250.5" y="500" width="42.5" height="42.5" as="geometry" />
        </mxCell>
        <mxCell id="cSFPyygMN9jZ2EI2h_Gl-12" value="" style="shape=image;verticalLabelPosition=bottom;labelBackgroundColor=default;verticalAlign=top;aspect=fixed;imageAspect=0;image=data:image/png,iVBORw0KGgoAAAANSUhEUgAAADQAAAAyCAMAAAAk/wjEAAAAAXNSR0IArs4c6QAAAARnQU1BAACxjwv8YQUAAAECUExURQAAAAAAAAAAAAAAAAAAAAAAAAAAAAAAAAAAAAAAAAAAAAAAAAAAAAAAAAAAAAAAAAAAAAAAAAAAAAAAAAAAAAAAAAAAAAAAAAAAAAAAAAAAAAAAAAAAAAAAAAAAAAAAAAAAAAgICA8PDxAQEBcXFxgYGB4eHiAgICYmJi4uLjAwMDU1NT09PUBAQEREREhISExMTFBQUFRUVFtbW2BgYGNjY2pqanBwcHJycnl5eYCAgIeHh4iIiI+Pj5eXl56enp+fn6ampqenp66urq+vr7W1tb29vb+/v8TExMfHx8zMzM/Pz9TU1Nvb29/f3+Pj4+fn5+rq6u/v7/Ly8vf39////5zOxE4AAAAgdFJOUwAIEBggKDA4QEhQWGBocHiAh4+Xn6evt7/Hz9ff5+/3v+H4wgAAAAlwSFlzAAAXEQAAFxEByibzPwAAA2VJREFUSEuFlm1DGjEMxwsqDpnKEIEJwp0iU2E+w4QhAxFxiA94+v2/yvJP094Bh/u9ONo0oWmaplVhxJPJdI7IJJOJiMg+JZrYLjpBMutLMrSI5bSoTpH7IsNhLKVKojZLNiYqcySNSfmy2RkQvWbjUEROJipaU0SzerTSuPcCjNpHWl4ImSxW4KFKR5QDDGo8VEqIqiXOrpVDTEBfe5kUZSHGNtUnUZpjcslW66LOLO9CVJ+IShg3LlTiYkBE8xC0ZXgB97Aq+dHIwOZaBsG4fVGr1c5aD9Jn+tAqmLSKoXcmQ0S/CgFTuREZaEOyIUY71D6y6xnrABsOA7tWp/6uzsQ1jFlHBnvoBnD9yZ6wrBQbYVcvROwNWNH52RkOh91zjlggQk3qlTDVKjVcs0Fjnuf08UPzeoWu05NRb1KmHjbrG/3aiTjPbsQE3O2TwP6n16JeVrz7I7LerM3HxxAuNmTcG1GnFFUr9OOa0GGic9E2/IaCnQpJ+FWt0/dEJPgfx6zH8H5AQpvICMUWL6kZkJyKrg+msluPtMgqFAXzP2fU7oqqzyNJK6LhPVAnr3L0HYgES/orqj7vJHVEw3uidpGDNxIJduFZVANgUWNR8RBMhZNkJAjNbBwIkjo2NbH76jt9jHsn1L4TTZ9nkpZFw5tQp8Rnyextg9pXourTJWlNNHhXCipFX5ORyNaDN9G1nJLUbAqr5NQmfesimcDhX6JruCOZf3JwENMqTl/rMXbXnQ766w+SVWVcL3tTRXBHmNPJqX8QDODbMUn8iV4Q8WXFKWGLCqf5/q1YUI5jHuu+53Wol6ejkaDfst0GOOg4x91Xsni7RQz8fCaQaKizERTXlgh12Bn2C5z4NfQe/VUy4qD7B0YXqgC+bzo5c7BRUWSSPfBUJ+CDoWqyBWBFjtTYDbSDVXHU1uXy6HrqqnpA6NLaRldLty9DhoG/FM24QmpcwJhVxGLPHJAFTLhSmapMcJHdC7o/x5htdHkVkIGfXjY9rqIoeQH0++FiwVX4cs3DO7M3PKoShaMRYjZp60sh5FWwpl83bn3qJqPFtJDFxMw1rVnhS5QoX/bEcDSwr4/igqdOZIPva6FiHytEMRn6YGGmzSyl1OcPscjsy43i/N+3G4hv5VDYiHxuOzHnl1L/ALqv5anGXGTyAAAAAElFTkSuQmCC;" parent="1" vertex="1">
          <mxGeometry x="203" y="550" width="22" height="21.15" as="geometry" />
        </mxCell>
        <mxCell id="cSFPyygMN9jZ2EI2h_Gl-13" value="" style="shape=image;verticalLabelPosition=bottom;labelBackgroundColor=default;verticalAlign=top;aspect=fixed;imageAspect=0;image=data:image/png,iVBORw0KGgoAAAANSUhEUgAAADMAAAAyCAMAAADGIxO9AAAAAXNSR0IArs4c6QAAAARnQU1BAACxjwv8YQUAAAELUExURQAAAAAAAAAAAAAAAAAAAAAAAAAAAAAAAAAAAAAAAAAAAAAAAAAAAAAAAAAAAAAAAAAAAAAAAAAAAAAAAAAAAAAAAAAAAAAAAAAAAAAAAAAAAAAAAAAAAAAAAAAAAAAAAAAAAAUFBQgICAoKChAQEBUVFRgYGBoaGh8fHyAgICQkJCgoKCoqKi8vLzAwMDQ0NDg4ODk5OT4+PkREREhISElJSU5OTlBQUFNTU1hYWF1dXWBgYGJiYmhoaG1tbXBwcHJycnd3d3x8fH9/f4KCgoeHh4yMjJGRkZaWlpeXl5ycnJ+fn6Ghoaampqenp6+vr7e3t7+/v8/Pz9fX19/f3+fn5+/v7/f39////w/XDsQAAAAgdFJOUwAIEBggKDA4QEhQWGBocHiAh4+Xn6evt7/Hz9ff5+/3v+H4wgAAAAlwSFlzAAAXEQAAFxEByibzPwAAA15JREFUSEuFlmlDGjEQhoN4iwiodBWEIFgsxYNaKaBSQQGLrJZ69f//ks47mSzh0D4fdpPJm2t2Mlk1g/B6LOaBeCw6L7YPmY/uaJdUfFFa3mN5vIMhHZHWWSwmRTXJ7oooJgltikIf1mptUK8diUV7YVGNsZAyreXLnj+i36wY896y6BxWM9xUvhXxiN4Jt+ioKAOibC62RDdOp8ytW6IV1thYGYhoihq3x0XNLGVhaohgFtd5KBynz+9RPTd7XZYuOmVHjtjFGFfS+B63ORLthaTLKrpUpYnpNirlcvmkNubEJmR2S5jmSBpA6wCtTL4uNnBOhqz5thE0dsTu+3ffUA8odcVOLQWqb3KfNJVOxOz7V+wgh9xoqgbqOB1LsAeDXcKs9Y9fw+Hw4QIDa30mbf4Ai96gPnF6V8Tot+Acffrnr+HlO6o6mAkjerK0ptgGGHi/Iz3A78/oZHfbQ2VOLdAzZ2OGQ+RR5IYnDBNs95AqEbVOT+voAfb/U8SWR7Jpu18MusnbqYmlReXCm2gDsCdX8Ult0dOGzRmVL0Q54p6sJVF0qJxSHj3bYsExGd8NeCZrXhR3VM6w2+xq4f4nUTrsk7kvEnwLhWNgEwBc9CxCB5jvRAIvKSQ0u7YSlYciHPFK1pwoBlTOKqQ0+0mRYm5EOWJI1qIoulROqwQ97aFGaHwV5YgrstqQa1PZUxuOBV6ZctwLXGDPPSJ7S63QsyAWH5nsy4uIDW/4pAUbXMirGyqEXGjPcAeuPHbdbSI7iGG0LygOhCAZVKHYvwni555PkI0C/5oqaToLSIfB3Dw5OeIeC3x9OOVa0X5QdmyC+oSQD4N02A9ugmN561KQ8xFtmlMcvJ2335kSAi8nwEkHHI+76KLCmOhczETfTTxO2uHdmGnkTnAzb6eOKKK7q+omxR5iLWm6qBDiNO8MyLQnLol+kVTZ4ELm5HsQeGc27BwkKgEBpIuTM7n0+draFj2zDUv+WgTTdDiF79hbgQmZ/4LqO+trcKpMT9zdczyTLjRmXI9Nc0/sTF/3Ub4f9cHYVY/LHnmQSIwtTFiCy8FhvW3CYtC+tKGUWRPVBKGY+UcwlHgPQmLmbwgzlzALnCD58R9ZOIok6ZKK0yH7H+FI0jNby3je9E+fUv8Al6vL93UJjNAAAAAASUVORK5CYII=;" parent="1" vertex="1">
          <mxGeometry x="386" y="550" width="21" height="20.59" as="geometry" />
        </mxCell>
        <mxCell id="cSFPyygMN9jZ2EI2h_Gl-14" value="" style="shape=image;verticalLabelPosition=bottom;labelBackgroundColor=default;verticalAlign=top;aspect=fixed;imageAspect=0;image=data:image/png,iVBORw0KGgoAAAANSUhEUgAAADQAAAAyCAMAAAAk/wjEAAAAAXNSR0IArs4c6QAAAARnQU1BAACxjwv8YQUAAAD/UExURQAAAAAAAAAAAAAAAAAAAAAAAAAAAAAAAAAAAAAAAAAAAAAAAAAAAAAAAAAAAAAAAAAAAAAAAAAAAAAAAAAAAAAAAAAAAAAAAAAAAAAAAAAAAAAAAAAAAAAAAAAAAAAAAAAAAAICAgQEBAYGBggICAoKCgwMDA4ODhAQEBISEhQUFBYWFhgYGBoaGhwcHB4eHiAgICIiIiQkJCYmJigoKCoqKiwsLC4uLjAwMDIyMjQ0NDY2Njg4ODo6Ojw8PD4+PkBAQEhISFhYWGBgYGhoaHBwcIeHh4+Pj5eXl5+fn6enp6+vr7e3t7+/v8fHx8/Pz9/f3+fn5+/v7/f39////wxxGWMAAAAgdFJOUwAIEBggKDA4QEhQWGBocHiAh4+Xn6evt7/Hz9ff5+/3v+H4wgAAAAlwSFlzAAAXEQAAFxEByibzPwAAA2dJREFUSEuFlm1D2kAMxwsqDJnKEIEJQoGqqICICCgPvTmdcz7rvv9nWf5pmvJQ3O9F4XJJL5cmubPCSKRSmTyRTaWSEZF9SjS5U7KnyW6syNQyVjOiOkP+i0yHsZIui9o8uZioLJDyTWqNdndA9NqtfRHZ2ahozRDNebNO69JMMewcePJiyGKxIk85XVGeYlDnqXJSVJUEu1YLMQF9z8uUKAsxtjkci9ICboOtNkSdWd2DqOmKShjnFagkxICIFiDoyDQYtOtE62LqNZewKgfRyMLmVCbJl7MaBKDSDDzuQ1D00yqG0bFM0SoOxj7VwIEOxptitEv/D9QRz/kpgq02abTnZeI6Zq5EbroY2c71n6enxxsvZg2ZMmO8L81G+KonIjbjKtRu3/963PF3HcikadOgjKXi9Kei2z2hkfMgJsQL9PZ9B11ECB/rG/3qQj0a2HdiwDxD0pZpc0aDnHh3ITKDN41EXbghkXoypEE5aq1B5i9/SQPnRbSFd0RDcxJJ+NXaoOeRSHij16Ks/CKhfkVobPOW1OVjGtyLrvJCQkcUOC1yFpqCLo56exZd5YOEtiiYK/pfsPL01O+AOLyKbgA2NRKNMf0vcfCGIuFtzsWBIKGtqYSksFBJ/mvMEQ0eRVV5JWFNFIxBxljf6aHutWhwK7rKPQnromBcGpS5lvTbIiEaH6LsMyKhxhdft2il6akl48LjuaV+kygoggEN8tYWPZsiMeYUGjNBf0NJqndciBkrQc9gmy5Uum9iQHz8IEFFI8Wh2rIiOCOCnorl7baG/Q029plMGjOB/6sWp0TQVLikbfvnA8LxfMs1eChTBOq6QKWRpN+afjszgQOg7tU6lWDgHCcn+mwEzTVwwBhfWTiciJxA6dhxMuKgB/VODOScALVzETKYyMPGiiKTtOCZfpN7X7Ux3WKlU0mP3cT/mTeCkaaxzxVCl/FsvG5Z6cvUUkZYnRsYE0csqgtvnsXlnfpdmeAmW9VkD2PENl57FZCBs4fNHD3uvGh5U3j3h5MlR+GEE9nenT/h0ZUoHK0QM7fDy4TdCta9202lqbXjMfKPuLlj2mOND1Gi1uiJ4XCgt4/SkqtOZJPPa8HRywpRSoVeWJhZM6Wc/vwiFpm/uVGc/3t3A4ntPBobUcjvJBf8sqx/+oelwWdzcM0AAAAASUVORK5CYII=;" parent="1" vertex="1">
          <mxGeometry x="633" y="550" width="22" height="21.15" as="geometry" />
        </mxCell>
        <mxCell id="cSFPyygMN9jZ2EI2h_Gl-18" value="Pioneers" style="verticalLabelPosition=middle;verticalAlign=middle;html=1;shape=mxgraph.basic.rect;fillColor2=none;strokeWidth=1;size=20;indent=5;labelBackgroundColor=none;labelBorderColor=none;fillStyle=auto;strokeColor=#FFFFFF;fontFamily=Verdana;fontSize=12;fontColor=#000000;fillColor=#00B0F0;horizontal=1;labelPosition=center;align=center;" parent="1" vertex="1">
          <mxGeometry x="217.75" y="580" width="105.25" height="20" as="geometry" />
        </mxCell>
        <mxCell id="cSFPyygMN9jZ2EI2h_Gl-19" value="Settlers" style="verticalLabelPosition=middle;verticalAlign=middle;html=1;shape=mxgraph.basic.rect;fillColor2=none;strokeWidth=1;size=20;indent=5;labelBackgroundColor=none;labelBorderColor=none;fillStyle=auto;strokeColor=#FFFFFF;fontFamily=Verdana;fontSize=12;fontColor=#000000;fillColor=#8FAADC;horizontal=1;labelPosition=center;align=center;" parent="1" vertex="1">
          <mxGeometry x="393" y="580" width="105.25" height="20" as="geometry" />
        </mxCell>
        <mxCell id="cSFPyygMN9jZ2EI2h_Gl-20" value="Town Planners" style="verticalLabelPosition=middle;verticalAlign=middle;html=1;shape=mxgraph.basic.rect;fillColor2=none;strokeWidth=1;size=20;indent=5;labelBackgroundColor=none;labelBorderColor=none;fillStyle=auto;strokeColor=#FFFFFF;fontFamily=Verdana;fontSize=12;fontColor=#000000;fillColor=#AC75D5;horizontal=1;labelPosition=center;align=center;" parent="1" vertex="1">
          <mxGeometry x="563" y="580" width="105.25" height="20" as="geometry" />
        </mxCell>
        <mxCell id="cSFPyygMN9jZ2EI2h_Gl-22" value="Glossary of terms" style="text;strokeColor=default;fillColor=none;html=1;fontSize=24;fontStyle=1;verticalAlign=middle;align=center;labelBackgroundColor=none;labelBorderColor=none;fillStyle=auto;strokeWidth=4;fontFamily=Verdana;fontColor=#000000;" parent="1" vertex="1">
          <mxGeometry x="20" y="20" width="790" height="40" as="geometry" />
        </mxCell>
        <mxCell id="cSFPyygMN9jZ2EI2h_Gl-23" value="Original&amp;nbsp;" style="text;strokeColor=default;fillColor=none;html=1;fontSize=20;fontStyle=1;verticalAlign=middle;align=left;labelBackgroundColor=none;labelBorderColor=none;fillStyle=auto;strokeWidth=2;fontFamily=Verdana;fontColor=#000000;" parent="1" vertex="1">
          <mxGeometry x="20" y="80" width="790" height="40" as="geometry" />
        </mxCell>
        <mxCell id="1Z0Gj5Y9ps4_BkMfuR1Q-1" value="Actual Need" style="text;html=1;strokeColor=none;fillColor=none;align=center;verticalAlign=middle;whiteSpace=wrap;rounded=0;fontFamily=Verdana;fontSize=14;fontColor=#4472C4;" parent="1" vertex="1">
          <mxGeometry x="72.5" y="900" width="99.5" height="30" as="geometry" />
        </mxCell>
        <mxCell id="1Z0Gj5Y9ps4_BkMfuR1Q-2" value="" style="shape=image;verticalLabelPosition=bottom;labelBackgroundColor=default;verticalAlign=top;aspect=fixed;imageAspect=0;image=data:image/png,iVBORw0KGgoAAAANSUhEUgAAACQAAAAkCAMAAADW3miqAAAAAXNSR0IArs4c6QAAAARnQU1BAACxjwv8YQUAAADJUExURQAAAECAv0Bwv0B1v0hwx0ZzxkVwxURyxER0w0Nxw0NzwkNxwkVxxERyxERxxERyw0RzxERyxERzxEVyxUVzxURyxURyxERzxERyxERzxERyxEVyxURyxERyxERyxERyw0RyxERzxEVyxUZ0xUh0xUp2xk15x1B7yFF7yVZ/yleAyluDy1yEzGGIzWSJzmWLz2aLz3OW03uc1X+e14Wj2Yun25y14Ke8463B5bnK6b7O6sTT7NDc8N3m9OLp9ujt+PP2+/n7/f///xuUCyQAAAAfdFJOUwAIEBggKDA4QEhQWGhweICHj5efp6+3v8fP19/n7/dK1oigAAAACXBIWXMAABcRAAAXEQHKJvM/AAABo0lEQVQ4T32UiVbCMBBFwypWlrK2UsAooiKiEURFqEv+/6N80wwlUco7J6/pzD3JtFmEo3K9FUDtxikH/qnYjGSqYbvCYVt5f8T5nbpFTqXyhpyyVeckq26ik+U7fLteXZv3To7zpLaJyR+t4VprJS+TQLinknEmaEgbV1LObinaZUR49GYR8FjrOAnu6irwZx2GZDmBmug5c8EZmqKFxJRooPs4jpVSqS+UWuAxQ0p6gFrUcYaBo3BlXsxQAzwvjkGyICrw8dN+Imc6pW6QrgofvnKHgXPhWr/Be6IDX2dDn/C+CODbbOgbPhK8h2wCvi+c/mDycVAmRCsoQhiUCZFEF7ZxCXha0xc8Sn74azb0AQ/FGXyeDb3AfZE3G8Um4E5NJ0L0ks4RaIAFNvvyCOTThjpH58HkUueantEGyVkoo0eH4wBEqhGz23YZUMCHKkeLLOdoKYeaHmkuGeUNg3vArPKVA40pNCwxAhV4BZdr2hpab+7Me2TOEyvHdUFT+lKjMJ2L5fU5k2pYs68LVtW6w4D4f4dhlRqBWcmwZd1zQvwCczOpTLAqjrgAAAAASUVORK5CYII=;" parent="1" vertex="1">
          <mxGeometry x="43" y="900" width="28" height="28" as="geometry" />
        </mxCell>
        <mxCell id="1Z0Gj5Y9ps4_BkMfuR1Q-3" value="" style="shape=image;verticalLabelPosition=bottom;labelBackgroundColor=default;verticalAlign=top;aspect=fixed;imageAspect=0;image=data:image/png,iVBORw0KGgoAAAANSUhEUgAAACQAAAAkCAMAAADW3miqAAAAAXNSR0IArs4c6QAAAARnQU1BAACxjwv8YQUAAADkUExURQAAAP8AAP8AAP8AAP8AAP8AAP8AAP8AAP8AAP8AAP8AAP8AAP8AAP8AAP8AAP8AAP8AAP8AAP8AAP8AAP8AAP8AAP8AAP8AAP8AAP8AAP8AAP8AAP8AAP8AAP8AAP8AAP8DA/8ICP8KCv8MDP8NDf8QEP8REf8UFP8YGP8gIP8hIf8kJP8oKP8qKv8tLf8uLv80NP9AQP9LS/9PT/9QUP9gYP9iYv9wcP91df98fP+Cgv+Hh/+Pj/+dnf+fn/+np/+vr/+3t/+9vf+/v//Kyv/Pz//R0f/f3//n5//v7//39////8jzct0AAAAfdFJOUwAIEBggKDA4QEhQWGhweICHj5efp6+3v8fP19/n7/dK1oigAAAACXBIWXMAABcRAAAXEQHKJvM/AAABrUlEQVQ4T32UiXaCMBBF41pLXXCnbtFuamtLF7prV6W1/P//9E0YMIryzuExzNwTAslErClbrDShammfExGly20ZqlvNcVpX0uxxPVA9zaVQRpdLuopcZBU57Uy/4W/3I/+xluA6qapSw+e5bduu68Jn1yplrSge58/z4B77R59ydUaEQU9QUGafqCTPK0WfNZwELwr99uqIqKyCyhRuDgN3vd8hbhYxGf//bIO8KVUMQBUKdkAuVWioDu7vEQJuS2kvEMqUyMH76x+vQd4N4rww4WcbZQ16RdwQNfhLlIAHc5It0YTPcMVAPUF76BNXDCTVx02iBFzNyTslyIJdxECIpajDxruhH8Rt9cMfogQ8nJMlDuDnuGIgUyR5/8dAe0I0cHMiBJzmRNuggwVW+3KxHbocIDRpQx0iGC+3QseIOqoXsogiBNz1HqlQIIa3nbOMQIppclMlaJHlhDaYDqnOayd9BueAf1Lcfa26Zf50QqluhhEoRSso5cCB+cP4fd72+4mV4HaARmMOsB7hu1hGiyuhugX9uGDltTMMiLk5DCtTavoraVW0c06If/L5sbM7SElwAAAAAElFTkSuQmCC;" parent="1" vertex="1">
          <mxGeometry x="43" y="932.5" width="27.5" height="27.5" as="geometry" />
        </mxCell>
        <mxCell id="1Z0Gj5Y9ps4_BkMfuR1Q-4" value="Future need" style="text;html=1;strokeColor=none;fillColor=none;align=center;verticalAlign=middle;whiteSpace=wrap;rounded=0;fontFamily=Verdana;fontSize=14;fontColor=#FF0000;" parent="1" vertex="1">
          <mxGeometry x="72.5" y="930" width="93" height="30" as="geometry" />
        </mxCell>
        <mxCell id="1Z0Gj5Y9ps4_BkMfuR1Q-5" value="Other" style="text;strokeColor=default;fillColor=none;html=1;fontSize=20;fontStyle=1;verticalAlign=middle;align=left;labelBackgroundColor=none;labelBorderColor=none;fillStyle=auto;strokeWidth=2;fontFamily=Verdana;fontColor=#000000;" parent="1" vertex="1">
          <mxGeometry x="16" y="850" width="790" height="40" as="geometry" />
        </mxCell>
        <mxCell id="1Z0Gj5Y9ps4_BkMfuR1Q-7" value="" style="ellipse;whiteSpace=wrap;html=1;aspect=fixed;fontFamily=Verdana;fontSize=18;strokeWidth=2;" parent="1" vertex="1">
          <mxGeometry x="417" y="930" width="25" height="25" as="geometry" />
        </mxCell>
        <mxCell id="1Z0Gj5Y9ps4_BkMfuR1Q-9" value="" style="rounded=0;whiteSpace=wrap;html=1;labelBackgroundColor=none;labelBorderColor=none;fillStyle=auto;strokeColor=default;strokeWidth=2;fontFamily=Verdana;fontSize=20;fontColor=#000000;fillColor=#FFFFFF;" parent="1" vertex="1">
          <mxGeometry x="417" y="960" width="26" height="20" as="geometry" />
        </mxCell>
        <mxCell id="1Z0Gj5Y9ps4_BkMfuR1Q-10" value="" style="triangle;whiteSpace=wrap;html=1;labelBackgroundColor=none;labelBorderColor=none;fillStyle=auto;strokeColor=default;strokeWidth=2;fontFamily=Verdana;fontSize=20;fontColor=#000000;fillColor=#FFFFFF;rotation=90;" parent="1" vertex="1">
          <mxGeometry x="417" y="1030" width="30" height="30" as="geometry" />
        </mxCell>
        <mxCell id="1Z0Gj5Y9ps4_BkMfuR1Q-11" value="" style="triangle;whiteSpace=wrap;html=1;labelBackgroundColor=none;labelBorderColor=none;fillStyle=auto;strokeColor=default;strokeWidth=2;fontFamily=Verdana;fontSize=20;fontColor=#000000;fillColor=#FFFFFF;rotation=-90;" parent="1" vertex="1">
          <mxGeometry x="417" y="990" width="30" height="30" as="geometry" />
        </mxCell>
        <mxCell id="5IIboXPPcflnJyayC4U3-1" value="Circle: nothing noted" style="text;html=1;strokeColor=none;fillColor=none;align=left;verticalAlign=middle;whiteSpace=wrap;rounded=0;fontFamily=Verdana;fontSize=14;" parent="1" vertex="1">
          <mxGeometry x="453" y="930" width="190" height="30" as="geometry" />
        </mxCell>
        <mxCell id="5IIboXPPcflnJyayC4U3-2" value="Square: group or superior entity" style="text;html=1;strokeColor=none;fillColor=none;align=left;verticalAlign=middle;whiteSpace=wrap;rounded=0;fontFamily=Verdana;fontSize=14;" parent="1" vertex="1">
          <mxGeometry x="453" y="955" width="240" height="30" as="geometry" />
        </mxCell>
        <mxCell id="5IIboXPPcflnJyayC4U3-3" value="Triangle (top): rapid growth" style="text;html=1;strokeColor=none;fillColor=none;align=left;verticalAlign=middle;whiteSpace=wrap;rounded=0;fontFamily=Verdana;fontSize=14;" parent="1" vertex="1">
          <mxGeometry x="453" y="990" width="240" height="30" as="geometry" />
        </mxCell>
        <mxCell id="5IIboXPPcflnJyayC4U3-4" value="Triangle (bottom): decrease" style="text;html=1;strokeColor=none;fillColor=none;align=left;verticalAlign=middle;whiteSpace=wrap;rounded=0;fontFamily=Verdana;fontSize=14;" parent="1" vertex="1">
          <mxGeometry x="453" y="1030" width="240" height="30" as="geometry" />
        </mxCell>
        <mxCell id="5IIboXPPcflnJyayC4U3-5" value="Increased info from components" style="text;html=1;strokeColor=none;fillColor=none;align=left;verticalAlign=middle;whiteSpace=wrap;rounded=0;fontFamily=Verdana;fontSize=14;fontStyle=1" parent="1" vertex="1">
          <mxGeometry x="410" y="890" width="273" height="30" as="geometry" />
        </mxCell>
        <mxCell id="PRmmo-BswqXekV47Loqi-1" value="" style="rounded=0;whiteSpace=wrap;html=1;labelBackgroundColor=none;labelBorderColor=none;fillStyle=auto;strokeColor=default;strokeWidth=2;fontFamily=Verdana;fontSize=20;fontColor=#000000;fillColor=#FFFFFF;" parent="1" vertex="1">
          <mxGeometry x="43" y="1010" width="310" height="40" as="geometry" />
        </mxCell>
        <mxCell id="PRmmo-BswqXekV47Loqi-2" value="Pipeline" style="text;html=1;strokeColor=none;fillColor=none;align=left;verticalAlign=middle;whiteSpace=wrap;rounded=0;fontFamily=Verdana;fontSize=14;" parent="1" vertex="1">
          <mxGeometry x="43" y="985" width="64.5" height="30" as="geometry" />
        </mxCell>
        <mxCell id="o5-czZmWkMiQlQ1pFpCF-1" value="Genesis" style="text;html=1;strokeColor=none;fillColor=none;align=center;verticalAlign=middle;whiteSpace=wrap;rounded=0;fontFamily=Courgette;fontSource=https%3A%2F%2Ffonts.googleapis.com%2Fcss%3Ffamily%3DCourgette;fontSize=16;fontStyle=0" parent="1" vertex="1">
          <mxGeometry x="66" y="660" width="60" height="30" as="geometry" />
        </mxCell>
        <mxCell id="o5-czZmWkMiQlQ1pFpCF-2" value="Custom Build" style="text;html=1;strokeColor=none;fillColor=none;align=left;verticalAlign=middle;whiteSpace=wrap;rounded=0;fontFamily=Courgette;fontSource=https%3A%2F%2Ffonts.googleapis.com%2Fcss%3Ffamily%3DCourgette;fontSize=16;fontStyle=0" parent="1" vertex="1">
          <mxGeometry x="221" y="660" width="101" height="30" as="geometry" />
        </mxCell>
        <mxCell id="o5-czZmWkMiQlQ1pFpCF-3" value="Product" style="text;html=1;strokeColor=none;fillColor=none;align=center;verticalAlign=middle;whiteSpace=wrap;rounded=0;fontFamily=Courgette;fontSource=https%3A%2F%2Ffonts.googleapis.com%2Fcss%3Ffamily%3DCourgette;fontSize=16;fontStyle=0" parent="1" vertex="1">
          <mxGeometry x="427" y="663" width="60" height="30" as="geometry" />
        </mxCell>
        <mxCell id="o5-czZmWkMiQlQ1pFpCF-4" value="Basic Service (+Utility)" style="text;html=1;strokeColor=none;fillColor=none;align=left;verticalAlign=middle;whiteSpace=wrap;rounded=0;fontFamily=Courgette;fontSource=https%3A%2F%2Ffonts.googleapis.com%2Fcss%3Ffamily%3DCourgette;fontSize=16;fontStyle=0" parent="1" vertex="1">
          <mxGeometry x="622" y="663" width="180" height="30" as="geometry" />
        </mxCell>
        <mxCell id="o5-czZmWkMiQlQ1pFpCF-5" value="Stages of evolution" style="text;strokeColor=default;fillColor=none;html=1;fontSize=20;fontStyle=1;verticalAlign=middle;align=left;labelBackgroundColor=none;labelBorderColor=none;fillStyle=auto;strokeWidth=2;fontFamily=Verdana;fontColor=#000000;" parent="1" vertex="1">
          <mxGeometry x="13" y="618" width="790" height="40" as="geometry" />
        </mxCell>
        <mxCell id="o5-czZmWkMiQlQ1pFpCF-6" value="Novel" style="text;html=1;strokeColor=none;fillColor=none;align=center;verticalAlign=middle;whiteSpace=wrap;rounded=0;fontFamily=Courgette;fontSource=https%3A%2F%2Ffonts.googleapis.com%2Fcss%3Ffamily%3DCourgette;fontSize=16;fontStyle=0" parent="1" vertex="1">
          <mxGeometry x="66" y="710" width="60" height="30" as="geometry" />
        </mxCell>
        <mxCell id="o5-czZmWkMiQlQ1pFpCF-7" value="Emergent" style="text;html=1;strokeColor=none;fillColor=none;align=left;verticalAlign=middle;whiteSpace=wrap;rounded=0;fontFamily=Courgette;fontSource=https%3A%2F%2Ffonts.googleapis.com%2Fcss%3Ffamily%3DCourgette;fontSize=16;fontStyle=0" parent="1" vertex="1">
          <mxGeometry x="221" y="710" width="101" height="30" as="geometry" />
        </mxCell>
        <mxCell id="o5-czZmWkMiQlQ1pFpCF-8" value="Good" style="text;html=1;strokeColor=none;fillColor=none;align=center;verticalAlign=middle;whiteSpace=wrap;rounded=0;fontFamily=Courgette;fontSource=https%3A%2F%2Ffonts.googleapis.com%2Fcss%3Ffamily%3DCourgette;fontSize=16;fontStyle=0" parent="1" vertex="1">
          <mxGeometry x="427" y="713" width="60" height="30" as="geometry" />
        </mxCell>
        <mxCell id="o5-czZmWkMiQlQ1pFpCF-9" value="The best" style="text;html=1;strokeColor=none;fillColor=none;align=left;verticalAlign=middle;whiteSpace=wrap;rounded=0;fontFamily=Courgette;fontSource=https%3A%2F%2Ffonts.googleapis.com%2Fcss%3Ffamily%3DCourgette;fontSize=16;fontStyle=0" parent="1" vertex="1">
          <mxGeometry x="622" y="713" width="180" height="30" as="geometry" />
        </mxCell>
        <mxCell id="o5-czZmWkMiQlQ1pFpCF-10" value="Unmodelled" style="text;html=1;strokeColor=none;fillColor=none;align=center;verticalAlign=middle;whiteSpace=wrap;rounded=0;fontFamily=Courgette;fontSource=https%3A%2F%2Ffonts.googleapis.com%2Fcss%3Ffamily%3DCourgette;fontSize=16;fontStyle=0" parent="1" vertex="1">
          <mxGeometry x="66" y="760" width="60" height="30" as="geometry" />
        </mxCell>
        <mxCell id="o5-czZmWkMiQlQ1pFpCF-11" value="Divergent" style="text;html=1;strokeColor=none;fillColor=none;align=left;verticalAlign=middle;whiteSpace=wrap;rounded=0;fontFamily=Courgette;fontSource=https%3A%2F%2Ffonts.googleapis.com%2Fcss%3Ffamily%3DCourgette;fontSize=16;fontStyle=0" parent="1" vertex="1">
          <mxGeometry x="221" y="760" width="101" height="30" as="geometry" />
        </mxCell>
        <mxCell id="o5-czZmWkMiQlQ1pFpCF-12" value="Convergent" style="text;html=1;strokeColor=none;fillColor=none;align=center;verticalAlign=middle;whiteSpace=wrap;rounded=0;fontFamily=Courgette;fontSource=https%3A%2F%2Ffonts.googleapis.com%2Fcss%3Ffamily%3DCourgette;fontSize=16;fontStyle=0" parent="1" vertex="1">
          <mxGeometry x="427" y="763" width="60" height="30" as="geometry" />
        </mxCell>
        <mxCell id="o5-czZmWkMiQlQ1pFpCF-13" value="Modelled" style="text;html=1;strokeColor=none;fillColor=none;align=left;verticalAlign=middle;whiteSpace=wrap;rounded=0;fontFamily=Courgette;fontSource=https%3A%2F%2Ffonts.googleapis.com%2Fcss%3Ffamily%3DCourgette;fontSize=16;fontStyle=0" parent="1" vertex="1">
          <mxGeometry x="622" y="763" width="180" height="30" as="geometry" />
        </mxCell>
        <mxCell id="o5-czZmWkMiQlQ1pFpCF-14" value="Concept" style="text;html=1;strokeColor=none;fillColor=none;align=center;verticalAlign=middle;whiteSpace=wrap;rounded=0;fontFamily=Courgette;fontSource=https%3A%2F%2Ffonts.googleapis.com%2Fcss%3Ffamily%3DCourgette;fontSize=16;fontStyle=0" parent="1" vertex="1">
          <mxGeometry x="66" y="810" width="60" height="30" as="geometry" />
        </mxCell>
        <mxCell id="o5-czZmWkMiQlQ1pFpCF-15" value="Hypothesis" style="text;html=1;strokeColor=none;fillColor=none;align=left;verticalAlign=middle;whiteSpace=wrap;rounded=0;fontFamily=Courgette;fontSource=https%3A%2F%2Ffonts.googleapis.com%2Fcss%3Ffamily%3DCourgette;fontSize=16;fontStyle=0" parent="1" vertex="1">
          <mxGeometry x="221" y="810" width="101" height="30" as="geometry" />
        </mxCell>
        <mxCell id="o5-czZmWkMiQlQ1pFpCF-16" value="Theory" style="text;html=1;strokeColor=none;fillColor=none;align=center;verticalAlign=middle;whiteSpace=wrap;rounded=0;fontFamily=Courgette;fontSource=https%3A%2F%2Ffonts.googleapis.com%2Fcss%3Ffamily%3DCourgette;fontSize=16;fontStyle=0" parent="1" vertex="1">
          <mxGeometry x="427" y="813" width="60" height="30" as="geometry" />
        </mxCell>
        <mxCell id="o5-czZmWkMiQlQ1pFpCF-17" value="Accepted" style="text;html=1;strokeColor=none;fillColor=none;align=left;verticalAlign=middle;whiteSpace=wrap;rounded=0;fontFamily=Courgette;fontSource=https%3A%2F%2Ffonts.googleapis.com%2Fcss%3Ffamily%3DCourgette;fontSize=16;fontStyle=0" parent="1" vertex="1">
          <mxGeometry x="622" y="813" width="180" height="30" as="geometry" />
        </mxCell>
      </root>
    </mxGraphModel>
  </diagram>
  <diagram id="tfQMIiSkqA0jApzfwf86" name="Properties">
    <mxGraphModel dx="1434" dy="768" grid="1" gridSize="10" guides="1" tooltips="1" connect="1" arrows="1" fold="1" page="1" pageScale="1" pageWidth="827" pageHeight="1169" math="0" shadow="0">
      <root>
        <mxCell id="0" />
        <mxCell id="1" parent="0" />
        <mxCell id="ZfJ2Kx6b3oQlCNupUd33-3" value="&lt;table style=&quot;table-layout:fixed;font-size:10pt;font-family:Arial;width:0px;border-collapse:collapse;border:none&quot; border=&quot;1&quot; dir=&quot;ltr&quot; cellpadding=&quot;0&quot; cellspacing=&quot;0&quot; xmlns=&quot;http://www.w3.org/1999/xhtml&quot;&gt;&lt;colgroup&gt;&lt;col width=&quot;178&quot;&gt;&lt;col width=&quot;217&quot;&gt;&lt;col width=&quot;212&quot;&gt;&lt;col width=&quot;238&quot;&gt;&lt;col width=&quot;207&quot;&gt;&lt;/colgroup&gt;&lt;tbody&gt;&lt;tr style=&quot;height:21px;&quot;&gt;&lt;td data-sheets-value=&quot;{&amp;quot;1&amp;quot;:2,&amp;quot;2&amp;quot;:&amp;quot;//// Characteristics /////&amp;quot;}&quot; style=&quot;border-top:1px solid #000000;border-right:1px solid transparent;border-bottom:1px solid #000000;border-left:1px solid #000000;overflow:visible;padding:2px 0px 2px 0px;vertical-align:bottom;background-color:#ea4335;font-family:Calibri;font-size:14pt;font-weight:bold;&quot;&gt;&lt;div style=&quot;overflow: hidden; position: relative; width: 391px; left: 3px;&quot;&gt;&lt;div style=&quot;float:left;&quot;&gt;//// Characteristics /////&lt;/div&gt;&lt;/div&gt;&lt;/td&gt;&lt;td style=&quot;border-top:1px solid #000000;border-right:1px solid #000000;border-bottom:1px solid #000000;overflow:hidden;padding:2px 3px 2px 3px;vertical-align:bottom;background-color:#ea4335;&quot;&gt;&lt;/td&gt;&lt;td style=&quot;border-top:1px solid #000000;border-right:1px solid #000000;border-bottom:1px solid #000000;overflow:hidden;padding:2px 3px 2px 3px;vertical-align:bottom;background-color:#ea4335;&quot;&gt;&lt;/td&gt;&lt;td style=&quot;border-top:1px solid #000000;border-right:1px solid #000000;border-bottom:1px solid #000000;overflow:hidden;padding:2px 3px 2px 3px;vertical-align:bottom;background-color:#ea4335;&quot;&gt;&lt;/td&gt;&lt;td style=&quot;border-top:1px solid #000000;border-right:1px solid #000000;border-bottom:1px solid #000000;overflow:hidden;padding:2px 3px 2px 3px;vertical-align:bottom;background-color:#ea4335;&quot;&gt;&lt;/td&gt;&lt;/tr&gt;&lt;tr style=&quot;height:21px;&quot;&gt;&lt;td data-sheets-value=&quot;{&amp;quot;1&amp;quot;:2,&amp;quot;2&amp;quot;:&amp;quot;Ubiquity&amp;quot;}&quot; style=&quot;border-right:1px solid #000000;border-bottom:1px solid #000000;border-left:1px solid #000000;overflow:hidden;padding:2px 3px 2px 3px;vertical-align:bottom;background-color:#ffffff;font-family:Calibri;font-size:11pt;font-weight:bold;&quot;&gt;Ubiquity&lt;/td&gt;&lt;td data-sheets-value=&quot;{&amp;quot;1&amp;quot;:2,&amp;quot;2&amp;quot;:&amp;quot;Rare&amp;quot;}&quot; style=&quot;border-right: 1px solid rgb(0, 0, 0); border-bottom: 1px solid rgb(0, 0, 0); overflow: hidden; padding: 2px 3px; vertical-align: bottom; background-color: rgb(255, 255, 255); font-family: Calibri; font-size: 11pt; font-weight: normal; overflow-wrap: break-word; text-align: center;&quot;&gt;Rare&lt;/td&gt;&lt;td data-sheets-value=&quot;{&amp;quot;1&amp;quot;:2,&amp;quot;2&amp;quot;:&amp;quot;Slowly increasing consumption&amp;quot;}&quot; style=&quot;border-right: 1px solid rgb(0, 0, 0); border-bottom: 1px solid rgb(0, 0, 0); overflow: hidden; padding: 2px 3px; vertical-align: bottom; background-color: rgb(255, 255, 255); font-family: Calibri; font-size: 11pt; font-weight: normal; overflow-wrap: break-word; text-align: center;&quot;&gt;Slowly increasing consumption&lt;/td&gt;&lt;td data-sheets-value=&quot;{&amp;quot;1&amp;quot;:2,&amp;quot;2&amp;quot;:&amp;quot;Rapidly increasing consumption&amp;quot;}&quot; style=&quot;border-right: 1px solid rgb(0, 0, 0); border-bottom: 1px solid rgb(0, 0, 0); overflow: hidden; padding: 2px 3px; vertical-align: bottom; background-color: rgb(255, 255, 255); font-family: Calibri; font-size: 11pt; font-weight: normal; overflow-wrap: break-word; text-align: center;&quot;&gt;Rapidly increasing consumption&lt;/td&gt;&lt;td data-sheets-value=&quot;{&amp;quot;1&amp;quot;:2,&amp;quot;2&amp;quot;:&amp;quot;Widespread and stabilized&amp;quot;}&quot; style=&quot;border-right: 1px solid rgb(0, 0, 0); border-bottom: 1px solid rgb(0, 0, 0); overflow: hidden; padding: 2px 3px; vertical-align: bottom; background-color: rgb(255, 255, 255); font-family: Calibri; font-size: 11pt; font-weight: normal; overflow-wrap: break-word; text-align: center;&quot;&gt;Widespread and stabilized&lt;/td&gt;&lt;/tr&gt;&lt;tr style=&quot;height:21px;&quot;&gt;&lt;td data-sheets-value=&quot;{&amp;quot;1&amp;quot;:2,&amp;quot;2&amp;quot;:&amp;quot;Certainty&amp;quot;}&quot; style=&quot;border-right:1px solid #000000;border-bottom:1px solid #000000;border-left:1px solid #000000;overflow:hidden;padding:2px 3px 2px 3px;vertical-align:bottom;background-color:#f0f0f0;font-family:Calibri;font-size:11pt;font-weight:bold;&quot;&gt;Certainty&lt;/td&gt;&lt;td data-sheets-value=&quot;{&amp;quot;1&amp;quot;:2,&amp;quot;2&amp;quot;:&amp;quot;Poorly understood&amp;quot;}&quot; style=&quot;border-right: 1px solid rgb(0, 0, 0); border-bottom: 1px solid rgb(0, 0, 0); overflow: hidden; padding: 2px 3px; vertical-align: bottom; background-color: rgb(240, 240, 240); font-family: Calibri; font-size: 11pt; font-weight: normal; overflow-wrap: break-word; text-align: center;&quot;&gt;Poorly understood&lt;/td&gt;&lt;td data-sheets-value=&quot;{&amp;quot;1&amp;quot;:2,&amp;quot;2&amp;quot;:&amp;quot;Rapid increases in learning&amp;quot;}&quot; style=&quot;border-right: 1px solid rgb(0, 0, 0); border-bottom: 1px solid rgb(0, 0, 0); overflow: hidden; padding: 2px 3px; vertical-align: bottom; background-color: rgb(240, 240, 240); font-family: Calibri; font-size: 11pt; font-weight: normal; overflow-wrap: break-word; text-align: center;&quot;&gt;Rapid increases in learning&lt;/td&gt;&lt;td data-sheets-value=&quot;{&amp;quot;1&amp;quot;:2,&amp;quot;2&amp;quot;:&amp;quot;Rapid increases in use / fit for purpose&amp;quot;}&quot; style=&quot;border-right: 1px solid rgb(0, 0, 0); border-bottom: 1px solid rgb(0, 0, 0); overflow: hidden; padding: 2px 3px; vertical-align: bottom; background-color: rgb(240, 240, 240); font-family: Calibri; font-size: 11pt; font-weight: normal; overflow-wrap: break-word; text-align: center;&quot;&gt;Rapid increases in use / fit for purpose&lt;/td&gt;&lt;td data-sheets-value=&quot;{&amp;quot;1&amp;quot;:2,&amp;quot;2&amp;quot;:&amp;quot;Generally understood (in terms of use)&amp;quot;}&quot; style=&quot;border-right: 1px solid rgb(0, 0, 0); border-bottom: 1px solid rgb(0, 0, 0); overflow: hidden; padding: 2px 3px; vertical-align: bottom; background-color: rgb(240, 240, 240); font-family: Calibri; font-size: 11pt; font-weight: normal; overflow-wrap: break-word; text-align: center;&quot;&gt;Generally understood (in terms of use)&lt;/td&gt;&lt;/tr&gt;&lt;tr style=&quot;height:21px;&quot;&gt;&lt;td data-sheets-value=&quot;{&amp;quot;1&amp;quot;:2,&amp;quot;2&amp;quot;:&amp;quot;Publication type&amp;quot;}&quot; style=&quot;border-right:1px solid #000000;border-bottom:1px solid #000000;border-left:1px solid #000000;overflow:hidden;padding:2px 3px 2px 3px;vertical-align:bottom;background-color:#ffffff;font-family:Calibri;font-size:11pt;font-weight:bold;&quot;&gt;Publication type&lt;/td&gt;&lt;td data-sheets-value=&quot;{&amp;quot;1&amp;quot;:2,&amp;quot;2&amp;quot;:&amp;quot;Normally describe the wonder of the thing&amp;quot;}&quot; style=&quot;border-right: 1px solid rgb(0, 0, 0); border-bottom: 1px solid rgb(0, 0, 0); overflow: hidden; padding: 2px 3px; vertical-align: bottom; background-color: rgb(255, 255, 255); font-family: Calibri; font-size: 11pt; font-weight: normal; overflow-wrap: break-word; text-align: center;&quot;&gt;Normally describe the wonder of the thing&lt;/td&gt;&lt;td data-sheets-value=&quot;{&amp;quot;1&amp;quot;:2,&amp;quot;2&amp;quot;:&amp;quot;Build / construct / awareness and learning&amp;quot;}&quot; style=&quot;border-right: 1px solid rgb(0, 0, 0); border-bottom: 1px solid rgb(0, 0, 0); overflow: hidden; padding: 2px 3px; vertical-align: bottom; background-color: rgb(255, 255, 255); font-family: Calibri; font-size: 11pt; font-weight: normal; overflow-wrap: break-word; text-align: center;&quot;&gt;Build / construct / awareness and learning&lt;/td&gt;&lt;td data-sheets-value=&quot;{&amp;quot;1&amp;quot;:2,&amp;quot;2&amp;quot;:&amp;quot;Maintenance / operations / installation / features&amp;quot;}&quot; style=&quot;border-right: 1px solid rgb(0, 0, 0); border-bottom: 1px solid rgb(0, 0, 0); overflow: hidden; padding: 2px 3px; vertical-align: bottom; background-color: rgb(255, 255, 255); font-family: Calibri; font-size: 11pt; font-weight: normal; overflow-wrap: break-word; text-align: center;&quot;&gt;Maintenance / operations / installation / features&lt;/td&gt;&lt;td data-sheets-value=&quot;{&amp;quot;1&amp;quot;:2,&amp;quot;2&amp;quot;:&amp;quot;Focused on use&amp;quot;}&quot; style=&quot;border-right: 1px solid rgb(0, 0, 0); border-bottom: 1px solid rgb(0, 0, 0); overflow: hidden; padding: 2px 3px; vertical-align: bottom; background-color: rgb(255, 255, 255); font-family: Calibri; font-size: 11pt; font-weight: normal; overflow-wrap: break-word; text-align: center;&quot;&gt;Focused on use&lt;/td&gt;&lt;/tr&gt;&lt;tr style=&quot;height:21px;&quot;&gt;&lt;td data-sheets-value=&quot;{&amp;quot;1&amp;quot;:2,&amp;quot;2&amp;quot;:&amp;quot;//// General properties ////&amp;quot;}&quot; style=&quot;border-right:1px solid transparent;border-bottom:1px solid #000000;border-left:1px solid #000000;overflow:visible;padding:2px 0px 2px 0px;vertical-align:bottom;background-color:#ea4335;font-family:Calibri;font-size:14pt;font-weight:bold;&quot;&gt;&lt;div style=&quot;overflow: hidden; position: relative; width: 391px; left: 3px;&quot;&gt;&lt;div style=&quot;float:left;&quot;&gt;//// General properties ////&lt;/div&gt;&lt;/div&gt;&lt;/td&gt;&lt;td style=&quot;border-right:1px solid #000000;border-bottom:1px solid #000000;overflow:hidden;padding:2px 0px 2px 0px;vertical-align:bottom;background-color:#ea4335;font-family:Calibri;font-size:14pt;font-weight:bold;&quot;&gt;&lt;/td&gt;&lt;td style=&quot;border-right:1px solid #000000;border-bottom:1px solid #000000;overflow:hidden;padding:2px 0px 2px 0px;vertical-align:bottom;background-color:#ea4335;font-family:Calibri;font-size:14pt;font-weight:bold;&quot;&gt;&lt;/td&gt;&lt;td style=&quot;border-right:1px solid #000000;border-bottom:1px solid #000000;overflow:hidden;padding:2px 0px 2px 0px;vertical-align:bottom;background-color:#ea4335;font-family:Calibri;font-size:14pt;font-weight:bold;&quot;&gt;&lt;/td&gt;&lt;td style=&quot;border-right:1px solid #000000;border-bottom:1px solid #000000;overflow:hidden;padding:2px 0px 2px 0px;vertical-align:bottom;background-color:#ea4335;font-family:Calibri;font-size:14pt;font-weight:bold;&quot;&gt;&lt;/td&gt;&lt;/tr&gt;&lt;tr style=&quot;height:21px;&quot;&gt;&lt;td data-sheets-value=&quot;{&amp;quot;1&amp;quot;:2,&amp;quot;2&amp;quot;:&amp;quot;Market&amp;quot;}&quot; style=&quot;border-right:1px solid #000000;border-bottom:1px solid #000000;border-left:1px solid #000000;overflow:hidden;padding:2px 3px 2px 3px;vertical-align:bottom;background-color:#ffffff;font-family:Calibri;font-size:11pt;font-weight:bold;&quot;&gt;Market&lt;/td&gt;&lt;td data-sheets-value=&quot;{&amp;quot;1&amp;quot;:2,&amp;quot;2&amp;quot;:&amp;quot;Undefined market&amp;quot;}&quot; style=&quot;border-right: 1px solid rgb(0, 0, 0); border-bottom: 1px solid rgb(0, 0, 0); overflow: hidden; padding: 2px 3px; vertical-align: bottom; background-color: rgb(255, 255, 255); font-family: Calibri; font-size: 11pt; font-weight: normal; overflow-wrap: break-word; text-align: center;&quot;&gt;Undefined market&lt;/td&gt;&lt;td data-sheets-value=&quot;{&amp;quot;1&amp;quot;:2,&amp;quot;2&amp;quot;:&amp;quot;Forming market&amp;quot;}&quot; style=&quot;border-right: 1px solid rgb(0, 0, 0); border-bottom: 1px solid rgb(0, 0, 0); overflow: hidden; padding: 2px 3px; vertical-align: bottom; background-color: rgb(255, 255, 255); font-family: Calibri; font-size: 11pt; font-weight: normal; overflow-wrap: break-word; text-align: center;&quot;&gt;Forming market&lt;/td&gt;&lt;td data-sheets-value=&quot;{&amp;quot;1&amp;quot;:2,&amp;quot;2&amp;quot;:&amp;quot;Growing market&amp;quot;}&quot; style=&quot;border-right: 1px solid rgb(0, 0, 0); border-bottom: 1px solid rgb(0, 0, 0); overflow: hidden; padding: 2px 3px; vertical-align: bottom; background-color: rgb(255, 255, 255); font-family: Calibri; font-size: 11pt; font-weight: normal; overflow-wrap: break-word; text-align: center;&quot;&gt;Growing market&lt;/td&gt;&lt;td data-sheets-value=&quot;{&amp;quot;1&amp;quot;:2,&amp;quot;2&amp;quot;:&amp;quot;Mature market&amp;quot;}&quot; style=&quot;border-right: 1px solid rgb(0, 0, 0); border-bottom: 1px solid rgb(0, 0, 0); overflow: hidden; padding: 2px 3px; vertical-align: bottom; background-color: rgb(255, 255, 255); font-family: Calibri; font-size: 11pt; font-weight: normal; overflow-wrap: break-word; text-align: center;&quot;&gt;Mature market&lt;/td&gt;&lt;/tr&gt;&lt;tr style=&quot;height:21px;&quot;&gt;&lt;td data-sheets-value=&quot;{&amp;quot;1&amp;quot;:2,&amp;quot;2&amp;quot;:&amp;quot;Knowledge management&amp;quot;}&quot; style=&quot;border-right:1px solid #000000;border-bottom:1px solid #000000;border-left:1px solid #000000;overflow:hidden;padding:2px 3px 2px 3px;vertical-align:bottom;background-color:#f0f0f0;font-family:Calibri;font-size:11pt;font-weight:bold;&quot;&gt;Knowledge management&lt;/td&gt;&lt;td data-sheets-value=&quot;{&amp;quot;1&amp;quot;:2,&amp;quot;2&amp;quot;:&amp;quot;Uncertain&amp;quot;}&quot; style=&quot;border-right: 1px solid rgb(0, 0, 0); border-bottom: 1px solid rgb(0, 0, 0); overflow: hidden; padding: 2px 3px; vertical-align: bottom; background-color: rgb(240, 240, 240); font-family: Calibri; font-size: 11pt; font-weight: normal; overflow-wrap: break-word; text-align: center;&quot;&gt;Uncertain&lt;/td&gt;&lt;td data-sheets-value=&quot;{&amp;quot;1&amp;quot;:2,&amp;quot;2&amp;quot;:&amp;quot;Learning on use&amp;quot;}&quot; style=&quot;border-right: 1px solid rgb(0, 0, 0); border-bottom: 1px solid rgb(0, 0, 0); overflow: hidden; padding: 2px 3px; vertical-align: bottom; background-color: rgb(240, 240, 240); font-family: Calibri; font-size: 11pt; font-weight: normal; overflow-wrap: break-word; text-align: center;&quot;&gt;Learning on use&lt;/td&gt;&lt;td data-sheets-value=&quot;{&amp;quot;1&amp;quot;:2,&amp;quot;2&amp;quot;:&amp;quot;Learning on operation&amp;quot;}&quot; style=&quot;border-right: 1px solid rgb(0, 0, 0); border-bottom: 1px solid rgb(0, 0, 0); overflow: hidden; padding: 2px 3px; vertical-align: bottom; background-color: rgb(240, 240, 240); font-family: Calibri; font-size: 11pt; font-weight: normal; overflow-wrap: break-word; text-align: center;&quot;&gt;Learning on operation&lt;/td&gt;&lt;td data-sheets-value=&quot;{&amp;quot;1&amp;quot;:2,&amp;quot;2&amp;quot;:&amp;quot;Known / accepted&amp;quot;}&quot; style=&quot;border-right: 1px solid rgb(0, 0, 0); border-bottom: 1px solid rgb(0, 0, 0); overflow: hidden; padding: 2px 3px; vertical-align: bottom; background-color: rgb(240, 240, 240); font-family: Calibri; font-size: 11pt; font-weight: normal; overflow-wrap: break-word; text-align: center;&quot;&gt;Known / accepted&lt;/td&gt;&lt;/tr&gt;&lt;tr style=&quot;height:21px;&quot;&gt;&lt;td data-sheets-value=&quot;{&amp;quot;1&amp;quot;:2,&amp;quot;2&amp;quot;:&amp;quot;Market perception&amp;quot;}&quot; style=&quot;border-right:1px solid #000000;border-bottom:1px solid #000000;border-left:1px solid #000000;overflow:hidden;padding:2px 3px 2px 3px;vertical-align:bottom;background-color:#ffffff;font-family:Calibri;font-size:11pt;font-weight:bold;&quot;&gt;Market perception&lt;/td&gt;&lt;td data-sheets-value=&quot;{&amp;quot;1&amp;quot;:2,&amp;quot;2&amp;quot;:&amp;quot;Chaotic (non-linear)&amp;quot;}&quot; style=&quot;border-right: 1px solid rgb(0, 0, 0); border-bottom: 1px solid rgb(0, 0, 0); overflow: hidden; padding: 2px 3px; vertical-align: bottom; background-color: rgb(255, 255, 255); font-family: Calibri; font-size: 11pt; font-weight: normal; overflow-wrap: break-word; text-align: center;&quot;&gt;Chaotic (non-linear)&lt;/td&gt;&lt;td data-sheets-value=&quot;{&amp;quot;1&amp;quot;:2,&amp;quot;2&amp;quot;:&amp;quot;Domain of experts&amp;quot;}&quot; style=&quot;border-right: 1px solid rgb(0, 0, 0); border-bottom: 1px solid rgb(0, 0, 0); overflow: hidden; padding: 2px 3px; vertical-align: bottom; background-color: rgb(255, 255, 255); font-family: Calibri; font-size: 11pt; font-weight: normal; overflow-wrap: break-word; text-align: center;&quot;&gt;Domain of experts&lt;/td&gt;&lt;td data-sheets-value=&quot;{&amp;quot;1&amp;quot;:2,&amp;quot;2&amp;quot;:&amp;quot;Increasing expectations of use&amp;quot;}&quot; style=&quot;border-right: 1px solid rgb(0, 0, 0); border-bottom: 1px solid rgb(0, 0, 0); overflow: hidden; padding: 2px 3px; vertical-align: bottom; background-color: rgb(255, 255, 255); font-family: Calibri; font-size: 11pt; font-weight: normal; overflow-wrap: break-word; text-align: center;&quot;&gt;Increasing expectations of use&lt;/td&gt;&lt;td data-sheets-value=&quot;{&amp;quot;1&amp;quot;:2,&amp;quot;2&amp;quot;:&amp;quot;Ordered / trivial&amp;quot;}&quot; style=&quot;border-right: 1px solid rgb(0, 0, 0); border-bottom: 1px solid rgb(0, 0, 0); overflow: hidden; padding: 2px 3px; vertical-align: bottom; background-color: rgb(255, 255, 255); font-family: Calibri; font-size: 11pt; font-weight: normal; overflow-wrap: break-word; text-align: center;&quot;&gt;Ordered / trivial&lt;/td&gt;&lt;/tr&gt;&lt;tr style=&quot;height:21px;&quot;&gt;&lt;td data-sheets-value=&quot;{&amp;quot;1&amp;quot;:2,&amp;quot;2&amp;quot;:&amp;quot;User perception&amp;quot;}&quot; style=&quot;border-right:1px solid #000000;border-bottom:1px solid #000000;border-left:1px solid #000000;overflow:hidden;padding:2px 3px 2px 3px;vertical-align:bottom;background-color:#f0f0f0;font-family:Calibri;font-size:11pt;font-weight:bold;&quot;&gt;User perception&lt;/td&gt;&lt;td data-sheets-value=&quot;{&amp;quot;1&amp;quot;:2,&amp;quot;2&amp;quot;:&amp;quot;Different / confusing / exciting / surprising&amp;quot;}&quot; style=&quot;border-right: 1px solid rgb(0, 0, 0); border-bottom: 1px solid rgb(0, 0, 0); overflow: hidden; padding: 2px 3px; vertical-align: bottom; background-color: rgb(240, 240, 240); font-family: Calibri; font-size: 11pt; font-weight: normal; overflow-wrap: break-word; text-align: center;&quot;&gt;Different / confusing / exciting / surprising&lt;/td&gt;&lt;td data-sheets-value=&quot;{&amp;quot;1&amp;quot;:2,&amp;quot;2&amp;quot;:&amp;quot;Cutting edge / emerging&amp;quot;}&quot; style=&quot;border-right: 1px solid rgb(0, 0, 0); border-bottom: 1px solid rgb(0, 0, 0); overflow: hidden; padding: 2px 3px; vertical-align: bottom; background-color: rgb(240, 240, 240); font-family: Calibri; font-size: 11pt; font-weight: normal; overflow-wrap: break-word; text-align: center;&quot;&gt;Cutting edge / emerging&lt;/td&gt;&lt;td data-sheets-value=&quot;{&amp;quot;1&amp;quot;:2,&amp;quot;2&amp;quot;:&amp;quot;Common / Disappointed if not used or available&amp;quot;}&quot; style=&quot;border-right: 1px solid rgb(0, 0, 0); border-bottom: 1px solid rgb(0, 0, 0); overflow: hidden; padding: 2px 3px; vertical-align: bottom; background-color: rgb(240, 240, 240); font-family: Calibri; font-size: 11pt; font-weight: normal; overflow-wrap: break-word; text-align: center;&quot;&gt;Common / Disappointed if not used or available&lt;/td&gt;&lt;td data-sheets-value=&quot;{&amp;quot;1&amp;quot;:2,&amp;quot;2&amp;quot;:&amp;quot;Standard / expected&amp;quot;}&quot; style=&quot;border-right: 1px solid rgb(0, 0, 0); border-bottom: 1px solid rgb(0, 0, 0); overflow: hidden; padding: 2px 3px; vertical-align: bottom; background-color: rgb(240, 240, 240); font-family: Calibri; font-size: 11pt; font-weight: normal; overflow-wrap: break-word; text-align: center;&quot;&gt;Standard / expected&lt;/td&gt;&lt;/tr&gt;&lt;tr style=&quot;height:21px;&quot;&gt;&lt;td data-sheets-value=&quot;{&amp;quot;1&amp;quot;:2,&amp;quot;2&amp;quot;:&amp;quot;Perception in industry&amp;quot;}&quot; style=&quot;border-right:1px solid #000000;border-bottom:1px solid #000000;border-left:1px solid #000000;overflow:hidden;padding:2px 3px 2px 3px;vertical-align:bottom;background-color:#ffffff;font-family:Calibri;font-size:11pt;font-weight:bold;&quot;&gt;Perception in industry&lt;/td&gt;&lt;td data-sheets-value=&quot;{&amp;quot;1&amp;quot;:2,&amp;quot;2&amp;quot;:&amp;quot;Competitive advantage / unpredictable / unknown&amp;quot;}&quot; style=&quot;border-right: 1px solid rgb(0, 0, 0); border-bottom: 1px solid rgb(0, 0, 0); overflow: hidden; padding: 2px 3px; vertical-align: bottom; background-color: rgb(255, 255, 255); font-family: Calibri; font-size: 11pt; font-weight: normal; overflow-wrap: break-word; text-align: center;&quot;&gt;Competitive advantage / unpredictable / unknown&lt;/td&gt;&lt;td data-sheets-value=&quot;{&amp;quot;1&amp;quot;:2,&amp;quot;2&amp;quot;:&amp;quot;Competitive advantage / ROI / case examples&amp;quot;}&quot; style=&quot;border-right: 1px solid rgb(0, 0, 0); border-bottom: 1px solid rgb(0, 0, 0); overflow: hidden; padding: 2px 3px; vertical-align: bottom; background-color: rgb(255, 255, 255); font-family: Calibri; font-size: 11pt; font-weight: normal; overflow-wrap: break-word; text-align: center;&quot;&gt;Competitive advantage / ROI / case examples&lt;/td&gt;&lt;td data-sheets-value=&quot;{&amp;quot;1&amp;quot;:2,&amp;quot;2&amp;quot;:&amp;quot;Advantage through implementation / features&amp;quot;}&quot; style=&quot;border-right: 1px solid rgb(0, 0, 0); border-bottom: 1px solid rgb(0, 0, 0); overflow: hidden; padding: 2px 3px; vertical-align: bottom; background-color: rgb(255, 255, 255); font-family: Calibri; font-size: 11pt; font-weight: normal; overflow-wrap: break-word; text-align: center;&quot;&gt;Advantage through implementation / features&lt;/td&gt;&lt;td data-sheets-value=&quot;{&amp;quot;1&amp;quot;:2,&amp;quot;2&amp;quot;:&amp;quot;Cost of doing business / accepted&amp;quot;}&quot; style=&quot;border-right: 1px solid rgb(0, 0, 0); border-bottom: 1px solid rgb(0, 0, 0); overflow: hidden; padding: 2px 3px; vertical-align: bottom; background-color: rgb(255, 255, 255); font-family: Calibri; font-size: 11pt; font-weight: normal; overflow-wrap: break-word; text-align: center;&quot;&gt;Cost of doing business / accepted&lt;/td&gt;&lt;/tr&gt;&lt;tr style=&quot;height:21px;&quot;&gt;&lt;td data-sheets-value=&quot;{&amp;quot;1&amp;quot;:2,&amp;quot;2&amp;quot;:&amp;quot;Focus of value&amp;quot;}&quot; style=&quot;border-right:1px solid #000000;border-bottom:1px solid #000000;border-left:1px solid #000000;overflow:hidden;padding:2px 3px 2px 3px;vertical-align:bottom;background-color:#f0f0f0;font-family:Calibri;font-size:11pt;font-weight:bold;&quot;&gt;Focus of value&lt;/td&gt;&lt;td data-sheets-value=&quot;{&amp;quot;1&amp;quot;:2,&amp;quot;2&amp;quot;:&amp;quot;High future value&amp;quot;}&quot; style=&quot;border-right: 1px solid rgb(0, 0, 0); border-bottom: 1px solid rgb(0, 0, 0); overflow: hidden; padding: 2px 3px; vertical-align: bottom; background-color: rgb(240, 240, 240); font-family: Calibri; font-size: 11pt; font-weight: normal; overflow-wrap: break-word; text-align: center;&quot;&gt;High future value&lt;/td&gt;&lt;td data-sheets-value=&quot;{&amp;quot;1&amp;quot;:2,&amp;quot;2&amp;quot;:&amp;quot;Seeking profit / ROI&amp;quot;}&quot; style=&quot;border-right: 1px solid rgb(0, 0, 0); border-bottom: 1px solid rgb(0, 0, 0); overflow: hidden; padding: 2px 3px; vertical-align: bottom; background-color: rgb(240, 240, 240); font-family: Calibri; font-size: 11pt; font-weight: normal; overflow-wrap: break-word; text-align: center;&quot;&gt;Seeking profit / ROI&lt;/td&gt;&lt;td data-sheets-value=&quot;{&amp;quot;1&amp;quot;:2,&amp;quot;2&amp;quot;:&amp;quot;High profitability&amp;quot;}&quot; style=&quot;border-right: 1px solid rgb(0, 0, 0); border-bottom: 1px solid rgb(0, 0, 0); overflow: hidden; padding: 2px 3px; vertical-align: bottom; background-color: rgb(240, 240, 240); font-family: Calibri; font-size: 11pt; font-weight: normal; overflow-wrap: break-word; text-align: center;&quot;&gt;High profitability&lt;/td&gt;&lt;td data-sheets-value=&quot;{&amp;quot;1&amp;quot;:2,&amp;quot;2&amp;quot;:&amp;quot;High volume / low margins&amp;quot;}&quot; style=&quot;border-right: 1px solid rgb(0, 0, 0); border-bottom: 1px solid rgb(0, 0, 0); overflow: hidden; padding: 2px 3px; vertical-align: bottom; background-color: rgb(240, 240, 240); font-family: Calibri; font-size: 11pt; font-weight: normal; overflow-wrap: break-word; text-align: center;&quot;&gt;High volume / low margins&lt;/td&gt;&lt;/tr&gt;&lt;tr style=&quot;height:21px;&quot;&gt;&lt;td data-sheets-value=&quot;{&amp;quot;1&amp;quot;:2,&amp;quot;2&amp;quot;:&amp;quot;Understanding&amp;quot;}&quot; style=&quot;border-right:1px solid #000000;border-bottom:1px solid #000000;border-left:1px solid #000000;overflow:hidden;padding:2px 3px 2px 3px;vertical-align:bottom;background-color:#ffffff;font-family:Calibri;font-size:11pt;font-weight:bold;&quot;&gt;Understanding&lt;/td&gt;&lt;td data-sheets-value=&quot;{&amp;quot;1&amp;quot;:2,&amp;quot;2&amp;quot;:&amp;quot;Poorly understood / unpredictable&amp;quot;}&quot; style=&quot;border-right: 1px solid rgb(0, 0, 0); border-bottom: 1px solid rgb(0, 0, 0); overflow: hidden; padding: 2px 3px; vertical-align: bottom; background-color: rgb(255, 255, 255); font-family: Calibri; font-size: 11pt; font-weight: normal; overflow-wrap: break-word; text-align: center;&quot;&gt;Poorly understood / unpredictable&lt;/td&gt;&lt;td data-sheets-value=&quot;{&amp;quot;1&amp;quot;:2,&amp;quot;2&amp;quot;:&amp;quot;Increasing understanding / development of measures&amp;quot;}&quot; style=&quot;border-right: 1px solid rgb(0, 0, 0); border-bottom: 1px solid rgb(0, 0, 0); overflow: hidden; padding: 2px 3px; vertical-align: bottom; background-color: rgb(255, 255, 255); font-family: Calibri; font-size: 11pt; font-weight: normal; overflow-wrap: break-word; text-align: center;&quot;&gt;Increasing understanding / development of measures&lt;/td&gt;&lt;td data-sheets-value=&quot;{&amp;quot;1&amp;quot;:2,&amp;quot;2&amp;quot;:&amp;quot;Increasing education / constant refinement of needs / measures&amp;quot;}&quot; style=&quot;border-right: 1px solid rgb(0, 0, 0); border-bottom: 1px solid rgb(0, 0, 0); overflow: hidden; padding: 2px 3px; vertical-align: bottom; background-color: rgb(255, 255, 255); font-family: Calibri; font-size: 11pt; font-weight: normal; overflow-wrap: break-word; text-align: center;&quot;&gt;Increasing education / constant refinement of needs / measures&lt;/td&gt;&lt;td data-sheets-value=&quot;{&amp;quot;1&amp;quot;:2,&amp;quot;2&amp;quot;:&amp;quot;Believed to be well defined / stable measurable&amp;quot;}&quot; style=&quot;border-right: 1px solid rgb(0, 0, 0); border-bottom: 1px solid rgb(0, 0, 0); overflow: hidden; padding: 2px 3px; vertical-align: bottom; background-color: rgb(255, 255, 255); font-family: Calibri; font-size: 11pt; font-weight: normal; overflow-wrap: break-word; text-align: center;&quot;&gt;Believed to be well defined / stable measurable&lt;/td&gt;&lt;/tr&gt;&lt;tr style=&quot;height:21px;&quot;&gt;&lt;td data-sheets-value=&quot;{&amp;quot;1&amp;quot;:2,&amp;quot;2&amp;quot;:&amp;quot;Comparison&amp;quot;}&quot; style=&quot;border-right:1px solid #000000;border-bottom:1px solid #000000;border-left:1px solid #000000;overflow:hidden;padding:2px 3px 2px 3px;vertical-align:bottom;background-color:#f0f0f0;font-family:Calibri;font-size:11pt;font-weight:bold;&quot;&gt;Comparison&lt;/td&gt;&lt;td data-sheets-value=&quot;{&amp;quot;1&amp;quot;:2,&amp;quot;2&amp;quot;:&amp;quot;Constantly changing / a differential / unstable&amp;quot;}&quot; style=&quot;border-right: 1px solid rgb(0, 0, 0); border-bottom: 1px solid rgb(0, 0, 0); overflow: hidden; padding: 2px 3px; vertical-align: bottom; background-color: rgb(240, 240, 240); font-family: Calibri; font-size: 11pt; font-weight: normal; overflow-wrap: break-word; text-align: center;&quot;&gt;Constantly changing / a differential / unstable&lt;/td&gt;&lt;td data-sheets-value=&quot;{&amp;quot;1&amp;quot;:2,&amp;quot;2&amp;quot;:&amp;quot;Learning from others / testing the water / some evidential support&amp;quot;}&quot; style=&quot;border-right: 1px solid rgb(0, 0, 0); border-bottom: 1px solid rgb(0, 0, 0); overflow: hidden; padding: 2px 3px; vertical-align: bottom; background-color: rgb(240, 240, 240); font-family: Calibri; font-size: 11pt; font-weight: normal; overflow-wrap: break-word; text-align: center;&quot;&gt;Learning from others / testing the water / some evidential support&lt;/td&gt;&lt;td data-sheets-value=&quot;{&amp;quot;1&amp;quot;:2,&amp;quot;2&amp;quot;:&amp;quot;Feature difference&amp;quot;}&quot; style=&quot;border-right: 1px solid rgb(0, 0, 0); border-bottom: 1px solid rgb(0, 0, 0); overflow: hidden; padding: 2px 3px; vertical-align: bottom; background-color: rgb(240, 240, 240); font-family: Calibri; font-size: 11pt; font-weight: normal; overflow-wrap: break-word; text-align: center;&quot;&gt;Feature difference&lt;/td&gt;&lt;td data-sheets-value=&quot;{&amp;quot;1&amp;quot;:2,&amp;quot;2&amp;quot;:&amp;quot;Essential / operational advantage&amp;quot;}&quot; style=&quot;border-right: 1px solid rgb(0, 0, 0); border-bottom: 1px solid rgb(0, 0, 0); overflow: hidden; padding: 2px 3px; vertical-align: bottom; background-color: rgb(240, 240, 240); font-family: Calibri; font-size: 11pt; font-weight: normal; overflow-wrap: break-word; text-align: center;&quot;&gt;Essential / operational advantage&lt;/td&gt;&lt;/tr&gt;&lt;tr style=&quot;height:21px;&quot;&gt;&lt;td data-sheets-value=&quot;{&amp;quot;1&amp;quot;:2,&amp;quot;2&amp;quot;:&amp;quot;Failure&amp;quot;}&quot; style=&quot;border-right:1px solid #000000;border-bottom:1px solid #000000;border-left:1px solid #000000;overflow:hidden;padding:2px 3px 2px 3px;vertical-align:bottom;background-color:#ffffff;font-family:Calibri;font-size:11pt;font-weight:bold;&quot;&gt;Failure&lt;/td&gt;&lt;td data-sheets-value=&quot;{&amp;quot;1&amp;quot;:2,&amp;quot;2&amp;quot;:&amp;quot;High / tolerated / assumed&amp;quot;}&quot; style=&quot;border-right: 1px solid rgb(0, 0, 0); border-bottom: 1px solid rgb(0, 0, 0); overflow: hidden; padding: 2px 3px; vertical-align: bottom; background-color: rgb(255, 255, 255); font-family: Calibri; font-size: 11pt; font-weight: normal; overflow-wrap: break-word; text-align: center;&quot;&gt;High / tolerated / assumed&lt;/td&gt;&lt;td data-sheets-value=&quot;{&amp;quot;1&amp;quot;:2,&amp;quot;2&amp;quot;:&amp;quot;Moderate / unsurprising but disappointing&amp;quot;}&quot; style=&quot;border-right: 1px solid rgb(0, 0, 0); border-bottom: 1px solid rgb(0, 0, 0); overflow: hidden; padding: 2px 3px; vertical-align: bottom; background-color: rgb(255, 255, 255); font-family: Calibri; font-size: 11pt; font-weight: normal; overflow-wrap: break-word; text-align: center;&quot;&gt;Moderate / unsurprising but disappointing&lt;/td&gt;&lt;td data-sheets-value=&quot;{&amp;quot;1&amp;quot;:2,&amp;quot;2&amp;quot;:&amp;quot;Not tolerated / focus on continuous improvement&amp;quot;}&quot; style=&quot;border-right: 1px solid rgb(0, 0, 0); border-bottom: 1px solid rgb(0, 0, 0); overflow: hidden; padding: 2px 3px; vertical-align: bottom; background-color: rgb(255, 255, 255); font-family: Calibri; font-size: 11pt; font-weight: normal; overflow-wrap: break-word; text-align: center;&quot;&gt;Not tolerated / focus on continuous improvement&lt;/td&gt;&lt;td data-sheets-value=&quot;{&amp;quot;1&amp;quot;:2,&amp;quot;2&amp;quot;:&amp;quot;Operational efficiency / surprised by failures&amp;quot;}&quot; style=&quot;border-right: 1px solid rgb(0, 0, 0); border-bottom: 1px solid rgb(0, 0, 0); overflow: hidden; padding: 2px 3px; vertical-align: bottom; background-color: rgb(255, 255, 255); font-family: Calibri; font-size: 11pt; font-weight: normal; overflow-wrap: break-word; text-align: center;&quot;&gt;Operational efficiency / surprised by failures&lt;/td&gt;&lt;/tr&gt;&lt;tr style=&quot;height:21px;&quot;&gt;&lt;td data-sheets-value=&quot;{&amp;quot;1&amp;quot;:2,&amp;quot;2&amp;quot;:&amp;quot;Market action&amp;quot;}&quot; style=&quot;border-right:1px solid #000000;border-bottom:1px solid #000000;border-left:1px solid #000000;overflow:hidden;padding:2px 3px 2px 3px;vertical-align:bottom;background-color:#f0f0f0;font-family:Calibri;font-size:11pt;font-weight:bold;&quot;&gt;Market action&lt;/td&gt;&lt;td data-sheets-value=&quot;{&amp;quot;1&amp;quot;:2,&amp;quot;2&amp;quot;:&amp;quot;Gambling / driven by gut&amp;quot;}&quot; style=&quot;border-right: 1px solid rgb(0, 0, 0); border-bottom: 1px solid rgb(0, 0, 0); overflow: hidden; padding: 2px 3px; vertical-align: bottom; background-color: rgb(240, 240, 240); font-family: Calibri; font-size: 11pt; font-weight: normal; overflow-wrap: break-word; text-align: center;&quot;&gt;Gambling / driven by gut&lt;/td&gt;&lt;td data-sheets-value=&quot;{&amp;quot;1&amp;quot;:2,&amp;quot;2&amp;quot;:&amp;quot;Exploring a \&amp;quot;found\&amp;quot; value&amp;quot;}&quot; style=&quot;border-right: 1px solid rgb(0, 0, 0); border-bottom: 1px solid rgb(0, 0, 0); overflow: hidden; padding: 2px 3px; vertical-align: bottom; background-color: rgb(240, 240, 240); font-family: Calibri; font-size: 11pt; font-weight: normal; overflow-wrap: break-word; text-align: center;&quot;&gt;Exploring a &quot;found&quot; value&lt;/td&gt;&lt;td data-sheets-value=&quot;{&amp;quot;1&amp;quot;:2,&amp;quot;2&amp;quot;:&amp;quot;Market analysis / listening to customers&amp;quot;}&quot; style=&quot;border-right: 1px solid rgb(0, 0, 0); border-bottom: 1px solid rgb(0, 0, 0); overflow: hidden; padding: 2px 3px; vertical-align: bottom; background-color: rgb(240, 240, 240); font-family: Calibri; font-size: 11pt; font-weight: normal; overflow-wrap: break-word; text-align: center;&quot;&gt;Market analysis / listening to customers&lt;/td&gt;&lt;td data-sheets-value=&quot;{&amp;quot;1&amp;quot;:2,&amp;quot;2&amp;quot;:&amp;quot;Metric Driven / Build what is needed&amp;quot;}&quot; style=&quot;border-right: 1px solid rgb(0, 0, 0); border-bottom: 1px solid rgb(0, 0, 0); overflow: hidden; padding: 2px 3px; vertical-align: bottom; background-color: rgb(240, 240, 240); font-family: Calibri; font-size: 11pt; font-weight: normal; overflow-wrap: break-word; text-align: center;&quot;&gt;Metric Driven / Build what is needed&lt;/td&gt;&lt;/tr&gt;&lt;tr style=&quot;height:21px;&quot;&gt;&lt;td data-sheets-value=&quot;{&amp;quot;1&amp;quot;:2,&amp;quot;2&amp;quot;:&amp;quot;Efficiency&amp;quot;}&quot; style=&quot;border-right:1px solid #000000;border-bottom:1px solid #000000;border-left:1px solid #000000;overflow:hidden;padding:2px 3px 2px 3px;vertical-align:bottom;background-color:#ffffff;font-family:Calibri;font-size:11pt;font-weight:bold;&quot;&gt;Efficiency&lt;/td&gt;&lt;td data-sheets-value=&quot;{&amp;quot;1&amp;quot;:2,&amp;quot;2&amp;quot;:&amp;quot;Reducing the cost of change&amp;quot;}&quot; style=&quot;border-right: 1px solid rgb(0, 0, 0); border-bottom: 1px solid rgb(0, 0, 0); overflow: hidden; padding: 2px 3px; vertical-align: bottom; background-color: rgb(255, 255, 255); font-family: Calibri; font-size: 11pt; font-weight: normal; overflow-wrap: break-word; text-align: center;&quot;&gt;Reducing the cost of change&lt;/td&gt;&lt;td data-sheets-value=&quot;{&amp;quot;1&amp;quot;:2,&amp;quot;2&amp;quot;:&amp;quot;Reducing the cost of waste&amp;quot;}&quot; style=&quot;border-right: 1px solid rgb(0, 0, 0); border-bottom: 1px solid rgb(0, 0, 0); overflow: hidden; padding: 2px 3px; vertical-align: bottom; background-color: rgb(255, 255, 255); font-family: Calibri; font-size: 11pt; font-weight: normal; overflow-wrap: break-word; text-align: center;&quot;&gt;Reducing the cost of waste&lt;/td&gt;&lt;td data-sheets-value=&quot;{&amp;quot;1&amp;quot;:2,&amp;quot;2&amp;quot;:&amp;quot;Reducing the cost of waste&amp;quot;}&quot; style=&quot;border-right: 1px solid rgb(0, 0, 0); border-bottom: 1px solid rgb(0, 0, 0); overflow: hidden; padding: 2px 3px; vertical-align: bottom; background-color: rgb(255, 255, 255); font-family: Calibri; font-size: 11pt; font-weight: normal; overflow-wrap: break-word; text-align: center;&quot;&gt;Reducing the cost of waste&lt;/td&gt;&lt;td data-sheets-value=&quot;{&amp;quot;1&amp;quot;:2,&amp;quot;2&amp;quot;:&amp;quot;Reducing the cost of deviation&amp;quot;}&quot; style=&quot;border-right: 1px solid rgb(0, 0, 0); border-bottom: 1px solid rgb(0, 0, 0); overflow: hidden; padding: 2px 3px; vertical-align: bottom; background-color: rgb(255, 255, 255); font-family: Calibri; font-size: 11pt; font-weight: normal; overflow-wrap: break-word; text-align: center;&quot;&gt;Reducing the cost of deviation&lt;/td&gt;&lt;/tr&gt;&lt;tr style=&quot;height:21px;&quot;&gt;&lt;td data-sheets-value=&quot;{&amp;quot;1&amp;quot;:2,&amp;quot;2&amp;quot;:&amp;quot;Decision drivers&amp;quot;}&quot; style=&quot;border-right:1px solid #000000;border-bottom:1px solid #000000;border-left:1px solid #000000;overflow:hidden;padding:2px 3px 2px 3px;vertical-align:bottom;background-color:#f0f0f0;font-family:Calibri;font-size:11pt;font-weight:bold;&quot;&gt;Decision drivers&lt;/td&gt;&lt;td data-sheets-value=&quot;{&amp;quot;1&amp;quot;:2,&amp;quot;2&amp;quot;:&amp;quot;Heritage / culture&amp;quot;}&quot; style=&quot;border-right: 1px solid rgb(0, 0, 0); border-bottom: 1px solid rgb(0, 0, 0); overflow: hidden; padding: 2px 3px; vertical-align: bottom; background-color: rgb(240, 240, 240); font-family: Calibri; font-size: 11pt; font-weight: normal; overflow-wrap: break-word; text-align: center;&quot;&gt;Heritage / culture&lt;/td&gt;&lt;td data-sheets-value=&quot;{&amp;quot;1&amp;quot;:2,&amp;quot;2&amp;quot;:&amp;quot;Analysis &amp;amp; synthesis&amp;quot;}&quot; style=&quot;border-right: 1px solid rgb(0, 0, 0); border-bottom: 1px solid rgb(0, 0, 0); overflow: hidden; padding: 2px 3px; vertical-align: bottom; background-color: rgb(240, 240, 240); font-family: Calibri; font-size: 11pt; font-weight: normal; overflow-wrap: break-word; text-align: center;&quot;&gt;Analysis &amp;amp; synthesis&lt;/td&gt;&lt;td data-sheets-value=&quot;{&amp;quot;1&amp;quot;:2,&amp;quot;2&amp;quot;:&amp;quot;Analysis &amp;amp; synthesis&amp;quot;}&quot; style=&quot;border-right: 1px solid rgb(0, 0, 0); border-bottom: 1px solid rgb(0, 0, 0); overflow: hidden; padding: 2px 3px; vertical-align: bottom; background-color: rgb(240, 240, 240); font-family: Calibri; font-size: 11pt; font-weight: normal; overflow-wrap: break-word; text-align: center;&quot;&gt;Analysis &amp;amp; synthesis&lt;/td&gt;&lt;td data-sheets-value=&quot;{&amp;quot;1&amp;quot;:2,&amp;quot;2&amp;quot;:&amp;quot;Previous experience&amp;quot;}&quot; style=&quot;border-right: 1px solid rgb(0, 0, 0); border-bottom: 1px solid rgb(0, 0, 0); overflow: hidden; padding: 2px 3px; vertical-align: bottom; background-color: rgb(240, 240, 240); font-family: Calibri; font-size: 11pt; font-weight: normal; overflow-wrap: break-word; text-align: center;&quot;&gt;Previous experience&lt;/td&gt;&lt;/tr&gt;&lt;/tbody&gt;&lt;/table&gt;" style="text;whiteSpace=wrap;html=1;fontSize=23;fontFamily=Verdana;" parent="1" vertex="1">
          <mxGeometry x="20" y="70" width="1060" height="560" as="geometry" />
        </mxCell>
        <mxCell id="gkQObEbf8Dhn02XyAyJG-1" value="Properties of components" style="text;strokeColor=default;fillColor=none;html=1;fontSize=24;fontStyle=1;verticalAlign=middle;align=center;labelBackgroundColor=none;labelBorderColor=none;fillStyle=auto;strokeWidth=4;fontFamily=Verdana;fontColor=#000000;" parent="1" vertex="1">
          <mxGeometry x="20" y="20" width="1050" height="40" as="geometry" />
        </mxCell>
      </root>
    </mxGraphModel>
  </diagram>
</mxfile>
